<?xml version="1.0" encoding="UTF-8" standalone="no"?>
<svg
   xmlns:dc="http://purl.org/dc/elements/1.1/"
   xmlns:cc="http://creativecommons.org/ns#"
   xmlns:rdf="http://www.w3.org/1999/02/22-rdf-syntax-ns#"
   xmlns:svg="http://www.w3.org/2000/svg"
   xmlns="http://www.w3.org/2000/svg"
   width="82.406136mm"
   height="129.16048mm"
   viewBox="0 0 82.406136 129.16048"
   version="1.1"
   id="svg8">
  <defs
     id="defs2" />
  <metadata
     id="metadata5">
    <rdf:RDF>
      <cc:Work
         rdf:about="">
        <dc:format>image/svg+xml</dc:format>
        <dc:type
           rdf:resource="http://purl.org/dc/dcmitype/StillImage" />
        <dc:title></dc:title>
      </cc:Work>
    </rdf:RDF>
  </metadata>
  <g
     id="layer1"
     transform="translate(-40.556162,-26.12199)">
    <path
       style="fill:#000000;stroke-width:0.0625293"
       d="m 57.286806,155.24537 c -0.64248,-0.10233 -0.96233,-0.34482 -1.35799,-1.02953 -0.181,-0.31324 -0.29228,-0.43163 -0.50159,-0.53363 -0.41604,-0.20274 -0.59644,-0.33159 -0.83601,-0.5971 -0.2804,-0.31077 -0.8568,-1.31584 -0.99041,-1.72698 -0.0562,-0.17283 -0.11275,-0.31423 -0.12576,-0.31423 -0.013,0 -0.26255,0.13561 -0.55454,0.30136 -0.63606,0.36105 -1.29579,0.53441 -2.05942,0.54114 -0.69859,0.006 -0.8837,-0.10022 -1.35922,-0.78113 -0.46421,-0.66473 -0.75513,-0.81406 -1.58358,-0.81291 -0.72015,0.001 -1.1385,0.12408 -1.88203,0.55367 -0.76271,0.44068 -1.05289,0.48671 -1.48865,0.23616 -0.23578,-0.13557 -0.40768,-0.31102 -0.65938,-0.67302 -0.18724,-0.26931 -0.56778,-0.79336 -0.84563,-1.16456 -1.1549,-1.54293 -1.54788,-2.6326 -2.08912,-5.79278 -0.19505,-1.13888 -0.21469,-1.35366 -0.21376,-2.33864 10e-4,-1.21844 0.0879,-1.718 0.45661,-2.63026 0.44721,-1.10642 0.98513,-1.79023 1.77694,-2.25884 0.21703,-0.12844 0.41054,-0.28234 0.43001,-0.34198 0.0195,-0.0597 -0.0216,-0.41701 -0.0912,-0.79412 -0.15384,-0.83323 -1.09856,-7.53516 -1.33408,-9.46399 -0.47019,-3.85083 -0.50825,-6.03354 -0.14254,-8.17514 0.3218,-1.88447 0.86667,-3.1532 1.77114,-4.12409 1.06931,-1.14785 2.2527,-1.83237 4.45698,-2.57809 l 1.03824,-0.35124 0.0168,-0.94375 c 0.0182,-1.01927 -0.0418,-2.29103 -0.1965,-4.1636 -0.0871,-1.05476 -0.0902,-1.40044 -0.0276,-3.11818 0.12266,-3.367911 0.24185,-4.120981 0.92805,-5.863521 l 0.24024,-0.61008 -0.0931,-0.4745 c -0.15553,-0.79216 -0.20386,-1.25654 -0.20421,-1.96216 l -3.4e-4,-0.67421 -0.2073,0.2336 c -0.30243,0.3408 -1.00936,1.46024 -1.34941,2.13684 -0.32064,0.63798 -0.86859,1.90385 -1.12741,2.60456 -0.0895,0.24233 -0.20109,0.49399 -0.24794,0.55923 -0.1139,0.15862 -0.3638,0.15008 -0.54635,-0.0187 -0.21393,-0.19776 -0.63518,-0.97674 -0.80553,-1.48957 -0.32581,-0.98089 -0.94931,-4.32296 -1.13222,-6.06896 -0.11055,-1.05526 -0.13311,-2.80472 -0.069,-5.35305 0.12391,-4.92795 0.31604,-7.61327 0.75844,-10.60032 0.096,-0.647908 0.16698,-1.1867 0.15783,-1.197318 -0.0347,-0.04026 -1.29807,0.65676 -1.85642,1.024208 -0.32052,0.21093 -0.87507,0.61647 -1.23232,0.90121 -1.08987,0.86864 -1.1473,0.90714 -1.27955,0.85782 -0.0669,-0.025 -0.15758,-0.11169 -0.20155,-0.19274 -0.13707,-0.25272 -0.004,-1.56285 0.52131,-5.129683 0.53117,-3.607173 0.7814,-4.897905 1.17614,-6.066883 0.20809,-0.616217 1.91318,-4.651402 2.33445,-5.524591 0.65971,-1.367429 1.39036,-2.522273 2.67187,-4.223097 0.33148,-0.439936 0.59104,-0.813571 0.57681,-0.830299 -0.10097,-0.118656 -3.29803,0.784509 -4.00991,1.132794 -0.54124,0.264797 -1.44317,0.901421 -2.22157,1.568078 -0.63085,0.540296 -0.81878,0.617729 -0.97971,0.403665 -0.24042,-0.31981 -0.17168,-1.123131 0.21599,-2.524121 0.13942,-0.503821 0.516,-2.041191 0.83685,-3.416377 0.32085,-1.375186 0.67981,-2.763112 0.79769,-3.084281 0.26741,-0.728583 0.62512,-1.436374 1.25436,-2.481961 0.26924,-0.44739 0.75186,-1.255743 1.0725,-1.79634 0.50609,-0.853287 0.75869,-1.189427 1.91554,-2.549032 0.80803,-0.949649 1.55962,-1.765523 1.90937,-2.072679 0.84333,-0.740623 2.38567,-2.0107 3.605,-2.968623 0.58689,-0.461075 1.09156,-0.863414 1.12149,-0.894087 0.0579,-0.05937 -0.17623,-0.383721 -0.4348,-0.602274 -0.10095,-0.08533 -0.49319,-0.194518 -1.20495,-0.335443 -1.11988,-0.221728 -1.2422,-0.265621 -1.29606,-0.465054 -0.0506,-0.187501 -0.002,-0.299644 0.56013,-1.281412 0.54256,-0.948232 0.6793,-1.099451 1.35659,-1.500282 0.6814,-0.403261 0.90742,-0.437536 2.55088,-0.386816 1.59243,0.04915 2.48121,0.169763 3.77664,0.512534 0.41164,0.10892 0.75661,0.188426 0.76661,0.17668 0.01,-0.01175 -0.25543,-0.524008 -0.58982,-1.138358 -0.62267,-1.143957 -0.69351,-1.363982 -0.50406,-1.565471 0.17143,-0.182326 1.21275,-0.726402 1.61175,-0.842116 0.34512,-0.100092 0.42132,-0.0992 1.04428,0.01225 1.31664,0.235543 1.67619,0.361446 3.98163,1.394214 1.248,0.559063 2.2858,1.016479 2.30622,1.016479 0.0204,0 0.22238,-0.209248 0.4488,-0.464995 0.52354,-0.591354 1.14659,-0.958017 2.87575,-1.692365 2.263846,-0.961419 2.980622,-1.121976 6.114081,-1.369543 1.996026,-0.157702 2.401323,-0.212819 3.720359,-0.505944 1.435672,-0.319044 2.057081,-0.398825 2.748191,-0.352831 0.74383,0.0495 0.908281,0.130848 0.931855,0.460937 0.01408,0.19718 -0.0227,0.299633 -0.194509,0.54181 -0.251409,0.354383 -0.691606,0.755351 -1.089176,0.992114 l -0.286964,0.170895 0.776644,0.187132 c 1.832879,0.441634 4.467447,1.237323 4.958436,1.497541 0.269654,0.142913 0.905576,0.430991 1.41316,0.640175 0.507583,0.209182 1.145391,0.511407 1.417347,0.67161 0.271961,0.160203 0.803263,0.418712 1.180668,0.574464 0.756975,0.312395 0.974815,0.449423 1.338643,0.84204 0.290782,0.313791 0.337099,0.638391 0.116946,0.819611 -0.165905,0.136566 -1.04493,0.138976 -1.686591,0.0046 -0.252621,-0.05289 -0.465408,-0.089 -0.472866,-0.08024 -0.0075,0.0088 0.134342,0.157389 0.315105,0.330282 0.870962,0.833028 3.731555,4.38583 4.54644,5.646597 0.679845,1.051828 1.174463,2.070453 1.525318,3.14127 0.33053,1.008767 0.249899,1.116761 -0.859575,1.151227 -0.565091,0.01756 -0.894282,-0.0046 -1.162817,-0.07822 -0.206022,-0.05649 -0.382609,-0.09327 -0.392409,-0.08175 -0.02649,0.03114 0.774763,1.263587 1.307784,2.011568 0.689328,0.967328 2.037465,2.641496 2.752916,3.418672 1.563678,1.698579 2.384898,2.251611 4.129918,2.781202 0.49798,0.151128 0.6754,0.174307 1.12343,0.146766 0.93356,-0.05739 1.34506,0.09965 1.34506,0.513321 0,0.259109 -1.1909,1.462733 -2.1104,2.132946 -0.69548,0.506933 -1.1735,0.771454 -2.15792,1.194118 -1.21728,0.522645 -1.65018,0.647065 -2.393721,0.687979 -0.348964,0.0192 -0.770472,0.05103 -0.936682,0.07072 l -0.302203,0.03581 0.241587,0.418877 c 0.595655,1.032794 1.529469,1.866584 3.520809,3.143702 1.33906,0.858786 1.72386,1.136447 3.53289,2.5492 1.46956,1.147656 1.53595,1.206985 2.20626,1.97164 0.45785,0.522301 0.53354,0.639979 0.53354,0.829561 0,0.238376 -0.16486,0.431968 -0.36785,0.431968 -0.0613,0 -0.39248,0.106763 -0.73594,0.237252 -0.71812,0.272826 -1.13515,0.300953 -2.0568,0.138716 -0.30787,-0.0542 -0.83667,-0.146742 -1.17511,-0.20566 -0.33843,-0.05892 -0.8308,-0.18074 -1.09415,-0.270718 -0.26335,-0.08998 -0.48959,-0.150929 -0.50276,-0.135447 -0.0132,0.01548 0.01,0.128266 0.0507,0.25063 0.12483,0.371851 1.46529,3.512888 2.22117,5.204779 0.95068,2.12788 1.28341,3.325277 1.5911,5.725817 0.1309,1.02131 0.1602,2.92069 0.0563,3.6469 -0.16636,1.16221 -0.58052,2.13255 -1.05834,2.4796 -0.23357,0.16965 -0.60799,0.19207 -0.83899,0.0503 -0.3491,-0.21434 -0.75321,-0.908 -1.13388,-1.94635 -0.13611,-0.37126 -0.26732,-0.69665 -0.29156,-0.72309 -0.0242,-0.0264 -0.0287,0.21991 -0.01,0.54743 0.0765,1.3333 -0.10772,4.47318 -0.36871,6.28482 -0.14947,1.03752 -0.63412,3.32792 -0.89034,4.20772 -0.30616,1.05125 -0.82852,2.23649 -1.33887,3.03794 l -0.44846,0.70427 0.40835,0.48585 c 0.52479,0.62438 1.7208,2.50534 2.27396,3.57625 0.50824,0.983981 1.20935,2.600251 1.53037,3.527961 0.12577,0.36348 0.24622,0.65326 0.26766,0.64397 0.0214,-0.009 0.2161,-0.29682 0.43259,-0.63895 0.65229,-1.0308 1.58536,-2.18917 3.10458,-3.854191 2.14636,-2.35234 6.39595,-7.40448 7.67835,-9.1284 2.37968,-3.19901 3.38069,-5.29569 3.78005,-7.91755 0.15098,-0.99121 0.20642,-3.29074 0.11194,-4.64336 -0.1194,-1.70948 -0.64889,-6.127475 -0.84273,-7.031572 -0.17049,-0.795231 -0.5616,-2.115977 -1.20978,-4.085401 -0.35585,-1.081193 -0.69116,-2.123603 -0.74515,-2.316467 -0.054,-0.192864 -0.12918,-0.378604 -0.1671,-0.412756 -0.0379,-0.03415 -0.28438,-0.16256 -0.54769,-0.285352 -0.5855,-0.27304 -0.97629,-0.565055 -1.6647,-1.243939 -1.04306,-1.028648 -1.52671,-1.768345 -1.95185,-2.985173 -0.37693,-1.07887 -0.43528,-1.464995 -0.49768,-3.293378 -0.0693,-2.031035 -0.0565,-2.195012 0.47,-5.986682 l 0.4065,-2.927802 0.28935,-0.611651 c 0.39131,-0.827195 0.80232,-1.833927 1.50058,-3.675547 0.65095,-1.716846 1.22879,-3.110129 1.36491,-3.291078 0.0554,-0.07365 0.17209,-0.118626 0.30775,-0.118626 0.30857,0 0.398,0.174557 0.39843,0.77768 7.5e-4,1.028456 0.30282,2.468871 0.78227,3.730115 l 0.10308,0.271146 0.0761,-0.610078 c 0.10663,-0.854383 0.26641,-1.430632 0.52705,-1.900834 0.30019,-0.541538 0.41836,-0.655616 0.65151,-0.628977 0.14166,0.01619 0.21667,0.07551 0.29463,0.233024 0.18328,0.370305 0.3762,1.112601 0.62376,2.400029 0.38265,1.989891 1.23284,4.658456 1.93058,6.059658 0.22274,0.447314 0.52619,1.436916 0.81561,2.659842 0.2346,0.991274 0.27363,1.249131 0.29601,1.955295 0.0395,1.245556 -0.15035,2.241898 -0.74859,3.929 -0.51038,1.43932 -0.94401,2.357117 -1.52452,3.226684 -0.13844,0.207373 -0.2517,0.413049 -0.2517,0.457057 0,0.04401 0.17971,0.636934 0.39935,1.317616 0.21965,0.680681 0.60923,1.888268 0.86575,2.683527 0.86389,2.678185 1.15456,4.177538 1.32882,6.854512 0.27706,4.255918 -0.4235,10.713338 -1.52635,14.069078 -1.00241,3.05011 -3.08656,6.91757 -5.42045,10.05847 -0.34788,0.46817 -1.03571,1.34047 -1.52852,1.93844 -0.4928,0.59798 -1.67302,2.093551 -2.6227,3.323501 -2.6,3.36726 -4.47389,5.50817 -5.69809,6.50997 -0.20041,0.16402 -0.31933,0.30743 -0.30651,0.36966 0.0115,0.0559 0.0368,0.2125 0.0562,0.34793 l 0.0352,0.24627 0.56103,0.0446 c 1.7939,0.14274 2.22221,0.357 3.80261,1.90224 1.51631,1.48257 2.17587,2.4237 2.74021,3.91002 0.53121,1.39904 0.81486,2.66059 0.90881,4.04187 0.0687,1.01032 0.0105,1.77068 -0.25008,3.26768 -0.62541,3.59255 -1.75636,7.2355 -3.52996,11.37054 l -0.64664,1.50761 0.23888,0.0721 c 0.13139,0.0397 0.47249,0.16062 0.75801,0.26881 0.28551,0.10819 0.73974,0.26141 1.0094,0.34048 1.68889,0.49524 2.47007,1.30922 2.82773,2.94646 0.15534,0.7111 0.21946,2.53535 0.11782,3.35224 -0.0986,0.79236 -0.22607,1.1483 -0.74387,2.07685 -1.02981,1.84672 -1.56367,2.3579 -3.45506,3.30827 -1.15883,0.58228 -1.55388,0.72073 -2.18922,0.76724 -0.77533,0.0567 -1.40107,-0.11119 -2.75012,-0.73808 -0.3129,-0.1454 -0.9644,-0.41715 -1.44777,-0.60388 -1.04061,-0.40201 -1.36497,-0.61506 -2.1678,-1.42392 -0.33162,-0.3341 -0.7597,-0.69923 -0.95128,-0.81139 -0.69842,-0.40886 -1.648712,-0.41057 -2.328436,-0.004 -0.317857,0.19004 -0.322321,0.19684 -0.304094,0.46272 0.03224,0.47028 -0.100237,1.81062 -0.245446,2.48334 -0.355095,1.64511 -1.198054,3.05894 -2.046013,3.43162 -0.305444,0.13425 -0.379488,0.20589 -0.630344,0.60995 -0.525857,0.84701 -0.851639,1.02067 -1.907719,1.01693 -0.807975,-0.003 -1.329137,-0.10549 -2.183205,-0.42997 -0.355429,-0.13504 -0.739549,-0.24553 -0.853594,-0.24553 -0.114045,0 -0.497375,0.13262 -0.851847,0.29471 -0.354466,0.16209 -0.742658,0.31285 -0.862639,0.33502 -0.526301,0.0973 -1.268071,-0.21604 -2.290927,-0.96764 -0.93129,-0.68431 -1.519908,-1.29078 -2.003526,-2.06432 -0.141287,-0.22599 -0.263424,-0.41892 -0.271413,-0.42872 -0.008,-0.01 -0.11585,0.0772 -0.239689,0.19333 -0.615849,0.57751 -1.370315,0.87846 -3.05149,1.21721 -2.4135,0.4863 -3.140186,0.34247 -4.219384,-0.83519 l -0.181785,-0.19837 -0.243145,0.57666 c -0.606772,1.43907 -1.693178,2.68478 -2.64386,3.03155 -0.580739,0.21182 -1.371721,0.18193 -2.815158,-0.10636 -0.66107,-0.13204 -1.35768,-0.28862 -1.54803,-0.34795 -0.48879,-0.15237 -1.34597,-0.63474 -1.60752,-0.90462 -0.18755,-0.19353 -0.22885,-0.21211 -0.27166,-0.12219 -0.15167,0.31849 -0.62579,0.98264 -0.95313,1.33515 -0.61053,0.65745 -1.93565,1.63832 -2.5896,1.91684 -0.58651,0.24978 -1.01971,0.20811 -1.84373,-0.17738 -0.80979,-0.37884 -0.87549,-0.3792 -1.85063,-0.0103 -0.91796,0.34731 -1.89982,0.49068 -2.59836,0.37943 z m 1.4476,-1.08147 c 0.19034,-0.0358 0.65133,-0.1784 1.02443,-0.31678 0.55887,-0.20729 0.67293,-0.27167 0.64758,-0.36555 -0.24417,-0.90408 -0.32622,-2.66292 -0.17419,-3.73389 0.10594,-0.74631 0.32793,-1.64351 0.45433,-1.83624 0.3022,-0.46079 0.89728,-0.13005 0.72487,0.40288 -0.14701,0.45439 -0.34101,1.49093 -0.39519,2.11143 -0.0701,0.80313 -0.007,1.76314 0.17178,2.59457 l 0.12131,0.56557 0.67366,0.3041 c 0.84114,0.3797 1.01557,0.38079 1.6508,0.0104 1.15441,-0.67322 2.18189,-1.64242 2.68211,-2.53001 0.21776,-0.38638 0.23814,-0.45784 0.2091,-0.73315 -0.1362,-1.29106 -0.14741,-1.55875 -0.0905,-2.1613 0.0331,-0.34985 0.0888,-0.77007 0.12387,-0.93382 0.0952,-0.44409 0.39502,-0.66531 0.70955,-0.52348 0.18721,0.0844 0.20949,0.26661 0.11261,0.92072 -0.13616,0.91927 -0.0918,2.2459 0.0864,2.58472 0.29542,0.56175 0.9722,1.06899 1.73362,1.29932 0.20466,0.0619 0.8925,0.21957 1.52852,0.35036 0.953316,0.19603 1.262779,0.23345 1.762052,0.21311 0.541541,-0.0221 0.638775,-0.046 0.918711,-0.22624 0.430358,-0.27706 1.157703,-1.09803 1.484261,-1.67532 0.149157,-0.26367 0.367976,-0.74153 0.486264,-1.0619 l 0.21507,-0.58251 -0.11257,-0.20336 c -0.227145,-0.41033 -0.630865,-1.40079 -0.771119,-1.89181 -0.108327,-0.37925 -0.144137,-0.64643 -0.144137,-1.07545 v -0.57083 l -0.321406,-0.60348 c -0.460224,-0.86412 -0.910772,-1.53659 -1.316174,-1.96445 -0.343065,-0.36208 -1.160647,-0.90987 -1.357989,-0.90987 -0.226928,0 -0.711573,-0.22362 -0.895123,-0.41301 -0.25319,-0.26126 -0.2993,-0.44682 -0.37742,-1.5189 -0.0353,-0.48467 -0.12624,-1.20151 -0.20206,-1.59298 -0.18387,-0.94937 -0.29616,-1.97775 -0.4034,-3.69436 -0.10716,-1.71539 -0.31528,-3.62302 -0.58179,-5.33267 l -0.19728,-1.26548 v -5.79297 -5.79297 l -0.38934,-0.39548 c -0.21413,-0.21751 -1.40162,-1.57228 -2.63886,-3.01059 -1.23723,-1.43831 -2.52205,-2.87577 -2.85515,-3.19437 -0.5852,-0.5597 -1.50758,-1.34712 -1.57801,-1.34712 -0.0934,0 0.91548,3.07908 1.48494,4.5322 0.2098,0.53539 0.38147,1.03107 0.38147,1.10153 0,0.0705 -0.0546,0.19224 -0.12127,0.27062 -0.10607,0.12466 -0.1621,0.13668 -0.44702,0.0959 -0.2872,-0.0411 -0.99272,-0.21873 -1.38528,-0.34874 l -0.13665,-0.0453 0.0356,10.53385 c 0.0196,5.79362 0.0516,11.74177 0.0712,13.21811 0.026,1.9581 0.0178,2.72349 -0.0304,2.82928 -0.10367,0.22765 -0.29059,0.23739 -0.78678,0.0409 -1.50443,-0.59556 -3.21647,0.0559 -4.67607,1.77918 -0.92708,1.0946 -1.49902,2.3569 -1.79097,3.95277 -0.15681,0.85712 -0.14343,2.88309 0.0237,3.59268 0.357,1.51558 0.95806,2.59249 1.60525,2.87607 0.40254,0.1764 0.62426,0.39084 0.95259,0.92135 0.16504,0.26666 0.35317,0.49161 0.44367,0.53049 0.20484,0.088 1.21494,0.0954 1.65681,0.0122 z m 35.296205,-2.46972 c 0.126573,-0.0622 0.276991,-0.23859 0.431793,-0.5065 0.292172,-0.50562 0.508207,-0.71315 0.986547,-0.94771 0.456306,-0.22376 0.802542,-0.69181 1.18541,-1.60249 0.448006,-1.0656 0.637294,-2.38444 0.542336,-3.77869 -0.144737,-2.12513 -0.848957,-3.88035 -2.113856,-5.2686 -1.42773,-1.56696 -3.059369,-2.11993 -4.50735,-1.52756 -0.253879,0.10386 -0.501366,0.17091 -0.549967,0.149 -0.273634,-0.12341 -0.260829,0.29905 -0.304072,-10.02964 -0.03263,-7.79405 -0.05488,-9.67556 -0.114385,-9.67556 -0.04062,0 -0.439821,0.10561 -0.887095,0.23467 -0.860084,0.24819 -2.112345,0.50944 -3.259738,0.68003 -0.727737,0.10821 -3.069959,0.37324 -3.298447,0.37324 h -0.133512 l -5.77e-4,3.30459 c 0,2.61905 -0.0186,3.44521 -0.08834,3.98245 -0.294774,2.27072 -0.387633,3.16376 -0.489871,4.71116 -0.130541,1.97567 -0.237053,2.97328 -0.405294,3.79603 -0.0648,0.3169 -0.15569,1.01849 -0.201972,1.55909 -0.100577,1.17473 -0.145313,1.35458 -0.403097,1.62058 -0.18074,0.1865 -0.66719,0.41294 -0.887377,0.41307 -0.17347,0 -0.829658,0.412 -1.183507,0.74289 -0.658426,0.61573 -1.218787,1.51329 -2.076385,3.32585 -0.85252,1.80182 -0.962908,2.30923 -0.701788,3.22584 0.307208,1.07839 0.892575,2.1084 1.573168,2.76815 0.819333,0.79424 1.257718,0.86729 3.082442,0.51365 1.369929,-0.2655 1.9351,-0.42701 2.396107,-0.68478 0.398454,-0.2228 0.90324,-0.72327 1.037686,-1.02882 0.124191,-0.28223 0.192034,-1.26665 0.13196,-1.91473 -0.132214,-1.4263 -0.130916,-1.35616 -0.02731,-1.47791 0.14623,-0.17185 0.44796,-0.1468 0.605496,0.0503 0.289899,0.36265 0.421525,1.84252 0.268344,3.01698 l -0.09236,0.70813 0.187639,0.37646 c 0.420775,0.84422 1.537679,1.93071 2.695137,2.62176 0.635461,0.37939 0.910934,0.38475 1.654141,0.0322 0.322016,-0.15277 0.612181,-0.27777 0.644804,-0.27777 0.062,0 0.178803,-0.42791 0.305295,-1.11847 0.09652,-0.5269 0.09652,-2.25229 1.1e-5,-2.77924 -0.04097,-0.2237 -0.138172,-0.6561 -0.216,-0.9609 -0.084,-0.32898 -0.126803,-0.62308 -0.105306,-0.72372 0.05509,-0.25796 0.21788,-0.39554 0.438616,-0.37069 0.164111,0.0185 0.211853,0.0672 0.320343,0.32675 0.491076,1.17501 0.634999,3.48178 0.31709,5.08238 l -0.100658,0.50679 0.577879,0.22599 c 0.317834,0.12429 0.75957,0.26716 0.981638,0.31747 0.553382,0.12539 1.536422,0.12998 1.78414,0.008 z m -42.188965,-0.96274 c 0.20621,-0.0542 0.58257,-0.22927 0.83636,-0.38897 0.5324,-0.33503 0.49686,-0.18812 0.38179,-1.57796 -0.212,-2.56062 0.52052,-5.16145 1.9647,-6.9758 l 0.34466,-0.433 -0.17496,-0.25683 c -0.2944,-0.43215 -0.73864,-1.35027 -1.27222,-2.62935 -0.86697,-2.07827 -1.09158,-2.83229 -1.95869,-6.57529 -0.71997,-3.10785 -1.01292,-4.50696 -1.30577,-6.23634 -0.31822,-1.87918 -0.39659,-2.59205 -0.54401,-4.94841 -0.13362,-2.13571 -0.20747,-2.84451 -0.4935,-4.73708 -0.28277,-1.87091 -0.3626,-2.53369 -0.42934,-3.56424 -0.0322,-0.49758 -0.0675,-0.91523 -0.0785,-0.92812 -0.0337,-0.0396 -1.71867,0.55512 -2.3095,0.81523 -1.76039,0.775 -2.92578,1.828 -3.49813,3.16076 -0.59907,1.39501 -0.92111,3.55802 -0.84178,5.65401 0.0426,1.12584 0.1556,2.49357 0.3281,3.97166 0.1773,1.51912 1.25263,9.18076 1.38071,9.83742 0.14491,0.74295 0.14491,1.14602 -3e-5,1.4799 -0.1294,0.29808 -0.2617,0.41945 -0.84884,0.7787 -0.48234,0.29514 -0.71814,0.54593 -1.02641,1.09174 -0.78137,1.38345 -0.88741,2.63671 -0.44136,5.21625 0.41765,2.41523 0.78198,3.55975 1.43495,4.50779 0.71095,1.03223 1.60968,2.20309 1.70816,2.22538 0.0558,0.0126 0.40585,-0.14759 0.7779,-0.35602 0.68124,-0.38166 1.26737,-0.57807 1.73156,-0.58024 0.23337,-0.001 0.24901,-0.0124 0.21808,-0.15716 -0.19017,-0.89049 -0.35044,-3.3047 -0.30015,-4.52128 0.0625,-1.51268 0.26817,-3.32255 0.43514,-3.82981 0.15478,-0.47024 0.46968,-0.59002 0.68915,-0.26212 0.15175,0.22672 0.15013,0.33079 -0.0241,1.53913 -0.26812,1.86001 -0.29056,4.20655 -0.0578,6.0438 0.1607,1.26849 0.12997,1.18598 0.49081,1.31778 0.56043,0.2047 0.8021,0.40867 1.20095,1.01361 0.13781,0.20904 0.29363,0.4023 0.34625,0.42948 0.12875,0.0665 0.87318,-0.003 1.3358,-0.12462 z m 56.704614,-3.47782 c 0.6697,-0.20341 1.43664,-0.60651 1.49456,-0.78552 0.027,-0.0835 0.0793,-0.3939 0.11605,-0.68971 0.16084,-1.29275 -0.31031,-2.66224 -1.1938,-3.46997 -0.62896,-0.57503 -0.69544,-0.72191 -0.4755,-1.05051 0.17097,-0.25543 0.37835,-0.23021 0.79486,0.0967 0.51474,0.40394 1.00778,1.07209 1.30359,1.76653 0.33147,0.77816 0.44851,1.40679 0.42487,2.28211 l -0.0184,0.68231 0.23072,-0.14679 c 0.58655,-0.37318 1.80103,-2.08563 2.16508,-3.05283 0.17975,-0.47756 0.24686,-1.20641 0.21002,-2.2811 -0.0395,-1.15165 -0.10565,-1.57669 -0.33422,-2.14667 -0.31615,-0.78838 -0.887,-1.21229 -2.1274,-1.57982 -0.26966,-0.0799 -0.76783,-0.24986 -1.10706,-0.37771 -0.33923,-0.12785 -0.83106,-0.26062 -1.09295,-0.29506 -0.77498,-0.1019 -0.79451,-0.24108 -0.21197,-1.51044 2.07596,-4.52352 3.49865,-8.98149 4.17124,-13.07049 0.30107,-1.83038 0.15116,-3.63584 -0.45508,-5.48063 -0.56613,-1.72276 -1.1627,-2.65445 -2.60695,-4.07141 -1.59579,-1.56563 -1.67193,-1.60577 -3.42103,-1.80338 l -0.36897,-0.0417 0.0358,0.39426 c 0.2541,2.79998 0.14529,5.25128 -0.36236,8.16369 -1.11347,6.38791 -1.27645,7.11817 -2.12384,9.51611 -0.36281,1.02668 -1.33494,3.2631 -1.91525,4.40611 -0.42858,0.84417 -2.53639,4.69529 -2.856779,5.21955 -0.422183,0.69086 -1.311262,2.23328 -1.489539,2.58415 l -0.210855,0.41498 0.225892,0.57461 c 0.227876,0.57966 0.473772,1.45641 0.566158,2.01864 0.05514,0.33559 0.0725,0.34217 0.460603,0.17471 0.389461,-0.16805 1.046702,-0.26196 1.497407,-0.21396 0.888563,0.0946 1.398183,0.38108 2.299503,1.29254 0.77534,0.78407 1.04196,0.95654 2.10293,1.36036 0.45956,0.17491 1.15814,0.46871 1.55239,0.65289 1.28022,0.59806 1.92538,0.70892 2.72032,0.46747 z m -33.517262,-3.4492 c 0,-0.10639 0.996678,-2.16155 1.370895,-2.8268 0.451434,-0.80252 1.381807,-1.92862 1.888023,-2.28522 0.332659,-0.23433 0.82799,-0.45614 1.336578,-0.59851 l 0.240658,-0.0674 0.03462,-0.45637 c 0.0768,-1.0122 0.156751,-1.68004 0.264232,-2.20692 0.159081,-0.77983 0.27075,-1.81831 0.373016,-3.469 0.100617,-1.62402 0.203201,-2.67308 0.406287,-4.15487 0.137428,-1.00271 0.142089,-1.14857 0.142089,-4.44809 v -3.41137 l -1.16802,0.0337 c -2.348466,0.0677 -4.771649,-0.26746 -6.561098,-0.9075 -1.048235,-0.37494 -2.337092,-1.06229 -3.143562,-1.67647 l -0.40376,-0.3075 -0.0148,5.26451 -0.0148,5.26451 0.17195,1.12086 c 0.16981,1.107 0.34532,2.43804 0.46063,3.49339 0.0326,0.29826 0.11124,1.32831 0.17477,2.289 0.12864,1.94521 0.17918,2.40606 0.377075,3.43895 0.07501,0.39147 0.167069,1.10831 0.204588,1.59298 0.03752,0.48467 0.09135,0.91549 0.119636,0.95737 0.02828,0.0419 0.208361,0.11243 0.400178,0.15678 0.191818,0.0443 0.468442,0.14093 0.614721,0.21461 0.825739,0.41597 1.813929,1.50751 2.470574,2.72896 0.156253,0.29064 0.25547,0.39177 0.25547,0.26038 z m -18.785402,-3.29484 c 0.58338,-0.51791 1.47777,-0.98348 2.23634,-1.16412 0.4881,-0.11623 1.67265,-0.11061 1.92202,0.009 0.10741,0.0516 0.10902,0.0119 0.0637,-1.56845 -0.0256,-0.89174 -0.0622,-6.71437 -0.0814,-12.93919 l -0.0348,-11.31783 -0.49858,-0.21616 c -1.535,-0.66554 -2.45885,-1.40606 -3.77179,-3.02332 -1.2572,-1.5486 -2.07205,-3.18568 -3.59767,-7.22793 -0.77427,-2.05151 -1.28521,-3.548061 -1.71238,-5.015631 l -0.28286,-0.97175 -0.13248,0.34184 c -0.18916,0.48811 -0.39312,1.49087 -0.46365,2.27954 -0.0333,0.372821 -0.0915,1.516721 -0.12935,2.541991 -0.065,1.76222 -0.0618,1.94379 0.0577,3.32153 0.0877,1.01084 0.14272,2.27785 0.17955,4.13497 0.0632,3.18514 0.0768,3.34648 0.54689,6.4736 0.23209,1.5439 0.30948,2.30384 0.43313,4.25314 0.24724,3.89792 0.4814,5.32745 1.82385,11.13437 0.86795,3.75441 1.11272,4.56721 2.0152,6.69192 0.4848,1.14137 1.12745,2.42535 1.21392,2.42535 0.016,0 0.11165,-0.0734 0.21264,-0.163 z m 41.659569,-2.85349 c 0.579943,-0.98027 2.365465,-4.20627 2.832615,-5.11787 1.23422,-2.40841 2.11625,-4.60458 2.72247,-6.77864 0.27656,-0.99182 0.45798,-1.8723 0.90087,-4.37223 0.85101,-4.80357 0.89509,-5.15556 0.93369,-7.4565 0.0315,-1.88006 -0.0336,-2.98203 -0.27297,-4.62075 -0.43113,-2.95107 -1.55085,-6.58591 -2.79842,-9.08433 -0.82009,-1.642331 -1.92264,-3.376831 -2.632979,-4.142131 l -0.143831,-0.15496 -0.584165,0.79893 c -0.321289,0.43941 -0.761318,1.08872 -0.977843,1.4429 -0.333639,0.54577 -0.420614,0.64711 -0.570305,0.66455 -0.148324,0.0173 -0.215014,-0.0307 -0.41615,-0.29921 -0.531083,-0.70906 -0.716639,-1.29682 -0.78578,-2.48898 -0.02327,-0.40116 -0.05282,-0.71701 -0.06568,-0.70191 -0.01286,0.0151 -0.113728,0.80193 -0.224162,1.7485 -0.110428,0.94656 -0.316582,2.66664 -0.458117,3.822401 -0.439078,3.58554 -0.450129,4.023 -0.195045,7.72179 l 0.125817,1.82438 -0.162917,0.16469 c -0.155263,0.15695 -0.187558,0.16256 -0.686997,0.11937 -0.288239,-0.0249 -1.261929,-0.18029 -2.163749,-0.34525 -0.901821,-0.16496 -1.661034,-0.29992 -1.68714,-0.29992 -0.02611,0 -0.04747,1.33989 -0.04747,2.97754 v 2.97755 l 0.55727,0.45661 c 0.691156,0.56631 0.76937,0.65767 0.76937,0.89872 0,0.29903 -0.334481,0.56239 -1.005362,0.79159 l -0.33857,0.11567 0.03927,9.02477 c 0.0216,4.96363 0.05421,9.15301 0.07247,9.30973 0.03254,0.27924 0.03684,0.284 0.214518,0.23725 0.09972,-0.0262 0.544695,-0.0457 0.988831,-0.0432 0.721571,0.004 0.859703,0.0246 1.297799,0.19336 1.147445,0.44195 2.261557,1.3374 3.086825,2.48098 l 0.331683,0.45962 0.471551,-0.8236 c 0.259353,-0.45297 0.652021,-1.12863 0.872595,-1.50145 z m -16.21213,-18.88463 c 2.79076,-0.2025 4.884814,-0.52544 6.777398,-1.0452 0.586894,-0.16118 1.271249,-0.33373 1.520785,-0.38346 l 0.453704,-0.0904 -0.655584,-0.51931 c -1.235373,-0.9786 -2.967566,-2.92849 -4.20558,-4.73413 -1.230286,-1.79437 -2.356233,-4.51597 -2.381987,-5.75768 -0.0085,-0.41098 0,-0.44261 0.150539,-0.54229 0.148352,-0.0984 0.174753,-0.0959 0.374919,0.0354 0.118429,0.0777 0.565731,0.37266 0.994005,0.6555 1.951204,1.28859 4.293162,2.27382 6.546678,2.75409 0.581651,0.12396 2.141317,0.41315 2.818348,0.52257 l 0.280422,0.0453 -0.03526,-0.33082 c -0.09248,-0.86757 -0.212666,-3.22259 -0.214068,-4.19464 -0.0016,-1.11967 0.08359,-2.1927 0.322962,-4.06719 0.07618,-0.59652 0.256941,-2.106461 0.401695,-3.355421 0.144759,-1.24897 0.289334,-2.4202 0.321283,-2.60273 0.03195,-0.18254 0.20211,-0.7011 0.378132,-1.15237 0.416398,-1.06751 0.387004,-1.00853 0.56024,-1.12414 0.137342,-0.0917 0.163979,-0.0883 0.309505,0.0394 0.269101,0.23611 0.484276,1.33551 0.591584,3.02261 0.03547,0.55768 0.09152,0.95931 0.1593,1.14162 l 0.104574,0.28126 0.314223,-0.46376 c 0.172827,-0.25507 0.640034,-0.90138 1.03824,-1.43624 1.712248,-2.29987 2.160388,-3.26853 2.742918,-5.92893 0.67265,-3.07195 0.83373,-4.7629 0.84036,-8.82164 0.005,-2.94907 0.0365,-3.5327 0.19982,-3.67624 0.14322,-0.12592 0.54291,-0.0752 0.64026,0.0813 0.0382,0.0615 0.16616,0.43717 0.28426,0.83488 0.68571,2.3093 1.19404,3.68638 1.46857,3.97836 0.10754,0.11437 0.12006,0.11468 0.2228,0.005 0.1799,-0.19133 0.41693,-0.89997 0.5093,-1.5226 0.11813,-0.7962 0.0714,-2.72087 -0.0931,-3.83944 -0.26605,-1.80853 -0.57554,-2.983206 -1.1073,-4.20276 -0.21134,-0.484673 -0.76488,-1.750584 -1.23011,-2.813136 -0.95201,-2.174329 -1.30388,-3.050197 -1.62037,-4.03329 -0.27247,-0.846373 -0.2894,-1.149331 -0.0749,-1.3399 l 0.15508,-0.137756 0.56592,0.274443 c 1.08681,0.527043 1.34332,0.599241 3.32464,0.935752 0.71158,0.120855 1.15202,0.106446 1.46816,-0.04803 l 0.18669,-0.09122 -0.33218,-0.314194 c -0.36625,-0.346421 -2.65414,-2.146762 -3.56226,-2.803151 -0.31724,-0.229299 -0.86232,-0.594883 -1.21128,-0.812408 -2.68396,-1.673029 -3.786397,-2.772012 -4.50768,-4.493555 -0.2851,-0.680469 -0.297103,-0.883939 -0.06254,-1.060265 0.0927,-0.06969 0.485262,-0.117378 1.398913,-0.169952 1.388297,-0.07988 1.572917,-0.120167 2.709867,-0.591241 0.95728,-0.396629 2.00672,-1.00235 2.5956,-1.498129 l 0.46144,-0.388489 -0.2884,-0.04313 c -0.44184,-0.06608 -1.60353,-0.447734 -2.14755,-0.705539 -1.20122,-0.569238 -2.04311,-1.31931 -3.796931,-3.382817 -1.856274,-2.184049 -3.094479,-3.93404 -3.994644,-5.645734 -0.396683,-0.754308 -0.4323,-0.95741 -0.20477,-1.167741 0.21266,-0.19659 0.340145,-0.178332 0.897304,0.128512 0.617315,0.339968 1.044798,0.475867 1.652065,0.5252 l 0.480676,0.03905 -0.271235,-0.636932 c -0.550382,-1.292466 -1.324845,-2.509593 -2.54818,-4.004681 -0.406286,-0.496537 -1.10182,-1.357859 -1.545633,-1.914049 -0.443819,-0.556191 -1.092453,-1.291545 -1.441417,-1.634121 -0.73989,-0.726345 -1.101572,-1.166784 -1.371122,-1.669667 -0.265692,-0.495695 -0.347643,-0.759602 -0.305808,-0.984765 0.03506,-0.1887 0.029,-0.193466 -0.528124,-0.415447 -0.309972,-0.123506 -0.784211,-0.34329 -1.053865,-0.48841 -0.347435,-0.18698 -0.944014,-0.394019 -2.047639,-0.710621 -2.82576,-0.810639 -3.934,-1.067343 -5.007194,-1.159822 -0.291549,-0.02512 -0.586922,-0.07038 -0.656392,-0.100581 -0.157299,-0.06837 -0.265276,-0.475537 -0.188798,-0.711931 0.06376,-0.197074 0.125367,-0.230497 0.978425,-0.530816 0.364826,-0.128436 0.806078,-0.312729 0.98056,-0.409538 l 0.31724,-0.176018 -0.37492,0.03276 c -0.206206,0.01802 -0.842128,0.138209 -1.413159,0.267095 -1.366369,0.308401 -1.708338,0.355915 -3.720359,0.516923 -1.889115,0.151173 -2.822479,0.272498 -3.666555,0.476604 -0.757208,0.1831 -0.839106,0.212619 -2.303323,0.830214 -1.954696,0.824471 -2.575706,1.22205 -2.888446,1.849215 -0.17938,0.35971 -0.33854,0.505594 -0.55163,0.505594 -0.0855,0 -1.24127,-0.485227 -2.56834,-1.078284 -1.32708,-0.593055 -2.52967,-1.115017 -2.67242,-1.159916 -0.14276,-0.0449 -0.62018,-0.149741 -1.06094,-0.232983 -0.89425,-0.16889 -1.11664,-0.150743 -1.58725,0.12952 l -0.28812,0.171585 0.81142,1.490201 c 0.87126,1.600099 0.90338,1.703752 0.60029,1.937136 -0.12943,0.09967 -0.22234,0.08452 -1.42833,-0.232868 -2.07756,-0.546772 -2.48138,-0.617501 -3.96867,-0.695094 -1.68949,-0.08814 -2.03089,-0.05994 -2.51817,0.208044 -0.20525,0.112876 -0.44985,0.269385 -0.54355,0.347798 -0.15618,0.130694 -0.66597,0.930989 -0.62055,0.974156 0.0108,0.01024 0.30417,0.06933 0.65199,0.131325 0.34783,0.06199 0.74265,0.17543 0.8774,0.252087 0.13474,0.07666 0.49257,0.414746 0.79517,0.751307 0.50461,0.561234 0.55019,0.632972 0.55019,0.865936 0,0.156108 -0.0389,0.2951 -0.10094,0.360622 -0.0555,0.05864 -0.69793,0.576254 -1.42758,1.15026 -3.44651,2.711313 -4.25149,3.439106 -5.71032,5.162781 -1.00878,1.191919 -1.30122,1.584125 -1.74928,2.346049 -0.2959,0.503179 -0.76835,1.296168 -1.04989,1.7622 -0.66349,1.098273 -1.01903,1.802896 -1.24844,2.474203 -0.10193,0.29826 -0.45778,1.701439 -0.79079,3.118174 -0.33301,1.416736 -0.68325,2.842792 -0.7783,3.169014 -0.0951,0.326222 -0.16429,0.593131 -0.15386,0.593131 0.0104,0 0.24887,-0.170474 0.52988,-0.378832 1.08557,-0.804919 1.6257,-1.059562 3.28538,-1.548901 1.37113,-0.404261 2.33724,-0.61072 3.21021,-0.686028 0.66972,-0.05777 0.85088,0.0265 0.84973,0.395319 -7.4e-4,0.239648 -0.0829,0.363384 -1.71576,2.58251 -1.03346,1.404562 -1.5782,2.2499 -2.08052,3.228611 -0.42727,0.832468 -2.29262,5.176253 -2.55064,5.939595 -0.30901,0.914196 -0.61714,2.488293 -1.0346,5.285279 -0.47975,3.214411 -0.58322,4.039127 -0.49906,3.977997 0.0331,-0.024 0.32092,-0.239216 0.63968,-0.478211 1.10633,-0.829512 3.18963,-1.913031 3.67821,-1.913031 0.17449,0 0.34864,0.212689 0.34506,0.421418 -0.001,0.08512 -0.0937,0.688584 -0.2049,1.341028 -0.46369,2.719726 -0.71444,5.560406 -0.8467,9.591776 -0.0807,2.45842 -0.0815,5.99212 -0.002,6.81254 0.18937,1.94489 0.89456,5.62988 1.2002,6.27174 0.0469,0.0985 0.13887,-0.0676 0.51139,-0.9236 0.95734,-2.19993 2.05931,-3.80315 3.27456,-4.76404 0.27603,-0.21825 0.33285,-0.21985 0.53545,-0.015 l 0.16059,0.16233 -0.10371,0.70194 c -0.21284,1.44044 -0.18454,2.44239 0.10053,3.55959 0.21508,0.84294 1.16867,3.9678 1.51717,4.971681 0.55285,1.59256 1.73783,4.67199 2.2143,5.75436 0.81758,1.85723 1.43157,2.84902 2.55035,4.11956 1.05878,1.20241 1.65515,1.65712 2.91271,2.22088 0.61997,0.27792 1.76915,0.71682 1.87686,0.71682 0.0558,0 -0.0114,-0.24971 -0.22335,-0.83038 -0.72761,-1.9929 -1.55106,-4.85904 -1.51677,-5.27931 0.0141,-0.1732 0.0584,-0.24973 0.18583,-0.32117 0.19485,-0.10924 0.34498,-0.0399 1.18821,0.54848 1.43732,1.00298 2.2418,1.81193 5.07584,5.10406 2.76587,3.21295 3.45956,3.90177 4.734573,4.70133 1.078328,0.67623 2.474571,1.22648 3.883874,1.53061 1.932128,0.41696 3.685171,0.49962 6.407186,0.30211 z M 72.519918,99.618319 c -1.853112,-0.24825 -3.074922,-0.65833 -4.614402,-1.54873 -1.5939,-0.9219 -2.89261,-2.03726 -4.29881,-3.69193 -2.66555,-3.13653 -4.76326,-7.44873 -6.05253,-12.44199 -0.42913,-1.662 -0.88128,-3.96334 -1.01582,-5.17023 -0.0219,-0.19657 -0.0612,-0.37291 -0.0873,-0.39185 -0.0261,-0.019 -0.3597,0.1495 -0.74135,0.37434 -0.65131,0.3837 -0.92614,0.47483 -1.0764,0.35692 -0.0738,-0.0579 -0.19609,-0.31541 -0.19609,-0.41297 0,-0.20901 0.36794,-0.53008 1.10422,-0.96355 0.43957,-0.25879 0.79922,-0.48266 0.79922,-0.4975 0,-0.0148 -0.037,-0.43406 -0.0823,-0.931608 -0.0453,-0.49755 -0.1,-1.2173 -0.12158,-1.599446 l -0.0393,-0.694811 h -0.16065 c -0.0884,0 -0.52033,0.04355 -0.95992,0.09679 -1.479,0.179101 -1.72256,0.161589 -1.78447,-0.128304 -0.12134,-0.568185 0.0634,-0.672189 1.50265,-0.846106 0.63347,-0.07655 1.19384,-0.139174 1.24527,-0.139174 0.083,0 0.0977,-0.204358 0.13066,-1.813286 0.0204,-0.997307 0.064,-2.161005 0.0967,-2.585995 0.0328,-0.424989 0.0526,-0.780021 0.0441,-0.788959 -0.008,-0.0089 -0.67731,-0.08286 -1.48627,-0.164273 -1.17514,-0.118263 -1.49983,-0.17225 -1.61504,-0.26853 -0.26684,-0.222996 -0.1985,-0.621389 0.13442,-0.783694 0.15375,-0.07495 0.38462,-0.06909 1.45178,0.03685 0.69793,0.06929 1.34727,0.14253 1.44298,0.16276 l 0.17403,0.03678 0.0993,-0.872868 c 0.36819,-3.235374 1.21528,-6.866618 2.28566,-9.79796 0.25751,-0.705207 0.4682,-1.302735 0.4682,-1.32784 0,-0.02511 -0.21414,-0.245613 -0.47586,-0.490017 -1.39897,-1.306391 -2.51657,-2.900832 -3.19427,-4.557137 -0.92388,-2.257982 -0.77755,-4.310859 0.40647,-5.702272 0.64237,-0.754876 1.43427,-1.20162 2.52612,-1.425073 0.7994,-0.163602 2.42812,-0.09826 3.36198,0.134878 1.30505,0.325808 2.33924,0.753943 3.62506,1.500714 l 0.85642,0.497389 0.40839,-0.307643 c 0.49597,-0.373608 1.58651,-1.023464 2.17592,-1.296635 3.635751,-1.685033 7.435691,-1.379768 10.914423,0.876803 l 0.618549,0.401235 0.448531,-0.26414 c 1.028826,-0.605869 2.309062,-1.120504 3.592095,-1.443964 0.526463,-0.132725 0.7753,-0.152714 1.90344,-0.152897 1.221581,-2.03e-4 1.330596,0.01026 1.856245,0.178016 1.270875,0.405595 2.181376,1.202344 2.660945,2.328492 0.241944,0.568157 0.343963,1.142886 0.342077,1.927072 -0.0024,0.987788 -0.189219,1.803832 -0.675121,2.948708 -0.496527,1.169916 -1.1245,2.151297 -2.110909,3.298867 l -0.796243,0.926342 0.421122,1.073356 c 0.705674,1.798621 1.226403,3.463347 1.701859,5.440694 0.129336,0.537909 0.241708,0.985711 0.249708,0.995114 0.008,0.0094 0.533321,-0.256552 1.167374,-0.591013 1.465567,-0.773084 1.598381,-0.826972 1.787987,-0.725445 0.270853,0.14503 0.262259,0.626355 -0.01525,0.853896 -0.08717,0.07147 -0.729513,0.428472 -1.427441,0.793333 -0.697928,0.364861 -1.279694,0.674358 -1.29281,0.687772 -0.01312,0.01341 0.04689,0.452214 0.133344,0.975111 0.181185,1.095813 0.41033,2.902629 0.468858,3.69697 l 0.04025,0.546184 0.542238,-0.08165 c 1.15308,-0.17363 1.454193,-0.186226 1.608648,-0.06729 0.293459,0.225973 0.131603,0.78905 -0.25378,0.882887 -0.163206,0.03974 -1.599858,0.239546 -1.729627,0.240555 -0.06572,5.42e-4 -0.07201,0.215982 -0.03711,1.27161 0.02311,0.699047 0.05437,1.286247 0.06948,1.304888 0.0151,0.01864 0.892793,0.04914 1.950419,0.06779 l 1.922964,0.03389 0.148745,0.164336 c 0.204072,0.225462 0.204563,0.569102 10e-4,0.725826 -0.133581,0.102863 -0.334988,0.109993 -2.10532,0.07454 l -1.957612,-0.03921 v 0.25844 c 0,1.372128 -0.252436,4.424482 -0.520435,6.292922 -1.021235,7.11986 -3.675864,13.54025 -7.281988,17.61196 -0.851195,0.9611 -1.43457,1.51282 -2.406933,2.27633 -1.809985,1.42123 -3.836751,2.31775 -5.872354,2.59759 -0.651361,0.0896 -1.934831,0.11999 -2.404724,0.057 z m 2.570942,-1.14642 c 3.586439,-0.58787 6.9333,-3.16669 9.621274,-7.41337 1.467586,-2.31862 2.843265,-5.5101 3.723716,-8.63875 0.939295,-3.33773 1.509594,-7.10679 1.628588,-10.763193 l 0.03671,-1.127921 -0.773097,-0.04035 c -0.425199,-0.0222 -1.967072,-0.05802 -3.426375,-0.07961 -2.42437,-0.03587 -2.665721,-0.04972 -2.797479,-0.160483 -0.216444,-0.181961 -0.272117,-0.429756 -0.14698,-0.654197 l 0.102866,-0.184498 3.520209,0.0498 3.520215,0.04979 -0.03055,-1.19568 c -0.0168,-0.657624 -0.04377,-1.211218 -0.05993,-1.230208 -0.01616,-0.01899 -2.063253,0.244059 -4.549104,0.584553 -2.485852,0.340494 -4.634281,0.621704 -4.774287,0.624911 -0.208814,0.0048 -0.278774,-0.02726 -0.38934,-0.178319 -0.160806,-0.219705 -0.170249,-0.381288 -0.03384,-0.579078 0.094,-0.1363 0.350769,-0.180673 3.734779,-0.645418 1.998611,-0.27448 4.159678,-0.568672 4.802371,-0.65376 l 1.168527,-0.154704 -0.03366,-0.34281 c -0.178825,-1.820988 -0.468603,-3.996551 -0.588964,-4.421779 -0.03967,-0.140152 -0.29279,-0.01493 -5.175233,2.560284 -2.823435,1.489204 -5.227993,2.725649 -5.343462,2.747657 -0.165936,0.03163 -0.235458,0.01003 -0.33166,-0.103026 -0.152059,-0.178702 -0.157042,-0.491178 -0.01032,-0.647224 0.06127,-0.06516 2.481666,-1.369125 5.37866,-2.897696 2.896994,-1.528572 5.271021,-2.784027 5.275613,-2.7899 0.01847,-0.02361 -0.496769,-2.105675 -0.700241,-2.829599 -0.440946,-1.568861 -0.975778,-3.101361 -1.564864,-4.483933 -0.170502,-0.400166 -0.310006,-0.802196 -0.310006,-0.8934 0,-0.12589 0.143813,-0.312958 0.597172,-0.77678 1.155566,-1.182236 2.016804,-2.431614 2.552622,-3.703021 0.681754,-1.61769 0.776972,-2.921399 0.291832,-3.995762 -0.376108,-0.832911 -1.0839,-1.407399 -2.143827,-1.740065 -0.627789,-0.197037 -2.147114,-0.213111 -2.99892,-0.03173 -1.300805,0.276992 -2.544368,0.769637 -3.77771,1.496559 -0.34833,0.205302 -0.675502,0.373277 -0.727045,0.373277 -0.05155,0 -0.390528,-0.200277 -0.753292,-0.44506 -0.880065,-0.593846 -1.511932,-0.929599 -2.413829,-1.282631 -3.529082,-1.381397 -7.208703,-0.737493 -10.475383,1.833106 -0.4001,0.314846 -0.76798,0.572449 -0.81751,0.572449 -0.0495,0 -0.16991,-0.07897 -0.26752,-0.175492 -0.13403,-0.132538 -0.17747,-0.231849 -0.17747,-0.405742 0,-0.212368 -0.0258,-0.24557 -0.33247,-0.427493 -0.60952,-0.361594 -1.55345,-0.811086 -2.2147,-1.05462 -2.21025,-0.814019 -4.19185,-0.842256 -5.55686,-0.07918 -1.86651,1.043425 -2.06287,3.525232 -0.50019,6.322031 0.63466,1.135887 1.43588,2.130066 2.61818,3.248709 0.37179,0.351778 0.70396,0.701019 0.73815,0.776093 0.0514,0.112832 -0.007,0.315453 -0.33915,1.168702 -1.23742,3.182831 -2.02456,6.321117 -2.51286,10.018599 -0.0816,0.617744 -0.14833,1.154196 -0.14833,1.192117 0,0.03792 0.43476,0.138137 0.96614,0.222706 1.30341,0.207437 2.74288,0.491667 4.16738,0.822867 1.35073,0.31405 3.61361,0.927894 3.76302,1.020782 0.16718,0.103937 0.28226,0.432516 0.21946,0.626619 -0.112,0.346202 -0.18821,0.343731 -1.63077,-0.05289 -1.69905,-0.467136 -3.36491,-0.85601 -4.94731,-1.154889 -1.3995,-0.264333 -2.60149,-0.462003 -2.62415,-0.431548 -0.0465,0.0625 -0.14449,2.530138 -0.14449,3.638695 0,1.235894 0.005,1.2962 0.11146,1.2962 0.0613,0 1.5312,-0.166716 3.26644,-0.370478 3.20671,-0.376552 3.30774,-0.3808 3.44187,-0.144719 0.0233,0.04102 0.0428,0.168995 0.0433,0.284385 0.002,0.442584 0.0828,0.42314 -3.53455,0.849379 -1.8148,0.213844 -3.30006,0.390927 -3.30056,0.393517 -0.0296,0.151123 0.18105,2.848779 0.22661,2.902319 0.0154,0.0181 0.30831,-0.10518 0.65097,-0.27388 1.50399,-0.740473 4.25262,-1.722588 5.18705,-1.853387 0.25248,-0.03534 0.31362,-0.02035 0.41818,0.102531 0.30371,0.356925 0.035,0.753438 -0.62737,0.925836 -1.60985,0.418985 -4.07628,1.368 -5.38067,2.07033 -0.18789,0.10116 -0.19048,0.0439 0.08,1.76749 1.01689,6.47969 3.42441,12.28813 6.68393,16.1258 2.31904,2.73037 4.91542,4.36442 7.690594,4.84012 0.749579,0.12849 2.374745,0.12852 3.158462,6e-5 z m -1.446182,-6.13319 c -0.781794,-0.10574 -1.967239,-0.72057 -2.785402,-1.44464 -2.69394,-2.38411 -4.59938,-7.44718 -5.19541,-13.80513 -0.17288,-1.84413 -0.17177,-1.78251 -0.0358,-1.98561 0.0956,-0.14283 0.17219,-0.18355 0.3452,-0.18355 0.33501,0 0.43822,0.197 0.48772,0.93089 0.14927,2.21318 0.56975,4.87827 1.07768,6.83065 0.83589,3.21296 2.26913,5.95166 3.851574,7.3598 0.354169,0.31515 1.494218,1.04665 1.542603,0.98979 0.01192,-0.014 -0.0423,-0.49523 -0.120497,-1.06936 -0.801972,-5.88831 -0.92692,-12.1835 -0.358746,-18.074532 l 0.07349,-0.761918 -0.205448,-0.03721 c -0.713188,-0.129152 -0.948557,-0.20576 -1.380388,-0.449289 -1.178778,-0.664768 -2.028718,-2.250803 -2.025288,-3.779303 0.003,-1.45868 0.72454,-2.9836 1.72939,-3.656284 0.24493,-0.163963 0.286159,-0.212517 0.1809,-0.213008 -0.23046,-0.0011 -0.57847,-0.282482 -0.75962,-0.614245 -0.0949,-0.173712 -0.22739,-0.571128 -0.29453,-0.883147 -0.22385,-1.0403 -0.0822,-2.483297 0.30978,-3.155569 0.46637,-0.799887 1.264752,-0.72395 1.673757,0.159197 0.219475,0.473904 0.329867,1.097827 0.330858,1.86997 0.0011,0.831925 -0.122438,1.483351 -0.374497,1.975279 l -0.195511,0.381567 0.213331,-0.05326 c 0.117331,-0.02929 0.501739,-0.05326 0.854241,-0.05326 h 0.64091 L 73.09369,62.413178 c -0.3941,-0.610459 -0.546843,-2.102771 -0.32212,-3.147138 0.215519,-1.001592 0.636604,-1.534211 1.168594,-1.47812 0.753642,0.07946 1.18738,1.157334 1.132077,2.813302 -0.01566,0.468821 -0.0657,0.938459 -0.121939,1.144324 -0.127628,0.467193 -0.425287,0.967992 -0.662498,1.114625 l -0.193268,0.11947 0.226103,0.135561 c 0.60636,0.363543 1.209411,1.136364 1.524986,1.954295 0.465402,1.206267 0.440112,2.452162 -0.07469,3.679414 -0.402715,0.960052 -1.247967,1.828182 -2.051368,2.10689 -0.282777,0.0981 -0.265266,0.03566 -0.388797,1.386404 -0.262127,2.866224 -0.34464,5.102574 -0.301379,8.168264 0.04357,3.08737 0.118021,4.37165 0.418524,7.21925 0.137098,1.29915 0.399439,3.31764 0.465808,3.58399 0.02915,0.11697 0.08182,0.12414 0.674401,0.0919 0.79658,-0.0434 1.175838,-0.16026 1.911743,-0.58933 0.738266,-0.43045 1.20989,-0.85363 1.894832,-1.70021 2.075771,-2.56562 3.442637,-6.96875 3.94124,-12.69609 0.115977,-1.33218 0.151473,-1.42179 0.549379,-1.38698 0.172965,0.0151 0.264457,0.066 0.341684,0.19013 0.100375,0.16127 0.101315,0.21863 0.01947,1.18626 -0.410272,4.85073 -1.423721,8.80508 -2.969267,11.58576 -1.820117,3.27467 -4.080109,4.78878 -6.6325,4.44355 z m 11.492678,-42.02816 c -0.07141,-0.03338 -0.173224,-0.167626 -0.226255,-0.298315 -0.136482,-0.336359 -0.05515,-0.49659 0.452367,-0.891247 0.514955,-0.400442 1.164172,-1.16258 1.418754,-1.665539 0.208934,-0.412761 0.341033,-1.016816 0.282401,-1.291347 -0.122408,-0.573159 -0.624922,-0.838475 -1.475459,-0.779003 -0.643767,0.04502 -0.979931,0.153822 -1.743291,0.564261 -0.455805,0.245073 -0.582216,0.287354 -0.70076,0.234386 -0.299815,-0.133961 -0.433413,-0.622195 -0.228378,-0.834609 0.121237,-0.125603 0.752926,-0.502271 1.078454,-0.643071 0.499711,-0.21614 1.062973,-0.360345 1.560405,-0.399492 2.143042,-0.168656 3.083058,1.764295 1.891973,3.890459 -0.294128,0.525033 -0.991035,1.329618 -1.517053,1.751438 -0.490816,0.393592 -0.609678,0.447854 -0.793158,0.362079 z m -24.9513,-0.355908 c -1.79725,-1.451598 -2.53456,-3.495358 -1.71901,-4.764953 0.71596,-1.114568 2.44241,-1.192292 4.1979,-0.188988 0.41891,0.239419 0.5423,0.343648 0.59974,0.506607 0.0633,0.179589 0.058,0.227875 -0.0423,0.387266 -0.0631,0.100153 -0.18263,0.221293 -0.26573,0.269201 -0.13481,0.07773 -0.18876,0.06475 -0.5011,-0.120543 -0.19251,-0.114206 -0.58939,-0.30482 -0.88197,-0.423586 -0.47535,-0.192961 -0.60254,-0.216199 -1.19527,-0.218389 -0.58072,-0.0021 -0.6937,0.01662 -0.90727,0.150733 -0.4747,0.298078 -0.56623,0.923657 -0.24674,1.686356 0.23189,0.553565 0.9208,1.413535 1.49124,1.861528 0.2428,0.190678 0.46052,0.381562 0.48382,0.424188 0.0883,0.161415 0.0416,0.459425 -0.0974,0.622872 -0.21768,0.255815 -0.4114,0.21514 -0.91585,-0.192292 z m 29.479883,62.613509 -0.01507,-2.75232 -0.667375,-0.22757 c -1.426564,-0.48643 -2.77841,-1.10923 -4.000043,-1.84284 l -0.651565,-0.39127 0.08744,0.30157 c 0.148186,0.5111 0.729202,1.79938 1.13306,2.51231 0.751651,1.3269 1.81152,2.73472 3.173039,4.21473 0.474447,0.51574 0.883542,0.93771 0.909106,0.93771 0.02556,0 0.0397,-1.23854 0.03141,-2.75232 z m 16.797591,-5.95431 c 1.03611,-0.98594 2.16886,-2.32937 4.54724,-5.39294 0.94068,-1.21168 2.13664,-2.721621 2.6577,-3.355431 2.26659,-2.75702 3.76527,-5.02505 5.2407,-7.931 1.16648,-2.29748 1.79637,-4.02996 2.23201,-6.13907 1.08391,-5.24755 1.24708,-11.299385 0.4083,-15.142719 -0.10615,-0.486401 -0.33291,-1.341923 -0.5039,-1.901161 -0.46955,-1.535709 -1.33896,-4.167108 -1.37711,-4.168041 -0.0185,-4.74e-4 -0.12755,0.159323 -0.24229,0.355056 -0.34395,0.586766 -0.62777,0.871243 -0.93691,0.939118 -0.14957,0.03284 -0.37362,0.0406 -0.49788,0.01725 l -0.22593,-0.04246 0.12328,0.364956 c 1.23313,3.650641 1.67968,5.201348 1.87003,6.494009 0.12961,0.880115 0.52863,4.113602 0.6448,5.225172 0.14866,1.42247 0.14903,4.89941 6.4e-4,5.86352 -0.22997,1.49394 -0.56913,2.73659 -1.0338,3.78784 -0.58959,1.33383 -1.84463,3.33138 -3.28455,5.22775 -1.07356,1.41388 -5.65159,6.8549 -7.16986,8.52143 -2.1409,2.349981 -3.04135,3.504301 -3.71004,4.756111 l -0.30692,0.57456 0.17226,0.63213 c 0.0947,0.34768 0.24035,0.92192 0.32357,1.27611 0.0832,0.35418 0.16358,0.68547 0.17856,0.73618 0.0301,0.10187 0.13871,0.0166 0.89011,-0.69837 z m 12.0445,-43.891556 c 0.069,-0.109617 0.30461,-0.515461 0.52366,-0.901876 0.21905,-0.386415 0.55346,-0.929684 0.74313,-1.207264 0.46706,-0.683532 0.76493,-1.238347 1.10334,-2.055062 0.61397,-1.481753 0.98016,-2.749863 1.10425,-3.824036 0.0948,-0.820605 0.0289,-1.373557 -0.34911,-2.929427 -0.25307,-1.041613 -0.36218,-1.359841 -0.89475,-2.609776 -0.85038,-1.995794 -1.4298,-3.949235 -1.87729,-6.329004 -0.0966,-0.513968 -0.14392,-0.665325 -0.17598,-0.563472 -0.0781,0.248093 -0.16025,0.904135 -0.25197,2.011855 -0.0987,1.192169 -0.11686,1.300704 -0.24661,1.474354 -0.0901,0.120543 -0.33767,0.157312 -0.44948,0.06675 -0.38138,-0.308899 -1.46836,-3.137734 -1.68366,-4.381655 -0.0452,-0.261199 -0.0536,-0.243869 -0.64193,1.321835 -0.50324,1.339302 -0.85884,2.196098 -1.63117,3.930188 -0.0713,0.160078 -0.24672,1.22976 -0.51693,3.152068 -0.3926,2.792956 -0.41018,2.966988 -0.4378,4.335398 -0.0497,2.45946 0.10144,3.539551 0.67703,4.839208 0.3085,0.696604 0.66356,1.183914 1.41369,1.940263 0.71548,0.721422 1.12537,0.999665 2.09246,1.420427 0.37094,0.161388 0.76528,0.340636 0.87631,0.398329 0.31255,0.162395 0.47963,0.138491 0.62281,-0.0891 z"
       id="path24" />
  </g>
</svg>
