<?xml version="1.0" encoding="UTF-8" standalone="no"?>
<svg
   xmlns:dc="http://purl.org/dc/elements/1.1/"
   xmlns:cc="http://creativecommons.org/ns#"
   xmlns:rdf="http://www.w3.org/1999/02/22-rdf-syntax-ns#"
   xmlns:svg="http://www.w3.org/2000/svg"
   xmlns="http://www.w3.org/2000/svg"
   xmlns:xlink="http://www.w3.org/1999/xlink"
   xmlns:sodipodi="http://sodipodi.sourceforge.net/DTD/sodipodi-0.dtd"
   xmlns:inkscape="http://www.inkscape.org/namespaces/inkscape"
   width="210mm"
   height="297mm"
   viewBox="0 0 210 297"
   version="1.1"
   id="svg8"
   inkscape:export-filename="K:\DRIVE JORGE\CURSOS\GS ANIMACIÓN 2022-\RPMI Realización de Proyectos Multimedia Interactivos\RPMI02_TE1\bitmap.png"
   inkscape:export-xdpi="96"
   inkscape:export-ydpi="96"
   inkscape:version="1.0.2-2 (e86c870879, 2021-01-15)"
   sodipodi:docname="dibujo.svg">
  <defs
     id="defs2">
    <clipPath
       clipPathUnits="userSpaceOnUse"
       id="clipPath67">
      <use
         x="0"
         y="0"
         xlink:href="#g63"
         id="use69" />
    </clipPath>
    <clipPath
       clipPathUnits="userSpaceOnUse"
       id="clipPath67-5">
      <g
         inkscape:label="Clip"
         id="use69-9">
        <path
           style="fill:#ffffff;stroke:#000000;stroke-width:0.264583px;stroke-linecap:butt;stroke-linejoin:miter;stroke-opacity:1"
           d="m 91.255655,120.44514 -12.307402,6.72556 0.825023,18.151 11.550647,-4.92184 z"
           id="path1123"
           sodipodi:nodetypes="ccccc" />
        <path
           style="fill:#ffffff;stroke:#000000;stroke-width:0.264583px;stroke-linecap:butt;stroke-linejoin:miter;stroke-opacity:1"
           d="m 74.39102,128.69263 -11.52217,5.54772 0.563277,18.02012 11.812393,-4.79096 z"
           id="path1125"
           sodipodi:nodetypes="ccccc" />
        <path
           style="fill:#ffffff;stroke:#000000;stroke-width:0.264583px;stroke-linecap:butt;stroke-linejoin:miter;stroke-opacity:1"
           d="m 57.81687,135.19277 -11.52217,5.54772 0.95589,17.49664 11.41978,-4.26748 z"
           id="path1127"
           sodipodi:nodetypes="ccccc" />
      </g>
    </clipPath>
    <clipPath
       clipPathUnits="userSpaceOnUse"
       id="clipPath67-1">
      <g
         inkscape:label="Clip"
         id="use69-5">
        <path
           style="fill:#ffffff;stroke:#000000;stroke-width:0.264583px;stroke-linecap:butt;stroke-linejoin:miter;stroke-opacity:1"
           d="m 91.255655,120.44514 -12.307402,6.72556 0.825023,18.151 11.550647,-4.92184 z"
           id="path1131"
           sodipodi:nodetypes="ccccc" />
        <path
           style="fill:#ffffff;stroke:#000000;stroke-width:0.264583px;stroke-linecap:butt;stroke-linejoin:miter;stroke-opacity:1"
           d="m 74.39102,128.69263 -11.52217,5.54772 0.563277,18.02012 11.812393,-4.79096 z"
           id="path1133"
           sodipodi:nodetypes="ccccc" />
        <path
           style="fill:#ffffff;stroke:#000000;stroke-width:0.264583px;stroke-linecap:butt;stroke-linejoin:miter;stroke-opacity:1"
           d="m 57.81687,135.19277 -11.52217,5.54772 0.95589,17.49664 11.41978,-4.26748 z"
           id="path1135"
           sodipodi:nodetypes="ccccc" />
      </g>
    </clipPath>
    <clipPath
       clipPathUnits="userSpaceOnUse"
       id="clipPath67-4">
      <g
         inkscape:label="Clip"
         id="use69-2">
        <path
           style="fill:#ffffff;stroke:#000000;stroke-width:0.264583px;stroke-linecap:butt;stroke-linejoin:miter;stroke-opacity:1"
           d="m 91.255655,120.44514 -12.307402,6.72556 0.825023,18.151 11.550647,-4.92184 z"
           id="path1139"
           sodipodi:nodetypes="ccccc" />
        <path
           style="fill:#ffffff;stroke:#000000;stroke-width:0.264583px;stroke-linecap:butt;stroke-linejoin:miter;stroke-opacity:1"
           d="m 74.39102,128.69263 -11.52217,5.54772 0.563277,18.02012 11.812393,-4.79096 z"
           id="path1141"
           sodipodi:nodetypes="ccccc" />
        <path
           style="fill:#ffffff;stroke:#000000;stroke-width:0.264583px;stroke-linecap:butt;stroke-linejoin:miter;stroke-opacity:1"
           d="m 57.81687,135.19277 -11.52217,5.54772 0.95589,17.49664 11.41978,-4.26748 z"
           id="path1143"
           sodipodi:nodetypes="ccccc" />
      </g>
    </clipPath>
  </defs>
  <sodipodi:namedview
     id="base"
     pagecolor="#ffffff"
     bordercolor="#666666"
     borderopacity="1.0"
     inkscape:pageopacity="0.0"
     inkscape:pageshadow="2"
     inkscape:zoom="1.414741"
     inkscape:cx="154.84346"
     inkscape:cy="651.09038"
     inkscape:document-units="mm"
     inkscape:current-layer="layer2"
     inkscape:document-rotation="0"
     showgrid="false"
     showguides="true"
     inkscape:guide-bbox="true"
     inkscape:snap-global="false"
     inkscape:window-width="1680"
     inkscape:window-height="997"
     inkscape:window-x="-8"
     inkscape:window-y="-8"
     inkscape:window-maximized="1">
    <sodipodi:guide
       position="289.76143,286.33132"
       orientation="0,-1"
       id="guide12" />
    <sodipodi:guide
       position="225.32258,41.37836"
       orientation="0,-1"
       id="guide16" />
    <sodipodi:guide
       position="72.622453,75.443878"
       orientation="0,-1"
       id="guide1147" />
    <sodipodi:guide
       position="91.452251,131.11422"
       orientation="1,0"
       id="guide1153" />
  </sodipodi:namedview>
  <metadata
     id="metadata5">
    <rdf:RDF>
      <cc:Work
         rdf:about="">
        <dc:format>image/svg+xml</dc:format>
        <dc:type
           rdf:resource="http://purl.org/dc/dcmitype/StillImage" />
        <dc:title></dc:title>
      </cc:Work>
    </rdf:RDF>
  </metadata>
  <g
     inkscape:label="Capa 1"
     inkscape:groupmode="layer"
     id="layer1">
    <path
       style="fill:none;stroke:#000000;stroke-width:0.264583px;stroke-linecap:butt;stroke-linejoin:miter;stroke-opacity:1"
       d="m 40.065475,137.58333 59.720239,-30.23809 27.970236,30.23809 0,103.56548 H 45.357143 Z"
       id="path10" />
    <path
       style="fill:#000000;stroke:none;stroke-width:2.85714"
       d="m 172.79446,902.14286 c -0.0345,-3.53572 -4.41541,-90.64286 -9.7354,-193.57143 -5.31999,-102.92857 -9.47035,-187.26204 -9.22303,-187.40771 0.24733,-0.14567 50.4948,-25.57711 111.66106,-56.51431 l 111.21137,-56.24947 23.07434,25.0195 c 12.69089,13.76073 36.22023,39.19217 52.28743,56.51432 l 29.21308,31.49481 0.0726,193.57143 0.0726,193.57143 H 327.14286 172.85714 Z"
       id="path14"
       transform="scale(0.26458333)" />
    <g
       id="g65"
       clip-path="url(#clipPath67)">
      <g
         inkscape:label="Clip"
         id="g63">
        <path
           style="fill:#ffffff;stroke:#000000;stroke-width:0.264583px;stroke-linecap:butt;stroke-linejoin:miter;stroke-opacity:1"
           d="m 91.255655,120.44514 -12.494421,5.97748 1.012042,18.89908 11.737666,-3.61271 z"
           id="path18"
           sodipodi:nodetypes="ccccc" />
        <path
           style="fill:#ffffff;stroke:#000000;stroke-width:0.264583px;stroke-linecap:butt;stroke-linejoin:miter;stroke-opacity:1"
           d="m 74.578039,127.3835 -12.270246,6.48281 0.937315,17.8331 11.999412,-4.2299 z"
           id="path18-3"
           sodipodi:nodetypes="ccccc" />
        <path
           style="fill:#ffffff;stroke:#000000;stroke-width:0.264583px;stroke-linecap:butt;stroke-linejoin:miter;stroke-opacity:1"
           d="m 57.81687,135.19277 -11.52217,5.54772 0.768871,16.56155 11.41978,-4.26748 z"
           id="path18-3-6"
           sodipodi:nodetypes="ccccc" />
      </g>
    </g>
    <path
       style="fill:#ffffff;fill-opacity:1;stroke:#000000;stroke-width:0.274129px;stroke-linecap:butt;stroke-linejoin:miter;stroke-opacity:1"
       d="m 101.29425,117.93411 7.85226,8.04607 -0.76573,18.26161 -7.61002,-5.93741 v -20.65125 z"
       id="path988"
       sodipodi:nodetypes="cccccc" />
    <path
       style="fill:#ffffff;stroke:#000000;stroke-width:0.228748px;stroke-linecap:butt;stroke-linejoin:miter;stroke-opacity:1"
       d="m 112.22199,129.46432 5.75833,5.83622 -0.37312,16.5963 -6.28182,-5.07688 0.37312,-17.55129 z"
       id="path988-2"
       sodipodi:nodetypes="cccccc" />
    <path
       style="fill:#ffffff;stroke:#000000;stroke-width:0.228748px;stroke-linecap:butt;stroke-linejoin:miter;stroke-opacity:1"
       d="m 120.33601,137.85187 4.44962,4.78925 c 0.43624,4.07766 0.2325,9.64597 0.33692,15.15394 l -5.21535,-3.84612 -0.0947,-16.29272 z"
       id="path988-2-6"
       sodipodi:nodetypes="cccccc" />
    <path
       style="fill:#ffffff;fill-opacity:1;stroke:#000000;stroke-width:0.274129px;stroke-linecap:butt;stroke-linejoin:miter;stroke-opacity:1"
       d="m 100.29362,149.23441 7.6657,5.62077 -1.32542,18.26161 -7.050328,-3.32555 0.559688,-12.81567 z"
       id="path988-1"
       sodipodi:nodetypes="cccccc" />
    <path
       style="fill:#ffffff;stroke:#000000;stroke-width:0.228748px;stroke-linecap:butt;stroke-linejoin:miter;stroke-opacity:1"
       d="m 111.78104,157.77963 5.19865,3.78405 -0.18656,16.96942 c -2.09337,-1.69248 -2.85697,-2.39792 -6.46838,-3.58439 l -0.18656,-18.4841 z"
       id="path988-2-4"
       sodipodi:nodetypes="cccccc" />
    <path
       style="fill:#ffffff;stroke:#000000;stroke-width:0.228748px;stroke-linecap:butt;stroke-linejoin:miter;stroke-opacity:1"
       d="m 119.07276,162.62823 c 1.4832,1.59642 4.12085,2.50892 6.15666,4.65794 0.43624,4.07766 -0.29274,9.77728 -0.18832,15.28525 l -6.39715,-3.84612 0.002,-13.23094 z"
       id="path988-2-6-6"
       sodipodi:nodetypes="cccccc" />
    <path
       style="fill:#ffffff;stroke:#000000;stroke-width:0.264583px;stroke-linecap:butt;stroke-linejoin:miter;stroke-opacity:1"
       d="m 100.32173,177.00744 v 17.59569 l 6.17162,1.57574 0.65655,-16.4139 z"
       id="path1107" />
    <path
       style="fill:#ffffff;stroke:#000000;stroke-width:0.264583px;stroke-linecap:butt;stroke-linejoin:miter;stroke-opacity:1"
       d="m 110.43268,181.2094 -0.39393,15.88865 5.64638,1.31311 1.05049,-14.70685 z"
       id="path1109" />
    <path
       style="fill:#ffffff;stroke:#000000;stroke-width:0.264583px;stroke-linecap:butt;stroke-linejoin:miter;stroke-opacity:1"
       d="m 119.49315,185.01742 -0.39393,14.57554 4.98982,1.1818 0.52525,-13.91898 z"
       id="path1111" />
    <path
       style="display:inline;fill:#ffffff;stroke:#000000;stroke-width:0.264583px;stroke-linecap:butt;stroke-linejoin:miter;stroke-opacity:1"
       d="m 100.32173,200.77476 -0.13132,19.30274 6.95949,0.39393 0.13132,-18.64618 z"
       id="path1113" />
    <path
       style="display:inline;fill:#ffffff;stroke:#000000;stroke-width:0.264583px;stroke-linecap:butt;stroke-linejoin:miter;stroke-opacity:1"
       d="m 110.56399,202.74443 -0.13131,17.46438 6.82818,0.39393 v -16.67651 z"
       id="path1115" />
    <path
       style="display:inline;fill:#ffffff;stroke:#000000;stroke-width:0.264583px;stroke-linecap:butt;stroke-linejoin:miter;stroke-opacity:1"
       d="m 119.49315,204.45147 0.13132,16.15127 4.72719,-0.13131 v -15.10078 z"
       id="path1117" />
    <path
       style="fill:#ffffff;stroke:#000000;stroke-width:0.264583px;stroke-linecap:butt;stroke-linejoin:miter;stroke-opacity:1"
       d="m 91.452252,152.2334 v 18.70189 l -10.47306,2.61827 -0.187019,-18.14084 z"
       id="path1155" />
    <path
       style="fill:#ffffff;stroke:#000000;stroke-width:0.264583px;stroke-linecap:butt;stroke-linejoin:miter;stroke-opacity:1"
       d="m 75.555643,157.28291 0.187021,17.39276 -11.595174,2.80529 v -16.64469 z"
       id="path1157" />
    <path
       style="fill:none;stroke:#000000;stroke-width:0.264583px;stroke-linecap:butt;stroke-linejoin:miter;stroke-opacity:1"
       d="m 58.91096,162.51944 v 16.27065 l -10.847096,2.43125 v -15.52258 l 10.042853,-2.69097 z"
       id="path1159" />
    <path
       style="fill:#ffffff;stroke:#000000;stroke-width:0.264583px;stroke-linecap:butt;stroke-linejoin:miter;stroke-opacity:1"
       d="m 47.689825,166.0728 10.660078,-3.36634 0.748075,15.89661 -10.847096,2.24423 z"
       id="path1163" />
    <path
       style="fill:#ffffff;stroke:#000000;stroke-width:0.264583px;stroke-linecap:butt;stroke-linejoin:miter;stroke-opacity:1"
       d="m 59.659035,185.52277 0.748078,13.8394 -10.847099,1.12211 -0.748075,-12.9043 z"
       id="path1165" />
    <path
       style="fill:#ffffff;stroke:#000000;stroke-width:0.264583px;stroke-linecap:butt;stroke-linejoin:miter;stroke-opacity:1"
       d="m 65.64364,184.40066 0.374039,14.21343 11.595174,-0.93509 -0.935096,-15.70959 z"
       id="path1167" />
    <path
       style="fill:#ffffff;stroke:#000000;stroke-width:0.264583px;stroke-linecap:butt;stroke-linejoin:miter;stroke-opacity:1"
       d="m 81.540248,181.78239 0.187021,14.96151 10.099022,-0.93509 -0.374039,-16.64468 z"
       id="path1169" />
    <path
       style="fill:#ffffff;stroke:#000000;stroke-width:0.264583px;stroke-linecap:butt;stroke-linejoin:miter;stroke-opacity:1"
       d="m 49.747032,204.97274 0.561057,15.33555 11.034117,-0.18702 -0.935093,-15.89661 z"
       id="path1171" />
    <path
       style="fill:#ffffff;stroke:#000000;stroke-width:0.264583px;stroke-linecap:butt;stroke-linejoin:miter;stroke-opacity:1"
       d="m 66.204697,203.85062 0.374039,15.89661 10.660078,0.18702 v -17.20574 z"
       id="path1173" />
    <path
       style="fill:#ffffff;stroke:#000000;stroke-width:0.264583px;stroke-linecap:butt;stroke-linejoin:miter;stroke-opacity:1"
       d="m 81.35323,201.98043 -0.187018,17.57978 h 9.912004 l 0.187018,-18.70189 z"
       id="path1175" />
  </g>
  <g
     inkscape:groupmode="layer"
     id="layer2"
     inkscape:label="Capa 2"
     style="display:none"
     sodipodi:insensitive="true">
    <path
       style="fill:#ff0000;stroke:#f40000;stroke-width:0.264583px;stroke-linecap:butt;stroke-linejoin:miter;stroke-opacity:1"
       d="m 205.40415,222.00812 -112.869676,27.98421 -1.119367,0.18656"
       id="path1051"
       sodipodi:nodetypes="ccc" />
    <path
       style="fill:#ff0000;stroke:#f70000;stroke-width:0.264583px;stroke-linecap:butt;stroke-linejoin:miter;stroke-opacity:1"
       d="M 205.96383,221.82155 100.77076,138.30438 v 0"
       id="path1053"
       sodipodi:nodetypes="ccc" />
    <path
       style="fill:none;stroke:#fb0000;stroke-width:0.264583px;stroke-linecap:butt;stroke-linejoin:miter;stroke-opacity:1"
       d="m 99.43725,148.87603 v 0 L 205.96383,221.82155 97.011951,168.09186 v 0 l -4.743033,-0.69594"
       id="path1055"
       sodipodi:nodetypes="cccccc" />
    <path
       style="fill:none;stroke:#f80000;stroke-width:0.264583px;stroke-linecap:butt;stroke-linejoin:miter;stroke-opacity:1"
       d="M 205.96383,221.82155 94.954224,220.09913"
       id="path1057"
       sodipodi:nodetypes="cc" />
    <path
       style="fill:none;stroke:#f80000;stroke-width:0.264583px;stroke-linecap:butt;stroke-linejoin:miter;stroke-opacity:1"
       d="m 205.96383,221.82155 -110.08561,-22.09602 -2.100979,-5.64638 -2.605413,0.87756"
       id="path1059"
       sodipodi:nodetypes="cccc" />
    <path
       style="fill:none;stroke:#f20000;stroke-width:0.264583px;stroke-linecap:butt;stroke-linejoin:miter;stroke-opacity:1"
       d="m 100.77076,138.30438 105.19307,83.51717 v 0"
       id="path1077" />
    <path
       style="fill:none;stroke:#f70000;stroke-width:0.264583px;stroke-linecap:butt;stroke-linejoin:miter;stroke-opacity:1"
       d="m 99.785714,107.34524 106.178116,114.47631 -0.55968,0.18657"
       id="path1075" />
    <path
       style="fill:none;stroke:#0000f9;stroke-width:0.264583px;stroke-linecap:butt;stroke-linejoin:miter;stroke-opacity:1"
       d="m 99.827055,106.97403 -227.089265,114.58209 246.6858,-114.35155 11.29683,19.36599 -257.06044,94.52447 278.04026,-88.06913 -0.4611,24.43803 -278.04025,63.86164 280.11518,-53.9481 c -0.1537,10.60518 3.13241,-0.64562 -1.61383,21.44091 l -278.50135,32.27665 278.7319,-25.36023 0.69164,23.97694 -279.42354,1.38329 v 0"
       id="path1149"
       sodipodi:nodetypes="ccccccccccccccc" />
    <path
       style="fill:none;stroke:#0000f3;stroke-width:0.264583px;stroke-linecap:butt;stroke-linejoin:miter;stroke-opacity:1"
       d="m 46.193673,137.27188 5.797587,114.08155 -0.374039,0.93509"
       id="path1161" />
  </g>
</svg>
