<?xml version="1.0" encoding="UTF-8" standalone="no"?>
<svg
   xmlns:dc="http://purl.org/dc/elements/1.1/"
   xmlns:cc="http://creativecommons.org/ns#"
   xmlns:rdf="http://www.w3.org/1999/02/22-rdf-syntax-ns#"
   xmlns:svg="http://www.w3.org/2000/svg"
   xmlns="http://www.w3.org/2000/svg"
   xmlns:sodipodi="http://sodipodi.sourceforge.net/DTD/sodipodi-0.dtd"
   xmlns:inkscape="http://www.inkscape.org/namespaces/inkscape"
   version="1.1"
   id="svg910"
   width="2686.9841"
   height="2130.7937"
   viewBox="0 0 2686.9841 2130.7937"
   sodipodi:docname="está_roto.svg"
   inkscape:version="1.0.2-2 (e86c870879, 2021-01-15)">
  <metadata
     id="metadata916">
    <rdf:RDF>
      <cc:Work
         rdf:about="">
        <dc:format>image/svg+xml</dc:format>
        <dc:type
           rdf:resource="http://purl.org/dc/dcmitype/StillImage" />
        <dc:title></dc:title>
      </cc:Work>
    </rdf:RDF>
  </metadata>
  <defs
     id="defs914" />
  <sodipodi:namedview
     pagecolor="#ffffff"
     bordercolor="#666666"
     borderopacity="1"
     objecttolerance="10"
     gridtolerance="10"
     guidetolerance="10"
     inkscape:pageopacity="0"
     inkscape:pageshadow="2"
     inkscape:window-width="1680"
     inkscape:window-height="997"
     id="namedview912"
     showgrid="false"
     inkscape:zoom="0.24637287"
     inkscape:cx="1343.4921"
     inkscape:cy="1065.3969"
     inkscape:window-x="-8"
     inkscape:window-y="-8"
     inkscape:window-maximized="1"
     inkscape:current-layer="g918" />
  <g
     inkscape:groupmode="layer"
     inkscape:label="Image"
     id="g918">
    <path
       style="fill:#000000;stroke-width:2.53968"
       d="m 1221.9287,1755.1097 c -65.2669,-7.7678 -118.1645,-19.793 -168.5845,-38.3241 -35.6849,-13.1155 -95.55813,-42.268 -126.65363,-61.6681 -19.8124,-12.3608 -20.9523,-13.5594 -20.9523,-22.0298 v -8.9579 l 6.9841,4.5772 c 104.13623,68.2477 211.08953,104.7133 330.67183,112.7421 107.3568,7.208 223.8853,-16.3387 320.1714,-64.6965 l 22.8075,-11.4546 v 8.5337 c 0,8.4149 -0.4289,8.7368 -30.7798,23.0952 -57.3745,27.1427 -129.773,47.8971 -195.1761,55.9508 -28.6002,3.5218 -115.8378,4.9278 -138.4885,2.232 z m 369.5238,-84.4953 c 0,-6.5292 1.728,-8.9918 9.5238,-13.5727 20.3308,-11.9465 61.0002,-39.6038 74.8848,-50.9255 8.012,-6.5331 15.1548,-11.8784 15.873,-11.8784 0.7181,0 1.4562,2.5715 1.64,5.7143 0.2421,4.1351 0.7684,3.5021 1.9048,-2.2904 1.138,-5.8005 8.0395,-14.0836 25.0625,-30.0799 l 23.4921,-22.0752 v 10.2256 c 0,9.6079 -1.3553,11.4756 -22.4325,30.9134 -27.2364,25.118 -62.4194,51.6788 -96.8375,73.1057 -33.3277,20.748 -33.111,20.6769 -33.111,10.8631 z m -717.05503,-51.6147 c -20.1796,-15.2106 -24.43687,-19.6012 -24.48002,-25.2469 -0.0287,-3.7588 0.94248,-7.449 2.15825,-8.2004 1.21575,-0.7514 11.50146,6.1013 22.85717,15.2281 14.1253,11.3529 20.703,18.3549 20.8252,22.1686 0.1719,5.3706 0.2582,5.3887 2.3611,0.4951 1.7509,-4.0746 2.218,-3.1954 2.3612,4.4444 0.098,5.2381 -0.2342,9.5238 -0.7383,9.5238 -0.5043,0 -11.9093,-8.2857 -25.3446,-18.4127 z m -44.84101,-36.6649 c -11.52447,-10.3615 -12.71123,-12.2891 -9.16355,-14.8832 2.24152,-1.639 4.0755,-4.3624 4.0755,-6.0519 0,-1.6895 5.10537,1.2936 11.3453,6.6292 9.04718,7.736 11.36213,11.3729 11.42857,17.955 0.0457,4.5396 -0.93598,8.2539 -2.18174,8.2539 -1.24574,0 -8.22258,-5.3563 -15.50408,-11.903 z m -22.86583,-28.7319 c 0,-11.6632 1.96661,-12.5296 9.71604,-4.2808 7.03294,7.4863 6.98159,10.9163 -0.19225,12.8388 -9.14867,2.4518 -9.52379,2.1147 -9.52379,-8.558 z m 939.68247,1.2699 c 0,-5.1898 1.2404,-6.3493 6.7919,-6.3493 h 6.792 l -5.9648,6.3493 c -3.2806,3.492 -6.337,6.3492 -6.7919,6.3492 -0.4549,0 -0.8272,-2.8572 -0.8272,-6.3492 z m -959.5906,-13.7751 c -8.59333,-10.1911 -10.56806,-14.4542 -10.56806,-22.8143 v -10.2813 l 10.37829,11.2591 c 5.70804,6.1925 9.59797,12.5217 8.64427,14.0648 -0.9537,1.5431 -0.32724,6.2019 1.39212,10.3529 4.91848,11.8742 1.61133,11.0073 -9.84662,-2.5812 z m 228.6419,-15.4313 c 1.3339,-3.4921 2.6288,-18.0062 2.8775,-32.2537 0.4451,-25.4962 0.5423,-25.8822 6.1665,-24.4866 5.8496,1.4515 7.9555,-2.5272 2.9688,-5.6091 -1.51,-0.9332 -2.1124,-4.2192 -1.3386,-7.3021 0.7737,-3.0828 -0.2227,-7.9316 -2.2143,-10.775 -2.0756,-2.9634 -4.3764,-15.1758 -5.3909,-28.6152 l -1.7699,-23.4453 -15.4926,0.8297 c -14.18673,0.7598 -15.45253,0.403 -15.01573,-4.2327 1.4146,-15.0139 1.3083,-20.7434 -0.4625,-24.9156 -2.656,-6.2581 1.0852,-9.245 9.5093,-7.5919 4.6618,0.9149 6.98423,2.9611 6.98423,6.1539 0,6.3786 6.6713,6.1421 8.3549,-0.2961 1.235,-4.7225 3.4641,-5.0793 31.7341,-5.0793 h 30.4059 l 3.1559,7.619 c 3.0335,7.3236 5.1665,8.7042 12.0635,7.8086 1.746,-0.2268 3.1746,1.9236 3.1746,4.7785 0,2.8549 -1.4286,5.2082 -3.1746,5.2296 -2.1229,0.026 -1.9126,0.8674 0.6349,2.5396 3.3862,2.223 3.3862,2.8045 0,5.2339 -2.8685,2.0579 -3.0253,3.0512 -0.6349,4.0211 1.746,0.7085 3.1712,3.7644 3.167,6.7908 -0.01,4.9755 -1.3449,5.5027 -13.9687,5.5027 -13.4448,0 -13.9613,-0.2515 -13.9608,-6.798 4e-4,-4.4526 -1.5312,-7.0928 -4.4393,-7.6529 -2.4478,-0.4714 -4.442,-3.1189 -4.4445,-5.9005 0,-2.7897 -1.7077,-5.0455 -3.8141,-5.0455 -2.2113,0 -3.4986,1.8551 -3.0684,4.422 0.6264,3.7374 -0.2519,4.0444 -5.6734,1.9831 l -6.4145,-2.4388 7.5757,10.458 c 5.9163,8.1673 6.9371,11.2276 4.66,13.9712 -1.9213,2.315 -2.738,14.4591 -2.3946,35.6073 0.4423,27.2402 -0.015,31.6483 -3.0298,29.147 -4.445,-3.689 -6.8931,-1.3909 -6.8931,6.471 0,3.8112 1.0525,5.4254 2.8237,4.3307 4.1633,-2.573 7.2438,3.8811 7.3568,15.4136 0.055,5.5873 1.0754,14.3591 2.2683,19.4928 l 2.1688,9.334 -18.4403,0.8247 -18.4403,0.8247 z m 12.2186,0 c 0,-1.3968 -1.2103,-2.5397 -2.6896,-2.5397 -1.4792,0 -1.9832,1.1429 -1.1199,2.5397 0.8633,1.3968 2.0736,2.5397 2.6895,2.5397 0.616,0 1.12,-1.1429 1.12,-2.5397 z m 15.2381,-31.8959 c 0,-2.1777 -1.1615,-3.2416 -2.5811,-2.3642 -1.4196,0.8773 -1.9236,2.6591 -1.12,3.9594 2.1771,3.5226 3.7011,2.8658 3.7011,-1.5952 z m 0,-123.0247 c 0,-1.3969 -1.1429,-2.5397 -2.5397,-2.5397 -1.3968,0 -2.5397,1.1428 -2.5397,2.5397 0,1.3968 1.1429,2.5396 2.5397,2.5396 1.3968,0 2.5397,-1.1428 2.5397,-2.5396 z m 460.93,155.5555 c 1.6211,-4.0231 6.0852,-32.8691 6.2885,-40.6349 0.057,-2.1818 4.9027,-3.1746 15.4941,-3.1746 h 15.411 l -5.0285,7.0619 c -4.3273,6.0772 -4.7005,8.8216 -2.6763,19.6825 1.2937,6.9414 2.9843,14.6207 3.7569,17.0651 1.2485,3.9504 -0.621,4.4445 -16.816,4.4445 -16.3421,0 -18.036,-0.4582 -16.4297,-4.4445 z m 24.8334,-13.9682 c 1.6259,-4.6612 -0.7306,-9.5238 -4.6154,-9.5238 -4.4618,0 -7.0315,4.4 -5.2623,9.0105 1.7342,4.5194 8.3602,4.8637 9.8777,0.5133 z m 56.8407,14.6827 c -0.7872,-2.0515 -0.7721,-9.2953 0.034,-16.0974 1.3456,-11.3618 1.9562,-12.2735 7.5088,-11.2121 7.0918,1.3557 7.6802,-1.0384 1.8409,-7.4907 -3.9962,-4.4157 -3.7639,-4.6444 4.7175,-4.6444 h 8.9207 l 1.5994,15.3026 c 0.8797,8.4164 2.3093,18.1307 3.1768,21.5873 1.5351,6.116 1.2024,6.2847 -12.3945,6.2847 -9.9441,0 -14.3844,-1.0753 -15.4032,-3.73 z m 8.507,-14.0478 c 0,-1.3968 -1.1429,-2.5397 -2.5397,-2.5397 -1.3968,0 -2.5397,1.1429 -2.5397,2.5397 0,1.3968 1.1429,2.5397 2.5397,2.5397 1.3968,0 2.5397,-1.1429 2.5397,-2.5397 z m 288.3393,12.0635 c 0.9336,-3.1429 3.582,-7.274 5.8854,-9.1803 3.0694,-2.5403 3.3401,-3.7839 1.0134,-4.6561 -2.1954,-0.823 -3.1746,-7.8109 -3.1746,-22.6551 0,-20.9718 0.1216,-21.3999 5.2969,-18.6302 6.7602,3.618 9.3657,1.0723 5.4006,-5.2768 -1.6931,-2.7112 -3.0785,-7.6714 -3.0785,-11.0228 0,-3.3513 -1.7072,-9.3668 -3.7938,-13.3678 -2.4079,-4.6169 -3.7996,-14.4649 -3.8096,-26.957 l -0.016,-19.6825 -8.254,-0.3007 c -4.5397,-0.1654 -8.8254,-0.312 -9.5238,-0.3257 -0.6984,-0.013 -4.2746,0.6802 -7.9471,1.542 l -6.6773,1.5668 -0.3647,-20.0689 -0.3648,-20.0688 8.7292,2.679 c 5.6969,1.7485 8.2693,3.8776 7.4052,6.1293 -0.7771,2.025 0.3619,3.4502 2.7573,3.4502 2.2447,0 4.0813,-1.592 4.0813,-3.5378 0,-4.9643 4.004,-5.8653 22.6066,-5.0871 9.8512,0.4122 17.1829,1.9953 18.606,4.0176 1.8462,2.6234 2.6242,2.6583 3.6368,0.1628 0.7085,-1.746 5.1635,-3.1746 9.9001,-3.1746 7.0601,0 9.345,1.4173 12.6792,7.8649 2.9702,5.7437 5.3852,7.5203 8.9541,6.587 5.5746,-1.4578 6.527,3.1113 1.7124,8.2148 -2.5397,2.692 -2.5397,3.5978 0,4.529 1.746,0.6403 3.1746,2.9164 3.1746,5.058 0,2.9783 -1.6423,3.4832 -6.9841,2.1472 -7.5558,-1.8898 -17.1941,-3.39 -23.8893,-3.7184 -2.9831,-0.1463 -3.8033,-1.7486 -2.82,-5.5088 1.1601,-4.4363 0.3953,-5.1525 -4.6822,-4.3841 -3.45,0.522 -5.7516,2.3919 -5.3338,4.3331 0.533,2.4758 -1.0553,2.9653 -5.7766,1.7804 l -6.5116,-1.6343 7.6789,10.6004 c 6.1957,8.553 7.0873,11.3132 4.6161,14.2907 -2.1073,2.5392 -2.8383,13.058 -2.3434,33.721 0.702,29.3118 0.593,29.9976 -4.5539,28.6517 -4.5047,-1.178 -5.2731,-0.2256 -5.2731,6.5363 0,8.1941 2.1279,9.8508 6.735,5.2437 1.8688,-1.8688 3.1821,3.4521 4.3712,17.7103 0.9349,11.2099 2.3693,22.1264 3.1875,24.2588 1.2488,3.2542 -1.4391,3.877 -16.7328,3.877 -17.7053,0 -18.1727,-0.1615 -16.5232,-5.7143 z m 12.6131,0.6349 c 0.8633,-1.3968 0.3593,-2.5397 -1.12,-2.5397 -1.4792,0 -2.6896,1.1429 -2.6896,2.5397 0,1.3968 0.504,2.5397 1.12,2.5397 0.616,0 1.8263,-1.1429 2.6896,-2.5397 z m 13.9682,-10.1587 c 0,-1.3969 -0.5039,-2.5397 -1.1199,-2.5397 -0.616,0 -1.8263,1.1428 -2.6896,2.5397 -0.8633,1.3968 -0.3593,2.5397 1.12,2.5397 1.4792,0 2.6895,-1.1429 2.6895,-2.5397 z m -0.8048,-23.3334 c -0.8107,-2.0259 -1.4125,-1.4242 -1.5343,1.5344 -0.1103,2.6773 0.4899,4.1773 1.3338,3.3334 0.844,-0.8439 0.9342,-3.0344 0.2004,-4.8678 z m -6.8142,-50.1675 c 0,-1.3144 -1.1429,-3.0962 -2.5397,-3.9594 -1.3968,-0.8633 -2.5397,0.212 -2.5397,2.3897 0,2.1777 1.1429,3.9595 2.5397,3.9595 1.3968,0 2.5397,-1.0754 2.5397,-2.3898 z m 2.5397,-11.4286 c 0,-0.616 -1.1429,-1.8263 -2.5397,-2.6896 -1.3968,-0.8633 -2.5397,-0.3593 -2.5397,1.12 0,1.4792 1.1429,2.6895 2.5397,2.6895 1.3968,0 2.5397,-0.5039 2.5397,-1.1199 z m 41.9047,-47.134 c 0.8633,-1.3968 0.3593,-2.5397 -1.1199,-2.5397 -1.4793,0 -2.6896,1.1429 -2.6896,2.5397 0,1.3968 0.504,2.5397 1.1199,2.5397 0.616,0 1.8263,-1.1429 2.6896,-2.5397 z m -12.8069,-4.9039 c 0.8037,-1.3003 0.2997,-3.0821 -1.1199,-3.9594 -1.4196,-0.8774 -2.5811,0.1864 -2.5811,2.3642 0,4.461 1.5239,5.1178 3.701,1.5952 z m -8.7804,-2.7152 c 0,-1.3968 -1.1428,-2.5397 -2.5397,-2.5397 -1.3968,0 -2.5396,1.1429 -2.5396,2.5397 0,1.3969 1.1428,2.5397 2.5396,2.5397 1.3969,0 2.5397,-1.1428 2.5397,-2.5397 z m -13.1852,-5.2698 c -0.5005,-1.5016 -1.9957,-2.7302 -3.3227,-2.7302 -1.327,0 -2.8222,1.2286 -3.3228,2.7302 -0.5005,1.5016 0.9947,2.7301 3.3228,2.7301 2.328,0 3.8233,-1.2285 3.3227,-2.7301 z M 654.30968,1525.3489 c 0,-1.2222 0.85715,-2.2232 1.90477,-2.2246 1.04762,0 1.76833,-11.1441 1.6016,-24.7619 -0.16686,-13.6177 0.57635,-26.4136 1.65132,-28.4354 1.07495,-2.0217 0.85438,-6.5693 -0.49021,-10.1059 -1.65396,-4.3502 -1.57198,-6.7209 0.25346,-7.3294 1.48394,-0.4947 2.69811,-3.0899 2.69811,-5.7671 0,-2.6772 1.14286,-4.8677 2.53968,-4.8677 3.3726,0 3.27602,-6.9503 -0.11225,-8.0798 -1.45856,-0.4862 -3.13806,-5.7702 -3.73219,-11.7423 -0.60434,-6.075 -0.0729,-10.2357 1.20663,-9.4449 1.25778,0.7773 2.93069,0.3716 3.71761,-0.9017 0.7869,-1.2732 -0.27698,-2.9703 -2.36419,-3.7712 -5.84185,-2.2417 -4.80196,-11.7744 1.28439,-11.7744 6.71589,0 6.96275,-10.1417 0.28932,-11.8869 -3.16949,-0.8288 -5.31705,-4.4001 -6.34783,-10.5559 -0.85681,-5.1168 -2.26316,-11.8747 -3.12523,-15.0175 -1.40564,-5.1246 -0.66321,-5.7143 7.19441,-5.7143 4.819,0 9.4238,0.662 10.23289,1.471 0.80907,0.8091 7.9651,1.7742 15.90225,2.1447 15.45427,0.7213 21.77247,5.2467 14.62364,10.474 -2.46382,1.8016 -3.38247,4.665 -2.35535,7.3415 2.61221,6.8074 7.70115,3.2821 10.13831,-7.0233 1.21338,-5.1307 3.52119,-9.4561 5.12846,-9.6119 1.60726,-0.1559 10.35088,-0.4971 19.43024,-0.7583 9.07937,-0.2612 18.88361,-1.2914 21.78723,-2.2894 4.76495,-1.6377 5.16686,-1.0071 4.12536,6.4726 -0.63464,4.5579 -2.25156,9.6655 -3.59314,11.3504 -1.34159,1.6848 -1.62634,4.3787 -0.63274,5.9864 1.23972,2.0059 0.18006,2.4068 -3.37714,1.2777 -2.85103,-0.9048 -5.93026,-0.4372 -6.84275,1.0392 -0.91248,1.4764 -2.73399,2.0201 -4.04777,1.2081 -1.3138,-0.812 -5.4932,0.9657 -9.28759,3.9504 -3.79436,2.9846 -7.24241,4.3959 -7.6623,3.1363 -0.41989,-1.2597 -7.0547,-1.7686 -14.74403,-1.131 -11.05147,0.9165 -15.16099,0.175 -19.61475,-3.5388 -3.09879,-2.584 -4.20561,-3.0713 -2.45958,-1.083 4.24173,4.8303 4.00622,7.6786 -0.63492,7.6786 -2.21641,0 -3.86751,2.3897 -3.94819,5.7143 -0.0762,3.1429 -0.43477,10.5309 -0.7967,16.4178 -0.43053,7.0022 0.49564,11.1462 2.67832,11.9838 1.83503,0.7041 3.33641,2.9082 3.33641,4.8978 0,4.4496 -6.86598,7.4341 -9.03365,3.9267 -1.9871,-3.2152 -8.74413,1.9967 -8.74413,6.7445 0,5.7724 5.69676,7.1736 9.27416,2.2812 1.88335,-2.5756 3.42425,-3.3216 3.42425,-1.6578 0,1.6638 1.7644,3.0251 3.92087,3.0251 2.32531,0 3.61717,1.8086 3.1746,4.4444 -0.50375,3.0001 0.90446,4.4444 4.33311,4.4444 3.66092,0 5.30494,-1.9623 5.88713,-7.0271 0.44427,-3.865 1.87284,-6.369 3.17461,-5.5644 2.07895,1.2848 2.46179,-0.084 2.33843,-8.3608 -0.0152,-1.0477 -1.44416,-2.0587 -3.1746,-2.2468 -1.73041,-0.1882 -4.28907,-0.4913 -5.68589,-0.6738 -4.69598,-0.6136 5.01445,-5.2552 11.07629,-5.2945 5.45161,-0.035 5.8493,0.748 4.37351,8.6147 -1.11525,5.9448 -0.60749,9.0209 1.62212,9.8269 2.59012,0.9364 2.61496,2.2423 0.12292,6.4668 -2.30423,3.9061 -2.36779,5.7599 -0.24254,7.0734 1.66324,1.0279 2.18393,0.6536 1.23241,-0.886 -0.90621,-1.4663 0.0599,-3.3213 2.14728,-4.1222 2.73864,-1.0509 3.79494,0.2983 3.79494,4.8473 0,6.1803 -0.16863,6.2332 -8.61498,2.704 -6.21946,-2.5986 -12.39866,-3.0493 -22.22222,-1.6207 -7.48399,1.0883 -12.40567,2.1214 -10.9371,2.2956 3.09351,0.3671 3.45588,30.4484 0.42311,35.1266 -1.09234,1.685 -3.66377,2.4199 -5.71428,1.633 -2.63309,-1.0104 -3.71675,0.3276 -3.6893,4.5554 0.0203,3.2923 0.87853,4.8431 1.90477,3.4463 1.02623,-1.3968 3.58016,-2.911 5.6754,-3.3648 2.09524,-0.4538 6.09524,-2.8745 8.88889,-5.3795 4.43548,-3.977 6.0452,-4.1378 12.69841,-1.2677 4.62603,1.9955 12.01503,2.7047 18.80955,1.8052 7.52277,-0.9958 10.64868,-0.6046 9.53742,1.1934 -2.72122,4.4031 7.44574,14.622 14.67639,14.7515 4.43386,0.079 6.22703,-0.9779 5.38408,-3.1746 -0.69509,-1.8115 -0.33399,-3.2937 0.80251,-3.2937 3.51587,0 9.99442,8.5583 11.7228,15.486 l 1.64589,6.5971 -22.40041,0.4541 c -32.23791,0.6534 -48.49579,-1.6835 -48.10793,-6.915 0.18793,-2.5366 -1.94507,-4.512 -5.40358,-5.0039 -5.55873,-0.7907 -6.94555,1.5 -5.78944,9.5626 0.44051,3.072 -0.13358,3.125 -3.50859,0.324 -2.78233,-2.3091 -5.02103,-2.5507 -7.20991,-0.7781 -3.87952,3.1418 -17.14286,3.3532 -17.14286,0.2732 z m 60.95238,-16.1904 c 0,-2.0953 -1.71428,-3.8096 -3.80952,-3.8096 -2.09524,0 -3.80952,1.7143 -3.80952,3.8096 0,2.0952 1.71428,3.8095 3.80952,3.8095 2.09524,0 3.80952,-1.7143 3.80952,-3.8095 z m -25.39682,-6.3492 c 0,-1.3969 -1.14286,-2.5397 -2.53968,-2.5397 -1.39683,0 -2.53969,1.1428 -2.53969,2.5397 0,1.3968 1.14286,2.5396 2.53969,2.5396 1.39682,0 2.53968,-1.1428 2.53968,-2.5396 z m 35.55555,-2.5397 c 0,-1.3968 -0.50397,-2.5397 -1.11994,-2.5397 -0.61598,0 -1.82629,1.1429 -2.68958,2.5397 -0.86329,1.3968 -0.35931,2.5397 1.11995,2.5397 1.47926,0 2.68957,-1.1429 2.68957,-2.5397 z m -55.87301,-16.6579 c 0,-2.1776 -1.14286,-3.253 -2.53968,-2.3897 -1.39683,0.8632 -2.53969,2.645 -2.53969,3.9594 0,1.3144 1.14286,2.3898 2.53969,2.3898 1.39682,0 2.53968,-1.7818 2.53968,-3.9595 z m 0.38095,-22.7072 c 0,-1.327 -1.22857,-2.8222 -2.73016,-3.3227 -1.50158,-0.5006 -2.73016,0.9946 -2.73016,3.3227 0,2.328 1.22858,3.8233 2.73016,3.3227 1.50159,-0.5005 2.73016,-1.9957 2.73016,-3.3227 z m 6.11378,-32.8082 c 2.70921,-1.9811 4.229,-4.2988 3.37732,-5.1505 -2.47543,-2.4754 -15.42143,3.3975 -13.68452,6.2079 2.12904,3.4449 4.47975,3.2037 10.3072,-1.0574 z m -1.41537,-10.2165 c 0,-2.0128 -1.02311,-4.292 -2.27357,-5.0648 -2.61437,-1.6158 -5.76673,4.9169 -3.47736,7.2063 2.72513,2.7251 5.75093,1.5984 5.75093,-2.1415 z m -5.07936,-15.5379 c 0,-2.1777 -1.14286,-3.2531 -2.53968,-2.3898 -1.39683,0.8633 -2.53969,2.645 -2.53969,3.9594 0,1.3144 1.14286,2.3898 2.53969,2.3898 1.39682,0 2.53968,-1.7817 2.53968,-3.9594 z m 11.42857,-1.1199 c 0.86329,-1.3969 0.42674,-2.5397 -0.97008,-2.5397 -1.39683,0 -3.246,1.1428 -4.10928,2.5397 -0.86329,1.3968 -0.42675,2.5396 0.97008,2.5396 1.39682,0 3.24599,-1.1428 4.10928,-2.5396 z m 8.00714,-22.8572 c 1.8818,0 3.42143,-1.107 3.42143,-2.46 0,-1.3529 -1.71428,-1.8021 -3.80952,-0.9981 -2.09524,0.804 -3.80953,0.1968 -3.80953,-1.3495 0,-5.5176 -9.3972,-2.6934 -12.31001,3.6996 -1.63165,3.581 -1.94459,5.8793 -0.69542,5.1073 1.24914,-0.772 3.78598,0.4216 5.63743,2.6524 3.03777,3.6603 3.59937,3.5337 5.75523,-1.2978 1.31393,-2.9446 3.92861,-5.3539 5.81039,-5.3539 z m 56.75476,-2.3152 c 0,-2.7997 -10.31652,-8.0458 -12.80172,-6.5098 -5.46431,3.3771 -2.2656,8.4804 5.18268,8.2687 4.19047,-0.1191 7.61904,-0.9107 7.61904,-1.7589 z m -27.9365,-3.8841 c 0,-0.616 -1.14286,-1.8263 -2.53969,-2.6896 -1.39682,-0.8633 -2.53968,-0.3593 -2.53968,1.12 0,1.4792 1.14286,2.6895 2.53968,2.6895 1.39683,0 2.53969,-0.5039 2.53969,-1.1199 z m -24.67698,-10.8261 c -1.63558,-4.2622 -8.3389,0.5042 -8.3389,5.9293 0,2.8227 0.95607,2.923 4.82596,0.5062 2.65427,-1.6576 4.2351,-4.5536 3.51294,-6.4355 z m 34.387,3.4816 c 0.48604,-2.506 -0.80955,-4.234 -3.17461,-4.234 -2.35588,0 -3.99573,2.1715 -3.99573,5.291 0,6.1894 5.93465,5.3145 7.17034,-1.057 z m 93.61089,157.6708 c 1.14177,-3.1429 2.07591,-12.5714 2.07591,-20.9524 0,-8.3809 1.14286,-16.0777 2.53968,-17.104 3.87741,-2.8486 26.66667,-2.2979 26.66667,0.6445 0,1.4924 -2.68787,1.9134 -6.34921,0.9945 -4.72624,-1.1862 -6.3492,-0.5877 -6.3492,2.3414 0,4.9428 5.70143,8.7178 7.05115,4.6686 0.55096,-1.6529 1.99705,-2.3901 3.21358,-1.6382 1.21651,0.7519 1.58253,3.3304 0.81334,5.7301 -1.18464,3.696 -0.98446,3.7806 1.30918,0.5536 2.3248,-3.2709 3.27677,-3.0016 6.73277,1.9048 4.98553,7.0777 13.89294,7.3654 19.65574,0.6349 5.6783,-6.6317 9.2317,-6.4069 19.5966,1.2401 11.0363,8.1423 12.6636,6.28 4.204,-4.8111 -8.0831,-10.5974 -8.3307,-13.1888 -1.4325,-14.9927 3.186,-0.8332 5.0794,-3.2105 4.7868,-6.0105 -1.1197,-10.7189 0,-12.8357 6.1759,-11.6554 5.4657,1.0448 5.9415,2.1556 4.745,11.0764 -1.087,8.1042 -0.5543,9.9151 2.9169,9.9151 3.2959,0 4.144,2.1326 3.788,9.5238 -0.2525,5.2381 0.3984,14.9247 1.4461,21.5258 l 1.9049,12.0021 -18.688,-0.175 c -11.1712,-0.1047 -19.4558,-1.3568 -20.5967,-3.1132 -1.4356,-2.2101 -2.3959,-2.1865 -3.8758,0.095 -1.4565,2.2457 -4.9059,2.373 -13.2851,0.4903 -7.84114,-1.7618 -11.59268,-1.7183 -12.21259,0.1415 -0.52239,1.5671 -8.80529,2.6843 -19.90189,2.6843 -18.63305,0 -18.96628,-0.1125 -16.93123,-5.7143 z m 18.9648,-3.1746 c 0,-1.327 -1.22857,-2.8222 -2.73016,-3.3227 -1.50159,-0.5006 -2.73016,0.9946 -2.73016,3.3227 0,2.328 1.22857,3.8233 2.73016,3.3227 1.50159,-0.5005 2.73016,-1.9957 2.73016,-3.3227 z m 18.72742,-6.5406 c 1.53135,-4.8249 -0.0203,-9.7266 -2.28493,-7.216 -2.69057,2.9833 -4.15764,12.4868 -1.92765,12.4868 1.39683,0 3.2925,-2.3719 4.21258,-5.2708 z m -24.64602,-12.071 c 0.53683,-3.6484 -0.52816,-5.5154 -3.14616,-5.5154 -2.67292,0 -3.78641,2.0697 -3.43005,6.3755 0.62951,7.6063 5.42266,6.9794 6.57621,-0.8601 z m 0.45828,-11.7147 c 0,-0.616 -1.14285,-1.8263 -2.53968,-2.6896 -1.39683,-0.8633 -2.53968,-0.3593 -2.53968,1.12 0,1.4792 1.14285,2.6895 2.53968,2.6895 1.39683,0 2.53968,-0.5039 2.53968,-1.1199 z m 326.09746,37.0828 c 0.7248,-1.1728 1.9405,-12.7191 2.7014,-25.6584 1.4994,-25.4979 2.2389,-28.0822 8.0356,-28.0822 2.4933,0 3.5522,-1.9307 3.0247,-5.5154 -0.9451,-6.4231 -7.1608,-9.5351 -7.1608,-3.5852 0,2.2117 -1.1428,4.0212 -2.5397,4.0212 -3.4002,0 -3.2434,-8.4391 0.2213,-11.9038 1.9881,-1.9882 1.9881,-3.2386 0,-4.4674 -1.8063,-1.1163 -2.7609,-16.0868 -2.7609,-43.2959 0,-22.8742 -1.1535,-44.6233 -2.5632,-48.3313 l -2.5633,-6.7417 10.8172,1.792 c 5.9495,0.9855 12.7562,2.8096 15.1261,4.0535 3.1033,1.6288 5.0079,1.0134 6.8075,-2.1997 1.9931,-3.5586 5.3848,-4.338 16.7627,-3.8519 7.8452,0.3351 16.4268,1.7668 19.0701,3.1815 3.1115,1.6652 5.3468,1.6971 6.3398,0.09 0.8436,-1.3649 6.6195,-1.8836 12.8353,-1.1526 6.2158,0.7311 15.4065,0.1958 20.4237,-1.1896 8.1286,-2.2444 8.9126,-2.0504 7.1979,1.7806 -2.9955,6.693 -6.0982,71.39 -4.1036,85.5693 0.9824,6.9841 1.4408,18.6984 1.0186,26.0317 l -0.7676,13.3333 h -15.2856 -15.2856 l 0.8151,-22.7526 0.8152,-22.7527 -5.623,6.8796 c -3.0926,3.7839 -5.664,7.6299 -5.7143,8.5467 -0.05,0.9169 -2.4923,1.0391 -5.4268,0.2717 -4.2438,-1.1097 -5.1158,-0.4115 -4.2617,3.4124 1.1954,5.3516 -6.9958,23.8553 -10.5602,23.8553 -1.2521,0 -2.8529,-1.4286 -3.5574,-3.1746 -0.7254,-1.7978 -1.368,-1.127 -1.4815,1.5467 -0.1102,2.5968 -2.736,7.3558 -5.8349,10.5756 -4.2298,4.3947 -5.5393,8.5992 -5.2529,16.8659 0.2098,6.0565 -0.1955,9.0118 -0.901,6.5673 -0.7054,-2.4444 -2.3416,-4.4444 -3.636,-4.4444 -2.9938,0 -3.0861,6.8664 -0.1171,8.7015 1.23,0.7602 2.7858,4.2562 3.4573,7.7689 1.2017,6.2861 0.9641,6.3867 -15.0847,6.3867 -8.9681,0 -15.7126,-0.9596 -14.9877,-2.1324 z m 14.22,-10.566 c 0,-1.3969 -1.2103,-2.5397 -2.6896,-2.5397 -1.4793,0 -1.9832,1.1428 -1.1199,2.5397 0.8632,1.3968 2.0736,2.5397 2.6895,2.5397 0.616,0 1.12,-1.1429 1.12,-2.5397 z m 13.8598,-27.761 c 0.8036,-1.3004 0.2996,-3.0821 -1.12,-3.9595 -1.4196,-0.8773 -2.5811,0.1865 -2.5811,2.3642 0,4.4611 1.524,5.1179 3.7011,1.5953 z m 11.537,-10.3343 c 0,-1.3968 -1.1429,-2.5396 -2.5397,-2.5396 -1.3968,0 -2.5397,1.1428 -2.5397,2.5396 0,1.3969 1.1429,2.5397 2.5397,2.5397 1.3968,0 2.5397,-1.1428 2.5397,-2.5397 z m 53.3333,-2.5396 c 0,-1.3969 -1.1428,-2.5397 -2.5396,-2.5397 -1.3969,0 -2.5397,1.1428 -2.5397,2.5397 0,1.3968 1.1428,2.5396 2.5397,2.5396 1.3968,0 2.5396,-1.1428 2.5396,-2.5396 z m 10.1588,-1.4513 c 0,-0.7982 -1.7143,-3.1655 -3.8096,-5.2608 -4.1347,-4.1347 -4.6526,-3.5194 -2.2679,2.6948 1.4488,3.7757 6.0775,5.73 6.0775,2.566 z m -67.4344,-24.5805 c 0.9687,-4.5123 3.1357,-6.9841 6.1227,-6.9841 2.5429,0 5.9493,-2.9101 7.5698,-6.4669 1.6206,-3.5567 6.3515,-8.4139 10.5132,-10.7936 4.1617,-2.3798 8.8722,-7.4697 10.4678,-11.311 2.7561,-6.6355 9.9037,-9.8431 9.9037,-4.4444 0,4.0992 6.9334,2.9103 8.6172,-1.4776 0.8479,-2.2094 1.5416,-6.8211 1.5416,-10.248 0,-5.4439 -0.6416,-5.8875 -5.0794,-3.5125 -4.0962,2.1922 -5.0794,1.9314 -5.0794,-1.3474 0,-2.2363 1.1831,-6.2765 2.6291,-8.9783 4.4687,-8.3498 -2.3639,-5.7935 -7.1916,2.6906 -4.3944,7.7226 -8.1359,9.9359 -8.1359,4.8128 0,-1.8726 -3.1222,-2.2366 -9.2784,-1.0817 -8.13,1.5252 -9.9657,0.8786 -14.832,-5.2243 -3.9197,-4.9158 -6.8904,-6.4519 -10.0974,-5.2213 -3.663,1.4057 -4.2809,3.704 -3.1874,11.8561 1.6337,12.1807 -0.5097,30.43 -3.5741,30.43 -1.2129,0 -2.2053,-1.7143 -2.2053,-3.8095 0,-2.0952 -1.1428,-3.8095 -2.5397,-3.8095 -3.5139,0 -3.1796,4.7285 0.6349,8.9821 9.7364,10.857 10.091,11.9342 8.9809,27.2812 -1.0626,14.6907 0.9125,14.0622 4.2197,-1.3427 z m -18.9148,-4.4444 c 0,-1.3969 -1.1429,-2.5397 -2.5397,-2.5397 -1.3968,0 -2.5397,1.1428 -2.5397,2.5397 0,1.3968 1.1429,2.5396 2.5397,2.5396 1.3968,0 2.5397,-1.1428 2.5397,-2.5396 z m 60.9523,-25.3969 c 0,-1.3968 -1.1428,-2.5396 -2.5396,-2.5396 -1.3969,0 -2.5397,1.1428 -2.5397,2.5396 0,1.3969 1.1428,2.5397 2.5397,2.5397 1.3968,0 2.5396,-1.1428 2.5396,-2.5397 z m -67.2909,-13.1883 c -0.4453,-6.0444 -6.3599,-9.8007 -6.3599,-4.0392 0,2.7338 4.6026,9.6085 6.4328,9.6085 0.1856,0 0.1528,-2.5062 -0.073,-5.5693 z m 41.8941,-27.5965 c 0,-1.3144 -1.1428,-2.3898 -2.5397,-2.3898 -1.3968,0 -2.5396,1.7818 -2.5396,3.9594 0,2.1777 1.1428,3.2531 2.5396,2.3898 1.3969,-0.8633 2.5397,-2.645 2.5397,-3.9594 z m 27.9365,-16.5079 c 0,-2.0128 -1.1428,-3.6596 -2.5397,-3.6596 -1.3968,0 -2.5396,2.3531 -2.5396,5.2292 0,2.8761 1.1428,4.5229 2.5396,3.6596 1.3969,-0.8632 2.5397,-3.2164 2.5397,-5.2292 z m -2.5397,164.3384 c 0,-5.4168 5.8564,-18.1568 8.3464,-18.1568 1.5236,0 0.2689,-2.3302 -2.7881,-5.1783 -5.603,-5.2199 -7.7302,-17.6788 -3.0186,-17.6788 1.3969,0 2.5397,1.1428 2.5397,2.5397 0,4.0053 7.6178,2.9584 9.2403,-1.2699 0.8041,-2.0952 4.1197,-3.8095 7.3682,-3.8095 7.0099,0 11.3306,9.5264 5.8855,12.9766 -2.7731,1.7571 -2.7928,2.1913 -0.1006,2.2226 2.1169,0.025 2.7877,1.7973 1.8264,4.8261 -0.8357,2.633 -0.4628,9.4902 0.8287,15.2381 2.4083,10.7184 1.1856,12.812 -4.2864,7.3399 -2.4549,-2.4549 -4.1617,-2.4549 -8.0926,0 -5.6825,3.5488 -17.7489,4.1948 -17.7489,0.9503 z m 22.8572,-29.5853 c 0,-2.0953 -1.7143,-3.8096 -3.8095,-3.8096 -3.9659,0 -5.0387,3.0037 -2.1164,5.9259 2.9222,2.9223 5.9259,1.8495 5.9259,-2.1163 z m 425.3044,27.6877 c 1.1095,-2.6568 1.839,-21.8869 1.6211,-42.7336 -0.2957,-28.2974 0.4258,-38.4466 2.8472,-40.0482 2.5067,-1.6582 2.1766,-2.9608 -1.4538,-5.7363 -4.3473,-3.3236 -4.4968,-5.4474 -2.008,-28.5232 1.7884,-16.5813 1.8565,-28.6019 0.2032,-35.8885 -1.3672,-6.026 -1.8444,-11.9943 -1.0603,-13.2629 1.8684,-3.0231 78.1766,0.01 80.2245,3.1894 0.8532,1.3245 2.2459,0.598 3.0949,-1.6144 1.8344,-4.7805 10.8098,-5.3695 12.9199,-0.8478 1.1852,2.5397 1.7778,2.5397 2.9629,0 0.8149,-1.7461 2.8579,-3.1746 4.5401,-3.1746 2.3318,0 2.4788,4.677 0.6185,19.6825 -1.3421,10.8254 -3.459,20.3671 -4.7043,21.2037 -1.2452,0.8367 -4.9093,1.0156 -8.1423,0.3976 -5.1477,-0.9841 -5.7218,-0.3052 -4.6191,5.4629 1.484,7.7632 1.56,7.7826 9.6642,2.4725 l 6.2789,-4.1141 0.1054,54.2729 c 0.058,29.85 0.1107,56.4006 0.1173,59.0014 0.025,9.8249 -7.2751,13.9874 -23.4987,13.3989 -9.7432,-0.3535 -15.9501,-1.8182 -17.358,-4.0962 -1.8011,-2.9142 -2.8963,-2.9612 -6.1467,-0.2636 -2.4089,1.9993 -14.5627,3.8238 -31.0896,4.6673 -25.9501,1.3245 -27.0465,1.174 -25.1173,-3.4457 z m 67.394,-7.3703 c 0,-2.0952 -1.107,-3.8095 -2.46,-3.8095 -1.353,0 -1.8021,1.7143 -0.9981,3.8095 0.804,2.0953 1.911,3.8095 2.46,3.8095 0.5489,0 0.9981,-1.7142 0.9981,-3.8095 z m 12.6984,2.6896 c 0,-0.616 -1.1429,-1.8263 -2.5397,-2.6896 -1.3968,-0.8633 -2.5397,-0.3593 -2.5397,1.12 0,1.4792 1.1429,2.6895 2.5397,2.6895 1.3968,0 2.5397,-0.5039 2.5397,-1.1199 z m -6.3492,-14.1182 c 0.8633,-1.3968 0.3593,-2.5396 -1.12,-2.5396 -1.4792,0 -2.6895,1.1428 -2.6895,2.5396 0,1.3969 0.5039,2.5397 1.1199,2.5397 0.616,0 1.8263,-1.1428 2.6896,-2.5397 z m 14.8718,-1.2311 c 0.8325,-2.1694 -0.5281,-4.8278 -3.2039,-6.2598 -5.3903,-2.8848 -7.8584,-1.1968 -7.8584,5.3745 0,5.6634 8.9538,6.38 11.0623,0.8853 z m -56.7766,-1.3085 c 0,-1.3969 -0.5039,-2.5397 -1.1199,-2.5397 -0.616,0 -1.8263,1.1428 -2.6896,2.5397 -0.8633,1.3968 -0.3593,2.5396 1.12,2.5396 1.4792,0 2.6895,-1.1428 2.6895,-2.5396 z m -0.4828,-6.7774 8.8856,-6.7773 4.6875,5.7888 c 2.5781,3.1839 4.6875,4.5194 4.6875,2.9678 0,-1.5515 3.7143,-2.8366 8.254,-2.8557 20.1253,-0.084 19.3149,1.6449 20.6366,-44.0407 1.6299,-56.3391 2.9016,-63.876 10.2989,-61.0374 4.1316,1.5855 8.0467,-3.6561 4.9067,-6.5691 -6.1205,-5.6779 -13.2895,-5.0936 -21.4173,1.7455 -7.5393,6.3438 -10.0904,6.9958 -25.5466,6.5284 -18.9838,-0.574 -19.0124,-0.5482 -19.7766,17.9286 -0.2219,5.3673 -2.1271,12.3892 -4.2336,15.6041 -3.9062,5.9616 -2.6985,19.0817 1.7564,19.0817 3.9979,0 2.6479,42.6851 -1.6104,50.9197 -4.7893,9.2616 -2.9381,9.418 8.4713,0.7156 z m 58.8955,-16.0798 c 0,-1.3968 -1.1428,-2.5397 -2.5396,-2.5397 -1.3969,0 -2.5397,1.1429 -2.5397,2.5397 0,1.3968 1.1428,2.5397 2.5397,2.5397 1.3968,0 2.5396,-1.1429 2.5396,-2.5397 z m 10.1588,-19.0476 c 0,-2.0952 -1.7143,-3.8095 -3.8096,-3.8095 -2.0952,0 -3.8095,1.7143 -3.8095,3.8095 0,2.0952 1.7143,3.8095 3.8095,3.8095 2.0953,0 3.8096,-1.7143 3.8096,-3.8095 z m -91.4286,-33.1658 c 0,-4.1906 -4.0138,-4.8986 -6.3492,-1.1199 -2.0711,3.3511 0.9656,8.1068 3.985,6.2407 1.3003,-0.8036 2.3642,-3.108 2.3642,-5.1208 z m 83.8095,-8.1027 c 0,-8.0333 -0.4889,-8.8222 -3.4861,-5.6249 -1.9173,2.0453 -4.1801,7.461 -5.0282,12.0348 -1.4247,7.6821 -1.159,8.1108 3.4861,5.6249 3.6124,-1.9333 5.0282,-5.3219 5.0282,-12.0348 z m -73.6508,0.4219 c 0,-4.4849 -5.4673,-3.7038 -7.037,1.0053 -0.5529,1.6587 0.8042,3.0159 3.0159,3.0159 2.2116,0 4.0211,-1.8095 4.0211,-4.0212 z m 66.0318,-6.1375 c 0,-1.3969 -1.1429,-2.5397 -2.5397,-2.5397 -1.3968,0 -2.5397,1.1428 -2.5397,2.5397 0,1.3968 1.1429,2.5397 2.5397,2.5397 1.3968,0 2.5397,-1.1429 2.5397,-2.5397 z m -72.2442,-2.761 c 2.6172,-4.2347 -3.2691,-9.0908 -6.7726,-5.5873 -2.9306,2.9306 -1.0965,8.3483 2.8263,8.3483 1.2319,0 3.0078,-1.2425 3.9463,-2.761 z m 8.7521,-4.7082 c 0,-1.3144 -1.1428,-3.0961 -2.5397,-3.9594 -1.3968,-0.8633 -2.5397,0.2121 -2.5397,2.3898 0,2.1777 1.1429,3.9594 2.5397,3.9594 1.3969,0 2.5397,-1.0754 2.5397,-2.3898 z m -6.3492,-17.9277 c -1.2287,-1.9881 -2.6897,-2.1357 -4.3828,-0.4425 -1.3969,1.3968 -1.7103,3.8817 -0.6966,5.5219 1.2288,1.9882 2.6897,2.1357 4.3829,0.4426 1.3968,-1.3969 1.7102,-3.8817 0.6965,-5.522 z m 13.9683,-2.6895 c 0,-1.3144 -1.7143,-2.3898 -3.8096,-2.3898 -3.9274,0 -5.0456,2.9967 -2.1854,5.8569 2.029,2.029 5.995,-0.2646 5.995,-3.4671 z m 35.246,-9.7638 c 4.5398,-2.8755 1.4189,-7.8641 -4.9197,-7.8641 -4.7724,0 -6.6889,5.0131 -3.2364,8.4656 2.2141,2.2141 3.9081,2.0891 8.1561,-0.6015 z m 30.7857,-5.4743 c 0,-1.3144 -1.1429,-2.3898 -2.5397,-2.3898 -1.3968,0 -2.5397,1.7817 -2.5397,3.9594 0,2.1777 1.1429,3.2531 2.5397,2.3898 1.3968,-0.8633 2.5397,-2.645 2.5397,-3.9594 z m -76.1905,-3.5098 c 0,-0.6159 -1.1428,-1.8263 -2.5397,-2.6895 -1.3968,-0.8633 -2.5396,-0.3594 -2.5396,1.1199 0,1.4793 1.1428,2.6896 2.5396,2.6896 1.3969,0 2.5397,-0.504 2.5397,-1.12 z m 15.2381,-3.9594 c 0,-1.3968 -1.1428,-2.5397 -2.5397,-2.5397 -1.3968,0 -2.5396,1.1429 -2.5396,2.5397 0,1.3968 1.1428,2.5397 2.5396,2.5397 1.3969,0 2.5397,-1.1429 2.5397,-2.5397 z m 297.1429,162.0758 c 0,-2.0729 0.7858,-4.5547 1.7462,-5.5152 0.9605,-0.9604 1.4388,-18.8652 1.063,-39.7883 -0.4965,-27.6473 0.125,-38.0421 2.2749,-38.0421 1.627,0 2.4344,-1.4286 1.7942,-3.1746 -0.6402,-1.7461 -2.6011,-2.8385 -4.3575,-2.4276 -2.506,0.5862 -2.732,-4.335 -1.0499,-22.8571 1.179,-12.9823 1.8586,-27.6042 1.5101,-32.4931 -0.3484,-4.8889 -0.876,-12.3175 -1.1724,-16.5079 l -0.5388,-7.6191 16.508,0.3854 c 9.0793,0.2118 27.1468,0.4976 40.1498,0.6349 15.0557,0.159 23.0719,1.1719 22.0724,2.7892 -0.8633,1.3969 -0.4816,2.5397 0.8482,2.5397 1.3298,0 3.0757,-1.7143 3.8797,-3.8095 1.77,-4.6126 10.7741,-5.0579 12.8382,-0.6349 1.1852,2.5397 1.7778,2.5397 2.963,0 0.8148,-1.7461 2.947,-3.1746 4.7383,-3.1746 2.4661,0 2.7499,2.6209 1.1688,10.7936 -1.1484,5.9365 -2.1378,15.0794 -2.1986,20.3175 -0.1123,9.6609 -1.19,10.5129 -12.1741,9.6232 -5.9157,-0.4792 -7.3504,3.5451 -3.4552,9.6923 1.7975,2.8368 3.35,2.6767 8.8239,-0.91 l 6.6426,-4.3524 -0.143,59.3227 c -0.078,32.6274 0.6269,61.3226 1.5677,63.767 1.4557,3.7826 0.1795,4.4445 -8.5701,4.4445 -5.6543,0 -10.9599,-1.0992 -11.7902,-2.4427 -0.9664,-1.5637 -3.8213,-1.5637 -7.9342,0 -9.1551,3.4808 -13.713,3.0265 -13.713,-1.3668 0,-4.438 -2.9335,-4.9395 -6.7236,-1.1494 -1.463,1.463 -14.8345,3.3495 -29.7143,4.1921 -22.9136,1.2976 -27.0541,0.9553 -27.0541,-2.2368 z m 67.5661,-11.5467 c -2.5816,-2.5816 -4.7117,1.3051 -2.5936,4.7324 1.6001,2.589 2.1983,2.591 3.0586,0.01 0.5882,-1.7646 0.3789,-3.8988 -0.465,-4.7427 z m 10.3592,1.3757 c -0.8107,-2.026 -1.4125,-1.4242 -1.5343,1.5344 -0.1103,2.6772 0.4899,4.1772 1.3338,3.3333 0.844,-0.8439 0.9342,-3.0344 0.2004,-4.8677 z m -3.0047,-9.6826 c 0.8633,-1.3968 0.3593,-2.5396 -1.1199,-2.5396 -1.4793,0 -2.6896,1.1428 -2.6896,2.5396 0,1.3969 0.504,2.5397 1.1199,2.5397 0.616,0 1.8263,-1.1428 2.6896,-2.5397 z m 14.8718,-1.2311 c 0.8325,-2.1694 -0.528,-4.8278 -3.2039,-6.2598 -5.3903,-2.8848 -7.8584,-1.1968 -7.8584,5.3745 0,5.6634 8.9538,6.38 11.0623,0.8853 z m -56.7766,-1.3085 c 0,-1.3969 -0.5039,-2.5397 -1.1199,-2.5397 -0.616,0 -1.8263,1.1428 -2.6896,2.5397 -0.8633,1.3968 -0.3593,2.5396 1.12,2.5396 1.4792,0 2.6895,-1.1428 2.6895,-2.5396 z m -0.2858,-7.352 7.8703,-7.352 5.0162,6.717 c 2.7589,3.6944 5.0524,5.2885 5.0967,3.5425 0.047,-1.8646 3.4864,-3.1889 8.3344,-3.2093 20.1772,-0.085 19.3129,1.8118 20.6484,-45.3105 0.659,-23.2506 1.5859,-45.131 2.0598,-48.623 1.1139,-8.2084 4.3167,-13.1692 7.3086,-11.3201 3.5732,2.2083 7.4012,-1.0733 5.879,-5.04 -0.7385,-1.9245 -4.276,-4.2352 -7.8611,-5.135 -5.0183,-1.2595 -8.2087,-0.018 -13.863,5.4005 -6.6638,6.3844 -8.9036,6.9903 -24.1668,6.538 -13.3627,-0.396 -17.4786,0.399 -20.0138,3.8661 -1.7553,2.4005 -2.4778,5.5194 -1.6055,6.9308 2.4622,3.9839 0.4222,16.8399 -3.6612,23.0719 -3.7786,5.7669 -2.4594,18.8624 1.9001,18.8624 4.0051,0 2.7031,44.1633 -1.4644,49.6733 -8.2641,10.9261 -2.6647,11.8376 8.5223,1.3874 z m 58.6985,-15.5052 c 0,-1.3968 -1.1428,-2.5397 -2.5396,-2.5397 -1.3969,0 -2.5397,1.1429 -2.5397,2.5397 0,1.3968 1.1428,2.5397 2.5397,2.5397 1.3968,0 2.5396,-1.1429 2.5396,-2.5397 z m 9.6753,-19.6825 c -1.0309,-5.3533 -5.5382,-5.0157 -6.6869,0.5008 -0.4791,2.3009 0.9209,3.9436 3.3609,3.9436 2.6157,0 3.8614,-1.6645 3.326,-4.4444 z m -90.9451,-32.5309 c 0,-4.1906 -4.0138,-4.8986 -6.3492,-1.1199 -2.0711,3.3511 0.9656,8.1068 3.985,6.2407 1.3003,-0.8036 2.3642,-3.108 2.3642,-5.1208 z m 83.8095,-7.8695 c 0,-7.8102 -0.5437,-8.6592 -3.8095,-5.9488 -2.0952,1.7389 -3.8095,5.8788 -3.8095,9.1998 0,3.3211 -1.2103,6.0383 -2.6896,6.0383 -1.4793,0 -1.9813,1.1459 -1.1157,2.5465 1.0466,1.6935 3.2238,1.6635 6.4991,-0.089 3.4687,-1.8563 4.9252,-5.3301 4.9252,-11.7464 z m -73.6508,0.1887 c 0,-2.2116 -1.3571,-3.5687 -3.0158,-3.0158 -4.7092,1.5697 -5.4902,7.037 -1.0053,7.037 2.2116,0 4.0211,-1.8095 4.0211,-4.0212 z m 66.0318,-6.1375 c 0,-1.3969 -1.1429,-2.5397 -2.5397,-2.5397 -1.3968,0 -2.5397,1.1428 -2.5397,2.5397 0,1.3968 1.1429,2.5397 2.5397,2.5397 1.3968,0 2.5397,-1.1429 2.5397,-2.5397 z m -72.2442,-2.761 c 2.6172,-4.2347 -3.2691,-9.0908 -6.7726,-5.5873 -2.9306,2.9306 -1.0965,8.3483 2.8263,8.3483 1.232,0 3.0078,-1.2425 3.9463,-2.761 z m 8.7521,-4.7082 c 0,-1.3144 -1.1428,-3.0961 -2.5397,-3.9594 -1.3968,-0.8633 -2.5396,0.2121 -2.5396,2.3898 0,2.1777 1.1428,3.9594 2.5396,3.9594 1.3969,0 2.5397,-1.0754 2.5397,-2.3898 z m -6.3492,-14.9647 c 0,-4.5934 -4.9709,-3.7548 -5.9568,1.0049 -0.5486,2.6482 0.4035,3.8092 2.5397,3.0971 1.8794,-0.6265 3.4171,-2.4724 3.4171,-4.102 z m 13.9683,-5.6525 c 0,-1.3144 -1.7143,-2.3898 -3.8096,-2.3898 -3.9273,0 -5.0455,2.9967 -2.1854,5.8569 2.029,2.029 5.995,-0.2646 5.995,-3.4671 z m 35.246,-9.7638 c 4.5398,-2.8755 1.4189,-7.8641 -4.9197,-7.8641 -4.7724,0 -6.6889,5.0131 -3.2364,8.4656 2.2141,2.2141 3.9081,2.0891 8.1561,-0.6015 z m 30.7857,-5.4743 c 0,-1.3144 -1.1428,-2.3898 -2.5397,-2.3898 -1.3968,0 -2.5397,1.7817 -2.5397,3.9594 0,2.1777 1.1429,3.2531 2.5397,2.3898 1.3969,-0.8633 2.5397,-2.645 2.5397,-3.9594 z m -76.1905,-3.5098 c 0,-0.6159 -1.1428,-1.8263 -2.5396,-2.6895 -1.3969,-0.8633 -2.5397,-0.3594 -2.5397,1.1199 0,1.4793 1.1428,2.6896 2.5397,2.6896 1.3968,0 2.5396,-0.504 2.5396,-1.12 z m 15.2381,-3.9594 c 0,-1.3968 -1.1428,-2.5397 -2.5397,-2.5397 -1.3968,0 -2.5396,1.1429 -2.5396,2.5397 0,1.3968 1.1428,2.5397 2.5396,2.5397 1.3969,0 2.5397,-1.1429 2.5397,-2.5397 z M 750.37226,1499.8589 c -6.80698,-8.0513 -8.58999,-11.851 -6.65508,-14.1825 3.30212,-3.9788 12.1798,-4.1902 12.1798,-0.29 0,1.5921 1.65684,4.1635 3.68188,5.7143 2.64295,2.024 3.17532,5.2091 1.88668,11.2878 l -1.79517,8.4682 z m 533.77864,0.4107 c 0,-2.9074 3.6202,-2.9074 12.6984,0 5.6665,1.8147 5.325,2.0606 -3.1746,2.2865 -5.2381,0.1392 -9.5238,-0.8897 -9.5238,-2.2865 z m 30.4762,-7.8053 c 0,-10.0222 7.6533,-9.4175 10.3914,0.8211 1.6596,6.2058 1.1846,6.9842 -4.2618,6.9842 -5.15,0 -6.1296,-1.2474 -6.1296,-7.8053 z m 17.3968,1.8057 c -0.2095,-2.2875 -0.4952,-5.5877 -0.6349,-7.3338 -0.146,-1.8248 4.0654,-3.8312 9.9048,-4.7189 l 10.1587,-1.5444 -10.7936,-0.3604 c -9.6215,-0.3212 -10.7937,-1.0269 -10.7937,-6.498 0,-3.3756 1.4286,-6.7324 3.1746,-7.4595 2.2906,-0.9538 1.8946,-2.3593 -1.4218,-5.0472 -3.1384,-2.5435 -3.6877,-4.2868 -1.7316,-5.4957 1.5756,-0.9738 2.2796,-3.2954 1.5645,-5.1591 -0.7152,-1.8638 0.064,-3.8845 1.7316,-4.4907 2.3195,-0.8431 2.2765,-2.3807 -0.1834,-6.544 -1.7684,-2.993 -2.5348,-8.1529 -1.7032,-11.4665 0.9181,-3.6577 -0.4684,-9.9067 -3.529,-15.9059 -4.4312,-8.686 -4.6201,-10.6418 -1.5614,-16.167 4.0638,-7.3405 4.615,-10.9852 1.3569,-8.9716 -1.2666,0.7828 -1.7047,-0.864 -0.9737,-3.6596 0.8762,-3.3504 0.08,-5.0829 -2.3366,-5.0829 -2.6009,0 -3.3517,2.1407 -2.5845,7.3681 0.8491,5.7851 -0.064,7.7316 -4.2494,9.0601 -6.3074,2.0018 -6.6247,5.1578 -1.5056,14.9732 2.0866,4.001 3.7939,7.472 3.7939,7.7135 0,0.2416 -2.2857,0.6113 -5.0794,0.8217 -4.1459,0.3124 -5.0793,-1.1829 -5.0793,-8.1368 0,-4.6856 -0.9918,-8.9003 -2.204,-9.3659 -1.2122,-0.4656 -2.9734,-3.3233 -3.9139,-6.3504 -1.438,-4.6287 -0.8857,-5.2883 3.4738,-4.1482 2.8511,0.7455 5.318,0.3651 5.482,-0.8454 1.9348,-14.2778 1.2721,-21.2486 -2.02,-21.2486 -2.0116,0 -3.0251,-1.0231 -2.2523,-2.2736 0.7729,-1.2504 -0.4298,-2.9777 -2.6725,-3.8383 -2.9567,-1.1346 -3.6589,-0.4733 -2.5542,2.4055 0.9295,2.4223 0.4772,3.3236 -1.1602,2.3116 -1.4761,-0.9123 -2.1064,-3.1633 -1.4007,-5.0024 0.7057,-1.839 -1.437,-6.5093 -4.7616,-10.3783 -3.3246,-3.8691 -5.4709,-7.9631 -4.7696,-9.0979 0.7013,-1.1347 0.065,-2.0631 -1.4144,-2.0631 -1.4793,0 -2.6896,-1.5372 -2.6896,-3.4159 0,-4.5778 -8.2633,-11.8222 -13.4849,-11.8222 -2.3713,0 -4.8976,-2.7949 -5.8091,-6.4268 -1.1679,-4.6533 -2.8358,-6.0387 -6.0443,-5.0204 -3.649,1.1582 -4.7178,-0.6841 -6.0544,-10.4356 -0.8927,-6.5131 -1.4727,-15.9682 -1.2888,-21.0114 l 0.3343,-9.1693 1.871,8.8889 c 1.6305,7.7461 1.914,6.9208 2.2054,-6.419 0.193,-8.837 1.9106,-17.5585 4.0632,-20.6318 3.3549,-4.7897 3.2335,-5.7722 -1.2099,-9.7934 -2.7164,-2.4583 -4.327,-5.4597 -3.5791,-6.6699 0.748,-1.2101 0.1496,-2.2002 -1.3297,-2.2002 -1.5136,0 -2.6953,-5.2744 -2.7027,-12.0635 -0.01,-6.6349 -0.7544,-23.2582 -1.6605,-36.9407 l -1.6473,-24.8772 -18.0221,1.7063 c -9.9121,0.9385 -29.4506,3.0301 -43.4189,4.6482 l -25.3968,2.9419 0.5107,50.7052 c 0.2809,27.8878 -0.3443,48.5944 -1.3894,46.0145 -1.7183,-4.2416 -2.2198,-4.3055 -5.2393,-0.6672 -4.1616,5.0143 -1.5733,12.7656 3.5997,10.7805 3.0373,-1.1655 3.7881,0.9914 3.7881,10.8824 0,12.061 0.1961,12.3728 8.7894,13.9849 8.1693,1.5326 8.6173,2.1017 6.3492,8.0671 -3.4477,9.0681 -3.3022,9.2033 5.1789,4.8176 5.8178,-3.0085 7.6283,-3.174 7.6579,-0.7002 0.089,7.4007 4.1347,10.2526 10.052,7.0857 4.3597,-2.3332 5.4085,-4.7237 4.5724,-10.4209 -0.7751,-5.281 -0.027,-7.3932 2.6189,-7.3932 2.8351,0 3.3946,2.3074 2.3849,9.8352 -0.7255,5.4093 -0.3221,11.4093 0.8966,13.3333 1.4261,2.2516 2.2296,-1.2533 2.2546,-9.8351 0.028,-9.685 1.0069,-13.3334 3.5767,-13.3334 1.9458,0 4.1956,1.7143 4.9997,3.8095 0.804,2.0953 3.3342,3.8096 5.6228,3.8096 2.439,0 3.6193,-1.4115 2.8521,-3.4108 -0.9679,-2.5221 1.6011,-3.4548 9.8597,-3.5797 l 11.1686,-0.1688 -0.3767,9.6125 -0.3767,9.6126 -8.7231,-2.4085 c -9.3888,-2.5924 -14.2715,-0.7165 -8.1732,3.1402 2.9511,1.8664 2.5355,2.3709 -1.9783,2.4016 -3.369,0.023 -5.7143,1.6025 -5.7143,3.8484 0,2.1623 -2.4709,3.9486 -5.7143,4.131 -13.0394,0.7335 -69.5441,-0.7431 -73.6508,-1.9247 -3.4006,-0.9784 -4.4444,0.2339 -4.4444,5.1619 0,4.9486 -1.0296,6.1319 -4.4445,5.1078 -3.136,-0.9406 -2.7622,-0.078 1.2699,2.9291 6.9958,5.218 8.3152,19.7193 1.5582,17.1264 -2.8807,-1.1054 -3.7575,-0.4964 -2.8571,1.9845 0.7144,1.9686 2.5846,3.2936 4.156,2.9444 1.856,-0.4125 2.8572,4.4275 2.8572,13.8122 0,14.401 -0.015,14.4303 -4.9059,9.1813 -4.0209,-4.3159 -6.9952,-5.0304 -16.4874,-3.9605 -18.1072,2.041 -20.2093,-1.0982 -18.4915,-27.6134 l 1.4254,-22.0011 -9.3417,0.2121 c -5.138,0.1168 -23.6275,0.077 -41.0878,-0.088 -17.4603,-0.1651 -41.746,0.309 -53.9683,1.0534 -19.25543,1.1728 -22.22223,0.8101 -22.22223,-2.7166 0,-2.2386 1.7143,-4.0702 3.8095,-4.0702 4.8958,0 4.9515,-6.7275 0.078,-9.4547 -3.0161,-1.6879 -4.2824,-14.9768 -6.6067,-69.3326 -1.5815,-36.9844 -3.0453,-70.673 -3.2529,-74.8634 -0.2989,-6.0341 0.6792,-7.6316 4.7019,-7.6794 6.311,-0.075 5.5679,-7.7263 -1.4899,-15.3415 -3.3861,-3.6534 -4.8592,-8.9473 -4.8592,-17.4621 v -12.219 l 10.4443,14.0972 10.4442,14.0973 5.64773,-6.5658 c 7.7513,-9.0114 12.6006,-5.6663 10.5327,7.2655 -0.8654,5.4119 -0.5299,9.8398 0.7454,9.8398 1.2754,0 4.6397,3.9335 7.4763,8.7412 4.6352,7.8561 5.342,14.9362 6.9802,69.9263 1.0026,33.6518 2.5457,61.632 3.4294,62.178 0.8835,0.5461 10.141,1.3181 20.5722,1.7156 13.4365,0.512 19.8383,1.8636 21.9589,4.6363 2.6645,3.4838 3.1824,3.4256 4.7161,-0.5308 1.439,-3.7119 5.027,-4.4444 21.7687,-4.4444 h 20.0458 v -7.0275 c 0,-10.0504 -4.7109,-85.6666 -6.3378,-101.729 -1.2662,-12.5015 -0.9998,-13.4012 3.5404,-11.9602 5.8569,1.8589 8.4292,-1.2614 5.2666,-6.3887 -1.5166,-2.4589 -8.4445,-4.1115 -20.7848,-4.9581 -17.9436,-1.231 -18.5344,-1.4835 -19.3134,-8.254 -0.6336,-5.5058 0.2445,-6.9841 4.1483,-6.9841 5.7951,0 9.0007,-11.3191 5.2111,-18.4002 -1.9123,-3.5731 -4.5775,-4.2122 -13.0974,-3.1407 -8.6817,1.0918 -9.5909,0.8599 -4.8269,-1.231 3.2283,-1.4169 10.0855,-2.4557 15.2381,-2.3085 5.1527,0.1473 12.666,-1.0371 16.6963,-2.6319 l 7.3279,-2.8996 -1.746,-21.5195 -1.7461,-21.5194 h 6.4816 c 7.3947,0 8.0544,-3.2955 3.0449,-15.2097 -2.5529,-6.0715 -3.8307,-7.1472 -4.9684,-4.1824 -0.8424,2.1952 -0.4201,4.6783 0.9386,5.518 2.8412,1.756 0.7492,6.255 -2.9085,6.255 -2.7767,0 -1.512,-20.5849 2.3406,-38.0952 2.2983,-10.4465 1.2691,-18.3053 -1.4137,-10.7937 -1.8969,5.3115 -5.7898,3.5451 -5.7898,-2.6271 0,-3.1909 5.6706,-14.0076 12.6014,-24.037 7.043,-10.19174 11.4943,-18.91956 10.0914,-19.78661 -1.3805,-0.85323 -2.3444,-2.89371 -2.1418,-4.53442 1.3718,-11.11244 -0.6886,-14.2494 -13.5669,-20.65534 -11.0252,-5.48419 -11.9045,-6.36219 -5.0794,-5.0719 6.4869,1.22636 8.254,0.70166 8.254,-2.45087 0,-2.20625 -1.7426,-4.01133 -3.8724,-4.01133 -2.1298,0 -4.9587,-2.85714 -6.2863,-6.34921 -1.3277,-3.49206 -3.6359,-6.3492 -5.1292,-6.3492 -1.7091,0 -2.5879,-6.82283 -2.3716,-18.4127 0.1889,-10.12699 -0.8772,-32.69841 -2.3694,-50.15873 -1.4922,-17.46032 -2.7389,-33.17461 -2.7706,-34.92064 -0.099,-5.44399 -10.2526,-3.52551 -48.3116,9.12805 -33.9974,11.30319 -36.8858,12.74941 -37.6111,18.83216 -0.9238,7.74694 -8.10323,15.31446 -8.10323,8.54123 0,-2.26626 -1.6468,-4.12049 -3.6596,-4.12049 -4.4116,0 -7.0709,3.6556 -4.5253,6.22065 1.0096,1.01737 1.8357,4.89108 1.8357,8.60821 0,5.14158 1.4135,6.95868 5.9084,7.59545 4.03143,0.5711 5.44633,2.04155 4.45363,4.62842 -0.8002,2.08528 -0.276,5.99436 1.165,8.68681 2.3585,4.40678 1.6605,4.94095 -6.99323,5.35177 -5.2873,0.25092 -13.4682,0.18387 -18.1799,-0.14908 -7.8106,-0.55187 -8.4356,-0.0833 -7.0824,5.30832 0.8163,3.25249 -0.077,10.45503 -1.9853,16.00566 -2.3049,6.70448 -2.6681,11.58936 -1.0821,14.55276 1.7554,3.2801 1.4337,4.46075 -1.2154,4.46075 -4.4477,0 -7.4004,-10.10606 -4.1108,-14.06976 1.3262,-1.59805 1.6555,-3.66141 0.7316,-4.58525 -2.3468,-2.34679 -2.5104,-24.52155 -0.1811,-24.52048 3.0385,0.001 2.2009,-14.75444 -0.948,-16.70055 -1.8064,-1.11644 -2.3311,-6.16729 -1.4306,-13.77097 0.7822,-6.60434 0.4023,-13.02773 -0.8442,-14.27424 -1.2465,-1.2465 -3.5191,-23.40271 -5.0503,-49.23603 -1.5312,-25.83335 -3.0424,-48.68399 -3.3581,-50.77923 -0.3157,-2.09524 -6.6288,4.7619 -14.029,15.23809 -43.4773,61.54891 -72.53957,135.19843 -83.17957,210.79366 -5.96353,42.36974 -3.66829,112.47034 4.98926,152.38094 16.64511,76.7326 49.50251,143.7288 98.56801,200.9798 10.5551,12.3161 12.2667,15.8419 12.2667,25.2699 0,8.6273 -0.6594,10.2974 -3.1014,7.8554 -1.7057,-1.7057 -3.1343,-5.6486 -3.1746,-8.7619 -0.046,-3.5373 -1.6545,-5.6734 -4.2888,-5.6948 -2.3186,-0.018 -6.5675,-2.1626 -9.4421,-4.7641 -4.1567,-3.7618 -4.6813,-5.7487 -2.5628,-9.7071 3.2681,-6.1066 1.116,-8.8686 -3.7583,-4.8234 -2.8996,2.4065 -5.1594,1.0053 -11.7033,-7.2571 -4.4603,-5.6316 -7.4968,-10.2394 -6.7477,-10.2394 0.7491,0 -1.408,-2.9888 -4.7934,-6.6418 -9.6609,-10.4242 -33.2215,-51.3652 -45.5121,-79.0857 -48.33353,-109.0124 -52.437,-233.6716 -11.509,-349.6294 15.9571,-45.20972 37.8662,-86.22346 69.8117,-130.68688 l 17.1149,-23.82151 -1.6439,-34.59119 c -0.9042,-19.02514 -2.337,-44.54327 -3.1842,-56.70695 l -1.5402,-22.11581 62.31673,-30.9838 c 60.1426,-29.90283 62.5934,-30.86923 70.2462,-27.69935 4.9443,2.04798 12.6778,2.72213 20.5422,1.79071 13.6989,-1.62243 14.0462,-1.41981 9.645,5.6276 -2.4377,3.90332 -1.6131,7.41265 4.6169,19.64808 4.1716,8.19279 8.6499,14.91347 9.9519,14.93486 5.778,0.095 8.7164,4.79062 8.7164,13.92937 0,5.42242 -1.0992,10.53828 -2.4427,11.36858 -1.5283,0.94461 -1.5651,3.8176 -0.098,7.67576 4.2085,11.06898 6.1549,51.52181 2.6805,55.70819 -2.4967,3.00833 -2.3149,4.90893 0.9099,9.51299 2.2978,3.28064 4.0299,10.90413 4.0299,17.73699 0,6.59089 0.8572,12.50687 1.9048,13.14662 1.0476,0.63977 23.5432,-6.45526 49.9902,-15.76673 l 48.0854,-16.92991 -0.6552,-16.05567 c -0.5027,-12.31667 0.3675,-17.18582 3.7367,-20.90877 4.018,-4.4398 4.0341,-4.85313 0.1889,-4.85313 -3.2884,0 -4.2031,-2.48729 -4.2031,-11.42857 0,-6.28572 1.121,-11.42857 2.4911,-11.42857 1.4913,0 1.8624,-4.58657 0.9246,-11.42858 -1.638,-11.95085 0.8811,-14.68223 6.8775,-7.45701 2.2123,2.6657 6.6222,3.73143 13.4117,3.24122 8.1143,-0.58588 10.5031,0.26133 12.0744,4.28238 2.7568,7.05468 2.7982,51.99691 0.048,51.99691 -4.0427,0 -5.2027,7.28658 -2.4274,15.24779 2.0823,5.97329 3.4739,7.13733 6.0132,5.02987 2.4729,-2.05232 4.253,-1.38705 7.0771,2.64493 5.0081,7.14999 6.7501,3.5408 4.322,-8.95434 -1.0857,-5.5873 -2.1055,-8.73016 -2.2661,-6.98413 -0.3311,3.59825 -5.3714,4.41806 -5.3714,0.87366 0,-1.26553 5.1912,-4.0698 11.5361,-6.2317 11.4079,-3.88706 11.5614,-3.86423 13.8116,2.05425 3.7244,9.79593 7.4991,10.04287 11.3841,0.74471 1.9853,-4.75139 5.1042,-9.81069 6.9309,-11.24285 5.8747,-4.60576 20.6964,-8.93 36.3373,-10.60142 l 15.2381,-1.62839 -0.8992,-21.0749 -0.8991,-21.07492 12.9626,1.71957 c 12.9334,1.71566 15.0495,0.43266 12.9043,-7.82372 -0.363,-1.39683 -0.5787,-4.41595 -0.4793,-6.70916 0.099,-2.29323 -2.5962,-6.77816 -5.9901,-9.96652 -6.9932,-6.56978 -8.1691,-17.86924 -2.3611,-22.6894 3.12,-2.58939 3.8095,-2.41585 3.8095,0.95888 0,2.26626 2.2143,6.33478 4.9206,9.04112 3.2678,3.26781 3.9076,5.26176 1.9048,5.9362 -5.0884,1.71347 3.4683,9.80473 9.4603,8.94568 4.1427,-0.59393 5.1844,-2.37877 4.7654,-8.16561 -0.2949,-4.07307 -1.7838,-8.17664 -3.3087,-9.11907 -1.5248,-0.9424 -2.5768,-2.75159 -2.3376,-4.02041 1.0294,-5.46177 -0.4794,-8.41311 -5.0412,-9.86098 -8.5376,-2.70969 -25.6018,-20.14093 -25.6018,-26.15233 0,-4.90873 1.3464,-5.65872 10.1587,-5.65872 7.4294,0 10.1587,-1.04493 10.1587,-3.88922 0,-2.1391 -1.8018,-4.58067 -4.004,-5.42575 -2.2023,-0.84508 -5.0311,-4.23779 -6.2864,-7.53933 -2.9676,-7.80559 -6.9769,-7.65102 -8.9841,0.34636 -1.8345,7.30921 -4.8619,8.21745 -7.1878,2.15632 -0.9749,-2.54057 0.3731,-6.03949 3.4208,-8.87886 2.7664,-2.57727 5.7939,-8.75901 6.7279,-13.73717 1.1709,-6.24188 2.7838,-8.63456 5.1963,-7.7088 4.8521,1.86192 4.3729,-2.93427 -0.972,-9.72919 -2.4586,-3.12564 -6.03,-5.16305 -7.9365,-4.52757 -7.2922,2.43076 -0.9974,-4.49087 12.0271,-13.22463 7.4737,-5.01161 16.7594,-9.112 20.6349,-9.112 11.4675,0 22.9482,-2.97816 21.3637,-5.54187 -0.8103,-1.31106 -0.066,-5.77999 1.6529,-9.93095 3.87,-9.34301 1.1624,-12.85259 -4.1091,-5.32635 -2.1424,3.05859 -5.3515,5.56107 -7.1315,5.56107 -4.3542,0 -10.2522,-11.43898 -7.8784,-15.27987 1.0421,-1.6862 0.4591,-3.95309 -1.2957,-5.03759 -1.7547,-1.08449 -2.4129,-3.22972 -1.4627,-4.76719 1.1967,-1.93632 3.6675,-1.52432 8.04,1.3406 5.9153,3.87589 6.5354,3.83418 9.8602,-0.66314 3.1768,-4.29714 2.7083,-5.67066 -4.4783,-13.13046 -9.4497,-9.80902 -8.1218,-14.12399 6.815,-22.14489 l 9.459,-5.07937 29.693,30.48421 c 16.3311,16.76631 68.55,72.62361 116.0421,124.12733 86.2424,93.52729 86.351,93.65923 87.84,106.65864 l 1.4908,13.01554 0.3825,-13.96825 0.3825,-13.96825 -115.8657,-125.71429 c -63.7262,-69.14286 -110.0814,-120 -103.0115,-113.01588 7.0698,6.98413 59.795,63.53402 117.167,125.66644 l 104.3128,112.96803 0.126,15.28594 0.1259,15.28595 20.8606,15.66009 c 57.4156,43.10217 112.1741,106.19436 151.6619,174.74332 37.1091,64.41963 61.3762,135.06225 72.822,211.98801 5.4045,36.3225 5.9736,122.7003 1.03,156.3388 -7.4622,50.7771 -20.2594,102.8542 -27.197,110.6762 -1.9559,2.2052 -3.5718,6.7766 -3.5909,10.1587 -0.069,12.2407 -2.8641,17.2531 -10.5639,18.9442 -4.1483,0.9112 -7.9608,1.2382 -8.4723,0.7267 -0.5115,-0.5114 2.5024,-10.6202 6.6974,-22.4639 39.5179,-111.5705 42.9553,-237.8778 9.6365,-354.10646 -32.1283,-112.07538 -105.5819,-220.94353 -197.8981,-293.3115 l -13.9683,-10.94992 -1.2607,342.54398 -1.2608,342.5439 -1.2926,-344.12703 -1.2926,-344.127 -0.6213,344.76193 -0.6212,344.7619 h -5.3511 c -3.606,0 -4.8948,1.1888 -3.9522,3.6455 0.7694,2.005 0.035,4.2005 -1.633,4.8788 -1.7064,0.6943 -1.1637,1.3211 1.2414,1.434 5.3103,0.2491 8.5245,9.4588 4.8474,13.8894 -1.5001,1.8075 -1.8802,4.1848 -0.8447,5.2829 1.0355,1.098 -3.7721,1.1746 -10.6835,0.1701 -11.2684,-1.6377 -12.2226,-1.4123 -9.2396,2.1819 1.8295,2.2045 2.704,5.6302 1.9433,7.6127 -0.888,2.3141 1.3447,4.7344 6.2365,6.7607 5.5036,2.2797 6.6904,3.7304 4.2736,5.2241 -1.8403,1.1373 -3.346,3.4429 -3.346,5.1235 0,1.6806 -1.5877,3.5848 -3.5281,4.2316 -1.9405,0.6468 -2.8301,0.047 -1.9771,-1.3336 0.9299,-1.5045 -1.8228,-2.242 -6.8723,-1.8413 -4.6328,0.3675 -10.0289,-0.4405 -11.9912,-1.7957 -2.5833,-1.7841 -1.991,-2.0205 2.1465,-0.8567 3.3608,0.9453 5.7143,0.4909 5.7143,-1.1035 0,-1.4908 -3.5878,-2.7107 -7.9728,-2.7107 h -7.9728 l 1.5246,-12.8728 c 0.8385,-7.0801 3.1958,-16.223 5.2384,-20.3175 2.1658,-4.3414 2.6318,-7.4446 1.118,-7.4446 -1.4277,0 -0.2633,-3.9534 2.5876,-8.7854 l 5.1835,-8.7853 -66.5199,-0.01 c -36.586,0 -72.52,-0.392 -79.8533,-0.8654 -7.3333,-0.4734 -13.3333,-0.6616 -13.3333,-0.4182 0,0.2433 1.8856,5.4434 4.1903,11.5555 5.355,14.2021 5.8249,66.7447 0.6803,76.088 -2.8489,5.1741 -3.5248,5.4393 -4.3108,1.6917 -0.5128,-2.4445 -2.0588,-4.4445 -3.4356,-4.4445 -1.3769,0 -1.8991,0.9778 -1.1605,2.1728 0.7386,1.1951 -1.7654,1.5823 -5.5644,0.8605 -6.1177,-1.1624 -6.5204,-0.8441 -3.5229,2.7845 1.8613,2.2533 2.9533,6.1518 2.4266,8.6634 -0.5804,2.7672 1.5885,6.311 5.5045,8.9941 3.5543,2.4353 5.0337,4.4353 3.2877,4.4445 -1.746,0.01 -3.1746,2.235 -3.1746,4.9462 0,5.789 -4.0022,9.0268 -6.3875,5.1674 -0.9124,-1.4765 -3.5628,-2.0926 -5.8897,-1.3693 -2.3269,0.7234 -5.945,0.1234 -8.0403,-1.3329 -2.9728,-2.0665 -2.558,-2.2962 1.8888,-1.0458 4.4618,1.2546 5.3691,0.7444 4.1813,-2.3511 -0.9944,-2.5912 -4.2704,-3.7791 -9.5079,-3.4476 -4.3949,0.2781 -12.1782,-0.3367 -17.2962,-1.3662 -8.3276,-1.6752 -9.1731,-1.3661 -8.0466,2.9417 1.1998,4.5881 15.142,10.5727 24.6308,10.5727 2.2824,0 4.1498,0.9352 4.1498,2.0782 0,1.143 -4.8571,1.7377 -10.7936,1.3216 -8.3892,-0.588 -9.7991,-0.1717 -6.3291,1.8688 2.4555,1.444 5.4952,1.9884 6.7549,1.2099 2.8097,-1.7365 10.3678,0.9388 10.3678,3.6698 0,1.0922 -1.4285,1.9327 -3.1746,1.8679 -7.9993,-0.2971 -12.2429,0.8769 -10.9182,3.0204 0.8071,1.3059 -6.6951,2.8566 -16.993,3.5125 -10.1409,0.6459 -29.2951,4.1482 -42.565,7.7828 -13.2698,3.6346 -30.1269,7.3542 -37.4603,8.2657 -11.2508,1.3985 -13.3928,1.0077 -13.7143,-2.5019 z m 86.7302,-39.7147 c -4.9736,-3.2142 -8.3357,-3.2142 -6.3492,0 0.8633,1.3968 3.5022,2.5222 5.8642,2.5008 3.701,-0.034 3.768,-0.3792 0.485,-2.5008 z m 57.1429,-5.0794 c 0.8632,-1.3968 0.3593,-2.5397 -1.12,-2.5397 -1.4793,0 -2.6896,1.1429 -2.6896,2.5397 0,1.3969 0.504,2.5397 1.12,2.5397 0.616,0 1.8263,-1.1428 2.6896,-2.5397 z m -16.508,-6.1993 c 0,-2.6806 -4.8739,-3.8067 -6.3236,-1.4611 -0.8773,1.4196 0.1864,2.5811 2.3642,2.5811 2.1777,0 3.9594,-0.504 3.9594,-1.12 z m 6.9312,-10.5732 c -0.8439,-0.8439 -3.0344,-0.9341 -4.8677,-0.2004 -2.026,0.8108 -1.4242,1.4126 1.5344,1.5344 2.6772,0.1102 4.1773,-0.49 3.3333,-1.3339 z m 7.5168,-14.3386 c 2.7371,-3.6639 2.9205,-9.8281 0.2645,-8.8889 -0.9875,0.3492 -3.5226,-1.6508 -5.6335,-4.4444 -3.6684,-4.8549 -3.8416,-4.8673 -3.9189,-0.28 -0.044,2.6396 1.9193,6.3176 4.3637,8.1732 2.7143,2.0604 3.2086,3.4052 1.2699,3.4546 -1.7461,0.044 -3.1746,1.2236 -3.1746,2.6204 0,3.5426 3.985,3.1721 6.8289,-0.6349 z m 13.4885,-14.6032 c 0,-1.3968 -1.1428,-2.5396 -2.5397,-2.5396 -1.3968,0 -2.5396,1.1428 -2.5396,2.5396 0,1.3969 1.1428,2.5397 2.5396,2.5397 1.3969,0 2.5397,-1.1428 2.5397,-2.5397 z m -12.6984,-5.0793 c 0,-1.3969 -1.1428,-2.5397 -2.5397,-2.5397 -1.3968,0 -2.5396,1.1428 -2.5396,2.5397 0,1.3968 1.1428,2.5397 2.5396,2.5397 1.3969,0 2.5397,-1.1429 2.5397,-2.5397 z m -126.9841,-4.7684 c 0,-3.3061 -7.4834,-8.9122 -9.3735,-7.0221 -0.8975,0.8974 -0.2985,1.6317 1.3312,1.6317 1.6296,0 2.9629,1.7143 2.9629,3.8096 0,2.0952 1.1429,3.8095 2.5397,3.8095 1.3968,0 2.5397,-1.0029 2.5397,-2.2287 z m 290.1587,-4.5327 c -1.746,-0.7045 -4.6032,-0.7045 -6.3492,0 -1.746,0.7046 -0.3174,1.281 3.1746,1.281 3.4921,0 4.9206,-0.5764 3.1746,-1.281 z m 8.254,-8.4767 c -0.8633,-1.3968 -3.2165,-2.5397 -5.2293,-2.5397 -2.0128,0 -3.6596,-1.1428 -3.6596,-2.5397 0,-1.3968 -1.1429,-2.5397 -2.5397,-2.5397 -4.3871,0 -2.7584,7.1895 1.9048,8.4081 7.9223,2.0703 11.1269,1.8048 9.5238,-0.789 z m -508.6984,-3.0476 c -2.3704,-2.3704 -3.7249,-2.3704 -6.0953,0 -2.3703,2.3703 -1.6931,3.0476 3.0477,3.0476 4.7407,0 5.4179,-0.6773 3.0476,-3.0476 z m 527.0582,-6.1059 c -0.8439,-0.8439 -3.0344,-0.9341 -4.8678,-0.2003 -2.0259,0.8107 -1.4242,1.4125 1.5344,1.5343 2.6773,0.1103 4.1773,-0.4899 3.3334,-1.3339 z m -9.5445,-3.4457 c 2.0548,-1.2995 3.0755,-3.0232 2.2683,-3.8304 -2.0006,-2.0007 -9.8138,1.1862 -9.8138,4.0029 0,2.8947 2.7967,2.8308 7.5455,-0.1724 z m -2.4661,-7.7183 c 0,-1.3968 -1.7817,-2.5396 -3.9594,-2.5396 -2.1777,0 -3.2531,1.1428 -2.3898,2.5396 0.8633,1.3969 2.645,2.5397 3.9594,2.5397 1.3144,0 2.3898,-1.1428 2.3898,-2.5397 z m 2.5397,-10.1587 c 0,-1.3968 -1.1429,-2.5397 -2.5397,-2.5397 -1.3968,0 -2.5397,1.1429 -2.5397,2.5397 0,1.3968 1.1429,2.5397 2.5397,2.5397 1.3968,0 2.5397,-1.1429 2.5397,-2.5397 z m -351.7461,-10.1587 c 0.8633,-1.3969 -0.2795,-2.5397 -2.5396,-2.5397 -2.2602,0 -3.403,1.1428 -2.5397,2.5397 0.8633,1.3968 2.0061,2.5397 2.5397,2.5397 0.5335,0 1.6764,-1.1429 2.5396,-2.5397 z m -167.619,-5.0794 c 0.8633,-1.3968 -0.2121,-2.5397 -2.3898,-2.5397 -2.1777,0 -3.9594,1.1429 -3.9594,2.5397 0,1.3968 1.0754,2.5397 2.3898,2.5397 1.3144,0 3.0961,-1.1429 3.9594,-2.5397 z m 33.5979,-4.0741 c -0.8439,-0.8439 -3.0344,-0.9341 -4.8677,-0.2004 -2.026,0.8108 -1.4242,1.4126 1.5344,1.5344 2.6772,0.1102 4.1772,-0.49 3.3333,-1.3339 z m -225.34393,-4.8148 c 0,-2.0952 -1.0754,-3.8095 -2.3898,-3.8095 -3.2025,0 -5.4961,3.9659 -3.4671,5.995 2.8601,2.8601 5.8569,1.7419 5.8569,-2.1855 z m 210.79363,-1.2698 c 0,-1.3968 -1.1428,-2.5397 -2.5397,-2.5397 -1.3968,0 -2.5396,1.1429 -2.5396,2.5397 0,1.3968 1.1428,2.5397 2.5396,2.5397 1.3969,0 2.5397,-1.1429 2.5397,-2.5397 z m -114.7519,-8.4499 c 0.6425,-5.4271 -0.2487,-6.7882 -4.4445,-6.7882 -3.8048,0 -5.248,1.6296 -5.248,5.9259 0,11.5311 8.3416,12.2733 9.6925,0.8623 z m 526.1805,5.9102 c 0,-1.3968 -1.1429,-2.5397 -2.5397,-2.5397 -1.3968,0 -2.5397,1.1429 -2.5397,2.5397 0,1.3968 1.1429,2.5397 2.5397,2.5397 1.3968,0 2.5397,-1.1429 2.5397,-2.5397 z m -286.9841,-3.9594 c 0,-2.1777 -1.1615,-3.2416 -2.5811,-2.3642 -1.4196,0.8773 -1.9236,2.6591 -1.12,3.9594 2.1771,3.5226 3.7011,2.8658 3.7011,-1.5952 z m 226.6403,-84.9295 c 1.0331,-41.2063 1.4398,-76.1273 0.9038,-77.6021 -0.8788,-2.4181 -38.5003,-8.7471 -51.9951,-8.7471 h -5.4627 l 0.6711,79.3651 0.6711,79.3651 13.9683,1.5459 c 7.6825,0.8503 19.6825,1.4218 26.6667,1.2699 l 12.6984,-0.2762 z m 83.2009,6.8868 v -69.3038 l -24.6628,-4.2649 c -19.17,-3.3151 -25.1004,-3.5762 -26.6277,-1.1725 -1.0808,1.7009 -1.9825,34.1629 -2.0039,72.1379 l -0.039,69.0455 8.254,1.0243 c 4.5396,0.5634 16.5396,1.2072 26.6666,1.4307 l 18.4127,0.4065 z m 60.9524,6.0723 v -63.2313 l -16.081,-2.8004 c -8.8446,-1.5402 -17.4161,-2.8004 -19.0477,-2.8004 -2.1862,0 -2.9665,17.3691 -2.9665,66.0317 v 66.0318 h 19.0476 19.0476 z m -279.3651,-20.6578 c 0,-64.001 -0.5876,-76.4958 -3.653,-77.6721 -3.5545,-1.3639 -72.8213,6.1018 -74.7972,8.0618 -1.4663,1.4545 -5.0648,141.7483 -3.693,143.9757 0.6452,1.0476 19.3914,1.9047 41.6582,1.9047 h 40.485 z m -91.5298,33.2847 c 1.6787,-3.1367 1.7685,-7.0071 0.2504,-10.7937 -1.324,-3.3026 -2.4548,-4.2251 -2.5667,-2.0939 -0.162,3.0871 -0.6104,3.1617 -2.3647,0.3936 -1.6068,-2.5353 -2.5783,-1.7689 -3.7684,2.9728 -3.0106,11.9952 3.3124,19.12 8.4495,9.5212 z m -15.1368,-33.3549 c 0,-2.8761 -1.1429,-4.523 -2.5397,-3.6597 -1.3968,0.8633 -2.5397,3.2165 -2.5397,5.2293 0,2.0128 1.1429,3.6596 2.5397,3.6596 1.3968,0 2.5397,-2.3531 2.5397,-5.2292 z m -244.8254,-31.8501 c -0.9039,-2.3554 -2.2148,-3.7112 -2.9132,-3.0128 -0.6985,0.6984 -0.5304,3.197 0.3735,5.5524 0.9038,2.3554 2.2148,3.7112 2.9132,3.0128 0.6984,-0.6985 0.5303,-3.197 -0.3735,-5.5524 z m 94.9841,-36.5715 c 0,-1.3968 -0.504,-2.5397 -1.12,-2.5397 -0.6159,0 -1.8262,1.1429 -2.6895,2.5397 -0.8633,1.3969 -0.3593,2.5397 1.1199,2.5397 1.4793,0 2.6896,-1.1428 2.6896,-2.5397 z m 8.2906,-9.1372 c 2.4715,-2.4715 -0.9219,-8.6406 -4.7528,-8.6406 -1.9458,0 -3.5378,1.5238 -3.5378,3.3862 0,5.625 4.8477,8.6973 8.2906,5.2544 z m 525.3306,-18.8289 c 0.8866,-6.2694 2.0417,-31.8124 2.5668,-56.7622 l 0.9549,-45.3632 -19.3913,-7.1584 -19.3912,-7.1584 -1.5067,25.855 c -0.8287,14.2202 -1.817,41.2753 -2.1961,60.1224 l -0.6894,34.2676 15.2381,4.288 c 20.8847,5.877 22.5161,5.3364 24.4149,-8.0908 z m -515.8434,3.989 c 0,-0.616 -1.1429,-1.8263 -2.5397,-2.6896 -1.3968,-0.8633 -2.5397,-0.3593 -2.5397,1.12 0,1.4792 1.1429,2.6895 2.5397,2.6895 1.3968,0 2.5397,-0.5039 2.5397,-1.1199 z m -5.9558,-12.7388 c -0.8271,-2.1554 -2.7228,-3.919 -4.2126,-3.919 -1.8783,0 -1.8396,1.624 0.126,5.2969 3.1525,5.8905 6.4491,4.779 4.0865,-1.3779 z m 89.2704,0.094 c 21.3786,-1.8958 39.5159,-4.0926 40.3051,-4.8818 0.7892,-0.7893 -0.4313,-28.0596 -2.7122,-60.6008 -2.281,-32.5412 -4.1326,-60.74157 -4.1147,-62.66757 0.041,-4.37879 -14.7572,-2.69323 -54.277,6.18243 -34.0066,7.63744 -34.1239,7.63734 -36.0499,-0.0368 -2.4242,-9.65859 -7.7595,-12.93407 -11.0507,-6.78433 -3.7557,7.01755 -3.3969,10.59127 0.8979,8.94317 7.5462,-2.89575 9.7624,9.6025 11.7314,66.158 1.0727,30.8129 2.0587,56.3092 2.191,56.6584 0.4669,1.2318 14.6224,0.4396 53.0791,-2.9707 z m 362.2394,-9.7278 c 3.8949,-29.5898 8.2035,-111.08787 5.8745,-111.11982 -0.3492,-0.005 -9.039,-3.43334 -19.3107,-7.61904 -23.4231,-9.54482 -27.519,-9.63256 -29.2369,-0.62621 -0.7327,3.84127 -1.6806,32.68017 -2.1066,64.08637 l -0.7743,57.1022 17.7778,4.2778 c 26.207,6.3062 26.1411,6.3207 27.7762,-6.1013 z m -241.1096,-5.7367 c 19.5556,-2.0249 36.5708,-3.7053 37.8116,-3.7343 2.0155,-0.047 -0.2131,-134.6383 -2.2644,-136.7551 -0.6571,-0.67812 -59.4452,14.01061 -75.5472,18.87619 -4.0749,1.23134 -4.4444,6.50255 -4.4444,63.39411 0,57.4318 0.3308,62.0455 4.4444,61.9759 2.4445,-0.041 20.4445,-1.7319 40,-3.7568 z m 164.1311,-28.1186 c 0.8752,-13.8558 2.3521,-44.2272 3.282,-67.492 l 1.6907,-42.29975 -26.0603,-10.20496 c -14.3331,-5.61272 -26.9529,-9.65325 -28.0439,-8.97897 -1.0911,0.67429 -1.9837,33.11449 -1.9837,72.08928 v 70.8634 l 10.7936,2.8266 c 5.9365,1.5546 15.9365,4.3719 22.2223,6.2605 6.2857,1.8886 12.5714,3.1401 13.9682,2.7811 1.3968,-0.3591 3.2558,-11.9894 4.1311,-25.8452 z m -348.2581,-32.8114 c 0,-8.4002 -0.9966,-11.4285 -3.7611,-11.4285 -4.6458,0 -8.4952,13.269 -4.259,14.6811 1.6174,0.5391 2.9408,2.5993 2.9408,4.5781 0,1.9789 1.1428,3.5979 2.5397,3.5979 1.3968,0 2.5396,-5.1428 2.5396,-11.4286 z m -23.3476,-38.1624 c -0.7819,-0.7819 -2.202,0.6276 -3.1558,3.1323 -1.3782,3.6195 -1.0865,3.9112 1.4218,1.4217 1.7356,-1.7228 2.5159,-3.7721 1.734,-4.554 z m 527.0893,-36.12328 c 0.8905,-9.42857 1.6272,-37.48315 1.6371,-62.34349 0.018,-45.0049 -0.01,-45.22621 -6.3537,-51.10578 -10.6932,-9.91007 -42.0853,-30.05122 -43.9439,-28.19431 -0.9613,0.96046 -2.1235,30.5089 -2.5827,65.66319 l -0.8347,63.9169 23.6919,14.39513 c 13.0306,7.91733 24.3838,14.48876 25.2295,14.60317 0.8456,0.11454 2.266,-7.50623 3.1565,-16.93481 z m -110.8957,1.42858 c -0.8107,-2.02598 -1.4125,-1.42421 -1.5343,1.5344 -0.1103,2.67723 0.4899,4.17724 1.3338,3.33333 0.844,-0.84391 0.9342,-3.03441 0.2004,-4.86773 z m -406.8142,0.47619 c -0.8633,-1.39683 -2.645,-2.53969 -3.9594,-2.53969 -1.3144,0 -2.3898,1.14286 -2.3898,2.53969 0,1.39682 1.7817,2.53968 3.9594,2.53968 2.1777,0 3.2531,-1.14286 2.3898,-2.53968 z m 394.9206,-10.74812 c 4.3934,2.7437 5.0794,2.53636 5.0794,-1.53516 0,-2.589 -2.2857,-6.7758 -5.0794,-9.30403 -2.7936,-2.52822 -5.0794,-6.80058 -5.0794,-9.49414 0,-2.84561 -1.33,-4.40973 -3.1746,-3.73336 -1.746,0.6402 -2.8285,2.6307 -2.4056,4.42334 0.423,1.79263 -0.7199,4.18634 -2.5396,5.31934 -2.6752,1.66557 -2.6968,3.04736 -0.1126,7.21686 1.8886,3.04706 2.1483,5.15685 0.635,5.15685 -1.4087,0 -2.5612,1.15254 -2.5612,2.5612 0,1.51819 2.0685,1.26941 5.0793,-0.6109 4.0614,-2.53638 6.0974,-2.53638 10.1588,0 z m -19.4703,-8.48518 c -0.7648,-1.99312 -2.3437,-3.62385 -3.5087,-3.62385 -3.4332,0 -5.5266,5.0124 -3.8826,9.29654 1.2026,3.13409 2.2917,3.33752 5.1534,0.96254 1.9957,-1.65626 3.0027,-4.64214 2.2379,-6.63523 z m 32.1687,1.45552 c 0,-1.39683 -0.5039,-2.53968 -1.1199,-2.53968 -0.616,0 -1.8263,1.14285 -2.6896,2.53968 -0.8633,1.39682 -0.3593,2.53968 1.12,2.53968 1.4792,0 2.6895,-1.14286 2.6895,-2.53968 z m 40.6349,-72.17778 v -69.6381 l -22.8975,-16.8063 c -12.5936,-9.24348 -24.5936,-17.45719 -26.6666,-18.2527 -3.2797,-1.25854 -3.7692,8.24437 -3.7692,73.18088 v 74.6272 l 16.0726,7.00199 c 8.8399,3.85107 19.9827,9.76363 24.7619,13.13899 4.7791,3.37539 9.5465,6.19309 10.5941,6.26159 1.0476,0.0686 1.9047,-31.2126 1.9047,-69.51355 z m -389.2063,51.79652 43.8095,-10.58603 -0.3278,-34.6751 c -0.1804,-19.07129 -1.0375,-51.41262 -1.9048,-71.86964 l -1.5769,-37.19454 -46.3492,14.20173 -46.3492,14.20175 v 69.51317 c 0,64.98959 0.2892,69.43121 4.4444,68.25394 2.4445,-0.69257 24.1588,-6.02296 48.254,-11.84528 z m 293.138,4.90789 c 3.7498,-2.00684 5.9532,-2.00684 7.9601,0 4.0121,4.01216 6.9214,3.40673 5.199,-1.08193 -1.2459,-3.24678 -0.3628,-3.43208 5.5833,-1.17141 9.034,3.43472 11.9003,-0.39672 9.8621,-13.18298 -1.3166,-8.26006 -0.8359,-9.41768 4.2186,-10.15873 7.6411,-1.12026 9.4722,-7.18555 2.1694,-7.18555 -6.89,0 -22.7481,-9.46133 -22.6951,-13.54047 0.02,-1.6321 1.7113,-26.96747 3.7559,-56.3008 2.0446,-29.33334 3.7415,-59.2671 3.771,-66.51945 l 0.054,-13.18613 -29.0818,-21.7345 c -15.995,-11.95401 -29.5428,-21.73453 -30.1063,-21.73453 -0.5635,0 -1.7791,22 -2.7014,48.88889 -0.9223,26.88889 -2.3942,65.11708 -3.271,84.95157 l -1.5941,36.06266 14.3297,6.33727 c 9.056,4.00497 14.3296,7.87819 14.3296,10.52429 0,2.30288 2.2857,4.78476 5.0794,5.51533 6.4626,1.69003 6.3943,2.58557 -1.3008,17.05805 -6.4005,12.03782 -6.1769,21.80338 0.2966,12.95038 2.0132,-2.75317 4.9444,-3.88175 7.5174,-2.89438 3.4221,1.3132 3.626,2.33125 1.0809,5.3979 -3.7114,4.47197 -1.6373,4.84779 5.5439,1.00452 z m -18.2174,-29.12097 c 0,-2.17768 -1.1615,-3.24155 -2.5811,-2.36419 -1.4196,0.87736 -1.9236,2.6591 -1.1199,3.95942 2.1771,3.52264 3.701,2.8658 3.701,-1.59523 z m -137.7777,-7.96714 38.7301,-9.49483 -0.034,-72.46392 c -0.02,-39.85514 -0.6849,-74.88638 -1.4795,-77.84717 l -1.4448,-5.38324 -23.2825,7.09987 c -12.8053,3.90494 -31.5681,9.51865 -41.6951,12.47492 l -18.4127,5.37506 v 74.8131 c 0,69.53687 0.3135,74.81689 4.4445,74.86705 2.4444,0.0297 21.873,-4.21869 43.1746,-9.44084 z M 989.23817,890.94935 c -2.7845,-7.98745 -8.6474,-11.82182 -11.3615,-7.43037 -1.2427,2.01086 9.7588,14.08513 13.4437,14.75448 0.2765,0.0503 -0.6604,-3.24561 -2.0822,-7.32411 z m 125.33833,-14.80678 c 1.9592,-2.41321 0.6597,-3.1746 -5.4179,-3.1746 h -7.9953 l 4.382,8.25396 c 3.7733,7.10764 4.5258,7.54852 5.4178,3.17461 0.5698,-2.79365 2.1958,-6.50794 3.6134,-8.25397 z m -133.99043,1.00218 c 3.0976,-2.26499 4.1095,-5.00086 2.9588,-7.99949 -1.6189,-4.21895 -2.2151,-4.11909 -8.0317,1.3453 -3.4556,3.24637 -6.2829,6.84614 -6.2829,7.99946 0,3.21656 6.1064,2.49316 11.3558,-1.34527 z m -2.6789,-18.50854 c 2.3333,-6.08023 0.5146,-6.54715 -3.0803,-0.79084 -1.705,2.73014 -2.0697,4.96386 -0.8105,4.96386 1.2592,0 3.0101,-1.87786 3.8908,-4.17302 z m 12.9104,1.63334 c 0.8633,-1.39682 -0.7835,-2.53968 -3.6596,-2.53968 -2.8761,0 -5.2293,1.14286 -5.2293,2.53968 0,1.39683 1.6468,2.53968 3.6596,2.53968 2.0128,0 4.366,-1.14285 5.2293,-2.53968 z m -19.0476,-10.15873 c 0,-1.39682 -1.1429,-2.53968 -2.5397,-2.53968 -1.3968,0 -2.5397,1.14286 -2.5397,2.53968 0,1.39683 1.1429,2.53968 2.5397,2.53968 1.3968,0 2.5397,-1.14285 2.5397,-2.53968 z m 43.17463,-31.95766 c 0,-4.4849 -5.4673,-3.70385 -7.037,1.00528 -0.553,1.65872 0.8042,3.01587 3.0158,3.01587 2.2117,0 4.0212,-1.80952 4.0212,-4.02115 z m 640,-100.77024 v -61.61681 l -19.6826,-21.40077 -19.6825,-21.40078 -1.319,58.25567 c -1.2932,57.11573 -3.0234,70.0991 -8.1263,60.98065 -1.8838,-3.36602 -3.1607,-3.6396 -5.9978,-1.28501 -1.9825,1.64534 -3.6045,2.11325 -3.6045,1.03983 0,-4.66345 -13.0627,12.67487 -14.3325,19.02369 -1.5517,7.75886 -0.532,8.28292 22.6177,11.62316 6.6521,0.95985 12.7195,2.75614 13.4832,3.9918 2.1911,3.54527 6.1681,2.61895 6.1681,-1.4367 0,-2.02583 -1.8611,-4.72482 -4.1357,-5.99776 -2.2746,-1.27294 -3.0838,-2.9645 -1.7982,-3.75901 1.2855,-0.79452 9.718,4.10484 18.7388,10.88746 9.0208,6.78266 16.6871,12.41743 17.0364,12.52173 0.3492,0.10438 0.6349,-27.53793 0.6349,-61.42715 z m -606.7233,41.15561 c 22.9042,-8.46002 42.8772,-16.74573 44.3845,-18.4127 1.9031,-2.10484 2.1586,-18.16239 0.8359,-52.55469 -1.0475,-27.2381 -1.2997,-52.09524 -0.5604,-55.2381 1.5452,-6.5694 6.3724,-7.42306 10.929,-1.93272 3.5613,4.29117 7.6422,2.83631 7.6422,-2.72447 0,-2.04737 -2.8571,-4.80879 -6.3492,-6.13646 -3.4921,-1.32767 -6.3492,-3.58512 -6.3492,-5.01651 0,-1.43139 -1.6925,-2.60254 -3.7611,-2.60254 -3.4244,0 -4.8078,-3.15063 -6.9337,-15.79203 -0.6098,-3.62615 -8.4584,-0.67108 -46.4481,17.48793 -25.1428,12.01826 -45.97023,22.04726 -46.28293,22.28668 -0.9741,0.7455 4.4128,119.04666 5.81773,127.76346 0.7317,4.53968 2.2531,8.25396 3.3809,8.25396 1.1278,0 20.7903,-6.92182 43.6944,-15.38181 z m 539.7234,-24.8001 c 3.6456,-5.56392 4.7409,-17.45903 6.7825,-73.6588 l 2.4347,-67.02332 -25.0769,-25.19182 -25.0769,-25.19182 -1.6205,23.56033 c -0.8913,12.9582 -1.7484,45.96853 -1.9048,73.35634 l -0.2843,49.79597 19.0477,15.63332 c 19.4291,15.94639 21.8189,20.57973 15.1573,29.38712 -5.0501,6.6768 -4.6876,8.81362 1.2323,7.26553 2.7286,-0.71355 6.9176,-4.28333 9.3089,-7.93285 z m -315.9842,-18.73872 c -2.3704,-2.37036 -3.7249,-2.37036 -6.0953,0 -2.3703,2.37036 -1.6931,3.04762 3.0476,3.04762 4.7408,0 5.418,-0.67726 3.0477,-3.04762 z m 43.9365,-17.26984 c 0.8632,-1.39683 0.7878,-3.80455 -0.1677,-5.35051 -1.7069,-2.76193 -6.0505,1.47046 -6.1427,5.98543 -0.057,2.78384 4.4795,2.32741 6.3103,-0.63492 z m 76.9523,-0.50794 c 5.561,-5.56099 3.1563,-7.29775 -4.5714,-3.30159 -4.1905,2.16699 -7.619,4.48203 -7.619,5.14459 0,2.48548 9.2623,1.08518 12.1904,-1.843 z m -87.1111,-9.65079 c 0.8633,-1.39683 -0.1447,-2.53969 -2.2399,-2.53969 -2.0952,0 -4.5158,1.14286 -5.3791,2.53969 -0.8633,1.39682 0.1447,2.53968 2.2399,2.53968 2.0952,0 4.5158,-1.14286 5.3791,-2.53968 z m 115.5556,-5.07937 c 0,-2.79365 -1.0096,-5.07936 -2.2435,-5.07936 -1.2339,0 -2.8412,2.28571 -3.5718,5.07936 -0.8632,3.30123 -0.078,5.07937 2.2435,5.07937 1.9645,0 3.5718,-2.28572 3.5718,-5.07937 z m -73.9762,-7.87388 c -7.1828,-4.55002 -11.2002,-2.24673 -4.754,2.72559 3.7934,2.92607 6.7294,3.80741 7.2937,2.18948 0.5195,-1.48939 -0.6234,-3.70118 -2.5397,-4.91507 z m 81.5952,-8.78395 c 0,-2.17767 -1.1428,-3.25308 -2.5397,-2.38979 -1.3968,0.86329 -2.5396,2.64503 -2.5396,3.95942 0,1.31438 1.1428,2.38979 2.5396,2.38979 1.3969,0 2.5397,-1.78174 2.5397,-3.95942 z m -24.127,-11.27868 c 0,-3.25925 -1.2666,-6.34814 -2.8147,-6.86418 -1.6833,-0.56109 -2.7042,2.15863 -2.5397,6.76605 0.3179,8.90232 5.3544,8.99464 5.3544,0.0981 z m 110.5954,3.17461 c 0.065,-2.44445 1.6183,-35.30159 3.4506,-73.01588 l 3.3315,-68.57143 -7.0799,-8.88889 c -3.894,-4.88889 -18.9855,-20.69351 -33.5367,-35.1214 l -26.4568,-26.23251 -1.7147,22.3069 c -1.0119,13.16498 -2.9932,23.10334 -4.8345,24.25026 -2.4438,1.52219 -2.3846,3.12927 0.2731,7.41547 4.112,6.63167 4.5344,57.61257 0.5107,61.63629 -1.8187,1.81872 -2.6339,0.41544 -2.6339,-4.53422 0,-6.08371 -0.5763,-6.68983 -3.8095,-4.0065 -2.0953,1.73889 -3.8095,5.3074 -3.8095,7.93 0,2.81037 -1.7878,4.76841 -4.3538,4.76841 -4.096,0 -4.0936,0.26012 0.041,4.39479 3.6376,3.63764 5.2568,3.85641 9.3986,1.26985 2.7521,-1.71873 5.4196,-3.12496 5.9279,-3.12496 0.5081,0 1.6729,10.55188 2.5884,23.44864 1.3942,19.64198 2.5898,24.35634 7.3644,29.04005 8.0091,7.85658 51.0138,41.21582 53.3191,41.36026 1.0476,0.0655 1.9583,-1.88069 2.0238,-4.32513 z m -246.4684,-9.52381 c 0,-4.03612 -8.9201,-5.32851 -11.2096,-1.62408 -1.8755,3.03459 1.018,5.4336 6.5536,5.4336 2.5608,0 4.656,-1.71429 4.656,-3.80952 z m 161.5696,-4.29456 c 1.0282,-1.66359 0.5242,-3.47311 -1.1199,-4.02118 -1.6442,-0.54804 -2.9894,-2.47555 -2.9894,-4.28335 0,-1.8078 -1.8379,-4.81227 -4.0843,-6.67662 -3.4702,-2.88003 -4.6158,-2.66286 -7.619,1.44429 -4.965,6.78997 -4.395,11.48221 1.3947,11.48221 2.7112,0 5.6358,1.14286 6.4991,2.53968 2.114,3.4205 5.6385,3.20462 7.9188,-0.48503 z m -31.0428,-9.03878 c -3.1096,-13.29475 -13.7014,-17.659 -13.7014,-5.64551 0,3.71573 9.3904,11.74504 14.6516,12.52795 0.3758,0.0559 -0.052,-3.04117 -0.9502,-6.88244 z M 991.61117,624.2378 c 0.635,-1.90476 -0.3174,-2.85714 -2.2222,-2.22222 -1.8333,0.6111 -3.8333,2.6111 -4.4444,4.44444 -0.6349,1.90477 0.3174,2.85715 2.2222,2.22223 1.8333,-0.61113 3.8333,-2.61113 4.4444,-4.44445 z m 447.46043,-8.8399 c 0,-3.37783 0.7447,-8.08221 1.6549,-10.45419 1.4059,-3.6636 0.8775,-3.89661 -3.5107,-1.54809 -6.6717,3.57056 -9.1692,10.23042 -5.4961,14.65615 4.3755,5.27218 7.3519,4.19779 7.3519,-2.65387 z m -24.127,1.06212 c 0.8633,-1.39682 0.3593,-2.53968 -1.12,-2.53968 -1.4792,0 -2.6895,1.14286 -2.6895,2.53968 0,1.39683 0.5039,2.53969 1.1199,2.53969 0.616,0 1.8263,-1.14286 2.6896,-2.53969 z m -299.4672,-5.42783 c 2.0805,-3.36625 -9.0787,-12.6655 -12.5926,-10.49379 -1.2983,0.80236 -0.4731,2.83898 1.8338,4.52579 2.3068,1.6868 4.1942,4.3695 4.1942,5.96152 0,3.73745 4.2561,3.74164 6.5646,0.008 z m -112.0955,-7.48749 c -0.8177,-1.3231 -2.5692,-1.73659 -3.89233,-0.91886 -1.3231,0.8177 -1.7366,2.56927 -0.9189,3.89237 0.8177,1.3231 2.56933,1.73658 3.89243,0.91885 1.3231,-0.8177 1.7366,-2.56927 0.9188,-3.89236 z m 407.7532,0.21691 c 0,-1.39683 -1.1429,-2.53968 -2.5397,-2.53968 -1.3969,0 -2.5397,1.14285 -2.5397,2.53968 0,1.39683 1.1428,2.53968 2.5397,2.53968 1.3968,0 2.5397,-1.14285 2.5397,-2.53968 z M 1080.326,566.39496 c 1.3112,-3.99503 -11.6074,-7.26454 -15.0604,-3.81156 -1.4522,1.45222 -1.832,3.94832 -0.844,5.54692 2.2829,3.69377 14.5622,2.35396 15.9044,-1.73536 z m 346.0471,-36.28415 c 0,-1.39682 -0.5039,-2.53968 -1.1199,-2.53968 -0.616,0 -1.8263,1.14286 -2.6896,2.53968 -0.8633,1.39683 -0.3593,2.53969 1.12,2.53969 1.4792,0 2.6895,-1.14286 2.6895,-2.53969 z m -5.0793,-8.88888 c 0,-2.09524 -1.107,-3.80953 -2.46,-3.80953 -1.353,0 -1.8021,1.71429 -0.9981,3.80953 0.804,2.09523 1.911,3.80952 2.46,3.80952 0.5489,0 0.9981,-1.71429 0.9981,-3.80952 z m -11.003,-30.28481 c -2.1686,-4.59537 -3.727,-5.47649 -6.1416,-3.47258 -3.7288,3.09468 0.1991,9.6304 5.788,9.6304 2.5558,0 2.6322,-1.32957 0.3536,-6.15782 z m 30.6047,-18.36419 c 7.0989,-8.26158 7.1961,-10.10501 0.7157,-13.57323 -4.0541,-2.16967 -5.0793,-1.9314 -5.0793,1.1805 0,2.14438 -1.7143,3.89887 -3.8095,3.89887 -4.2013,0 -4.461,1.11992 -2.2088,9.52381 1.9626,7.3237 3.3195,7.1891 10.3819,-1.02995 z m -42.4589,-8.41417 c 0,-3.40071 -1.2183,-4.53214 -3.8095,-3.5378 -4.0744,1.5635 -4.8592,4.10156 -2.1164,6.84434 3.2033,3.20325 5.9259,1.68407 5.9259,-3.30654 z m 68.0635,-38.68287 c 1.6762,-1.67619 3.0096,-6.53333 2.9632,-10.79365 l -0.085,-7.74603 -4.9949,5.99563 c -7.8788,9.45747 -5.9905,20.65077 2.1163,12.54405 z M 1291.775,1491.042 c 0,-1.5831 2.5664,-3.5675 5.7093,-4.4098 8.6545,-2.3193 9.5238,-2.0111 9.5238,3.3764 0,3.9547 -1.5641,4.8677 -7.614,4.4444 -4.1877,-0.2929 -7.6163,-1.8279 -7.6191,-3.411 z m 513.0108,-2.9854 c 0,-6.0403 1.1321,-8.0946 4.4445,-8.0656 3.4782,0.03 3.6918,0.5158 0.9825,2.2323 -2.0656,1.3086 -2.3933,2.5734 -0.8125,3.1357 1.6674,0.593 1.3032,2.7699 -0.9824,5.8722 -3.4208,4.643 -3.6321,4.4583 -3.6321,-3.1746 z m -699.0476,-9.7865 c 1.7461,-0.7045 3.1746,-3.3876 3.1746,-5.9625 0,-2.5748 1.4286,-5.1701 3.1746,-5.7672 1.7461,-0.5972 0.8481,-0.7207 -1.9954,-0.2745 -3.4044,0.5343 -5.3023,-0.6763 -5.5573,-3.5448 -1.0021,-11.2747 -2.7232,-22.8938 -4.5599,-30.7829 -1.5601,-6.7012 -1.2884,-8.2007 1.2065,-6.6588 1.8767,1.1599 4.1611,0.53 5.4758,-1.5098 1.8922,-2.936 2.6588,-2.8861 4.7565,0.3095 1.753,2.6704 2.5124,2.8364 2.5397,0.5552 0.02,-1.7899 -1.6024,-3.8841 -3.6085,-4.6539 -2.3924,-0.9181 -3.6067,-5.0418 -3.529,-11.9838 0.1542,-13.7628 1.1906,-15.1047 8.1465,-10.547 3.1815,2.0846 6.7337,2.929 7.8938,1.8765 1.16,-1.0525 1.2114,-0.3627 0.114,1.533 -1.4947,2.5822 -0.7312,3.0456 3.0438,1.8475 3.2635,-1.0359 6.2837,-0.013 8.572,2.9025 3.0837,3.9291 3.0485,4.1317 -0.2764,1.5932 -2.3702,-1.8096 -7.6476,-2.2594 -13.9682,-1.1906 -7.6696,1.2969 -9.0203,2.1646 -5.5125,3.5412 2.5554,1.0028 7.23,1.1748 10.3879,0.3822 4.3784,-1.0989 6.8478,0.2583 10.4005,5.7165 2.8941,4.4464 3.2883,6.0941 1.0406,4.3499 -6.2224,-4.8288 -14.6054,-5.8148 -16.1097,-1.8948 -1.7688,4.6093 5.9904,7.7879 8.6209,3.5316 1.0813,-1.7494 2.5288,-2.2017 3.2167,-1.0049 2.1387,3.7203 1.6998,18.6838 -0.5479,18.6838 -1.1727,0 -1.5091,2.3823 -0.7477,5.294 0.7615,2.9118 2.083,4.1985 2.9369,2.8595 0.9162,-1.4369 3.8941,-1.5585 7.2667,-0.2966 5.0581,1.8926 5.7142,3.8974 5.7142,17.4581 v 15.3199 l -22.2222,-0.2004 c -12.2222,-0.1102 -20.7936,-0.7769 -19.0476,-1.4814 z m 12.8499,-30.6989 c -1.0309,-5.3533 -5.5383,-5.0157 -6.6869,0.5007 -0.4791,2.3009 0.9209,3.9437 3.3608,3.9437 2.6158,0 3.8614,-1.6645 3.3261,-4.4444 z m 5.5628,-12.0635 c 0,-2.0953 -1.1428,-3.8096 -2.5397,-3.8096 -1.3968,0 -2.5396,1.7143 -2.5396,3.8096 0,2.0952 1.1428,3.8095 2.5396,3.8095 1.3969,0 2.5397,-1.7143 2.5397,-3.8095 z m 170.1588,42.1125 c 0,-5.2102 3.2932,-10.3665 6.6209,-10.3665 2.0805,0 3.5378,2.6153 3.5378,6.3492 0,4.6561 -1.3545,6.3492 -5.0794,6.3492 -2.7936,0 -5.0793,-1.0494 -5.0793,-2.3319 z m 23.492,0.4484 c -3.846,-1.3077 -4.2836,-13.3546 -0.485,-13.3546 1.4793,0 1.883,-1.4286 0.8972,-3.1746 -1.3434,-2.3796 -1.0166,-2.4605 1.305,-0.3229 4.0447,3.724 2.5589,18.306 -1.7172,16.8521 z m 192.7476,-2.0015 c -2.3785,-2.8284 -3.4426,-11.6939 -3.4419,-28.676 0,-43.9009 1.1605,-66.4866 3.4104,-66.4866 1.2125,0 2.2046,1.3333 2.2046,2.963 0,1.6296 0.5983,2.3646 1.3296,1.6333 2.4388,-2.4388 -1.9385,-9.9855 -5.0903,-8.776 -1.9459,0.7467 -4.0083,-2.7546 -5.524,-9.3778 l -2.4188,-10.5695 45.8517,0.4184 c 76.4548,0.6977 70.7765,0.2595 68.6129,5.2959 -1.0502,2.4444 -2.601,9.0009 -3.4464,14.5699 -1.1386,7.5012 -2.8534,10.3371 -6.6163,10.9423 -11.4501,1.8415 -12.3938,2.8626 -7.5712,8.1915 2.5019,2.7646 6.5505,5.0265 8.9969,5.0265 3.1892,0 4.0742,1.4293 3.1271,5.0507 -0.7264,2.778 -2.3425,4.4194 -3.5912,3.6476 -2.9076,-1.7969 -7.7768,3.3206 -11.7957,12.3972 -1.7357,3.9201 -4.2807,6.4322 -5.6556,5.5824 -1.4275,-0.8823 -1.851,0.1455 -0.9873,2.3965 0.9802,2.5545 0.076,3.9414 -2.5688,3.9414 -2.2447,0 -4.0812,1.7143 -4.0812,3.8096 0,2.0952 -1.4817,3.8095 -3.2926,3.8095 -2.8369,0 -3.6569,6.2264 -2.1143,16.0548 0.1801,1.1475 3.1225,1.7202 6.5385,1.2725 4.3311,-0.5675 8.9434,1.8344 15.2381,7.9355 4.9649,4.8122 9.0271,9.6681 9.0271,10.7909 0,1.1229 -6.2639,2.0415 -13.9199,2.0415 -12.3021,0 -14.0925,-0.6641 -15.4052,-5.7143 -0.8169,-3.1428 -4.1679,-7.6926 -7.4465,-10.1106 -5.8434,-4.3096 -6.1207,-4.2147 -14.036,4.8003 -7.499,8.5409 -9.2807,9.2694 -24.9828,10.2152 -13.323,0.8025 -17.638,0.1503 -20.3509,-3.0756 z m 42.808,-13.8928 c 0,-1.3968 -1.1429,-2.5396 -2.5397,-2.5396 -1.3968,0 -2.5397,1.1428 -2.5397,2.5396 0,1.3969 1.1429,2.5397 2.5397,2.5397 1.3968,0 2.5397,-1.1428 2.5397,-2.5397 z m -17.7778,-0.9981 c 0,-0.549 -1.7143,-1.6559 -3.8095,-2.46 -2.0953,-0.804 -3.8096,-0.3548 -3.8096,0.9982 0,1.3529 1.7143,2.4599 3.8096,2.4599 2.0952,0 3.8095,-0.4491 3.8095,-0.9981 z m 6.8579,-7.2558 c 1.1171,-1.7461 3.4596,-3.2889 5.2056,-3.4286 10.772,-0.8618 11.1423,-1.1475 10.3683,-8 -0.5104,-4.5181 0.3222,-6.76 2.3579,-6.3492 1.7307,0.3492 3.1468,-1.0695 3.1468,-3.1526 0,-2.0832 4,-9.0279 8.8889,-15.4327 5.4761,-7.174 8.8889,-14.4956 8.8889,-19.0696 0,-6.5754 -0.8815,-7.4245 -7.7084,-7.4245 -6.8341,0 -7.4102,-0.5572 -5.0794,-4.9124 3.5328,-6.601 3.5316,-6.6034 -3.7202,-7.2036 -5.0795,-0.4204 -6.3492,0.6392 -6.3492,5.2987 0,5.0357 -1.4249,5.9083 -10.5247,6.4453 -8.5003,0.5015 -11.9199,-0.7156 -17.7778,-6.3279 -6.9987,-6.7051 -10.6999,-4.7415 -3.9093,2.0741 8.2391,8.2693 12.2374,17.0184 9.8704,21.5984 -3.4031,6.5846 -5.4026,28.5609 -2.7479,30.2016 1.2277,0.7588 2.2322,5.3121 2.2322,10.1186 0,8.839 3.1354,11.383 6.8579,5.5644 z m -18.2865,-52.6984 c -1.2287,-1.9882 -2.6897,-2.1357 -4.3828,-0.4426 -1.3968,1.3968 -1.7103,3.8817 -0.6965,5.5219 1.2287,1.9882 2.6897,2.1357 4.3828,0.4426 1.3968,-1.3968 1.7102,-3.8817 0.6965,-5.5219 z m 74.9207,2.8114 c 0,-2.2912 -5.9851,-5.3511 -10.4666,-5.3511 -3.6035,0 3.579,7.4094 7.292,7.5224 1.746,0.053 3.1746,-0.924 3.1746,-2.1713 z m -10.9636,-13.4464 c -0.8107,-2.0259 -1.4125,-1.4242 -1.5343,1.5344 -0.1103,2.6773 0.4899,4.1773 1.3338,3.3334 0.844,-0.8439 0.9342,-3.0344 0.2004,-4.8678 z m -13.4269,-18.8006 c 1.8837,-4.9089 -0.1324,-8.6597 -4.6548,-8.6597 -4.5665,0 -9.8659,6.7838 -7.8489,10.0475 2.5117,4.064 10.7631,3.1482 12.5037,-1.3878 z m 16.7714,-1.0406 c 0,-1.3969 -1.1428,-2.5397 -2.5397,-2.5397 -1.3968,0 -2.5397,1.1428 -2.5397,2.5397 0,1.3968 1.1429,2.5396 2.5397,2.5396 1.3969,0 2.5397,-1.1428 2.5397,-2.5396 z m -7.619,-2.5397 c 0,-1.3968 -1.2103,-2.5397 -2.6896,-2.5397 -1.4793,0 -1.9832,1.1429 -1.12,2.5397 0.8633,1.3968 2.0736,2.5397 2.6896,2.5397 0.616,0 1.12,-1.1429 1.12,-2.5397 z m 21.5873,-5.0794 c -1.2288,-1.9881 -2.6897,-2.1357 -4.3829,-0.4425 -1.3968,1.3968 -1.7102,3.8816 -0.6965,5.5219 1.2287,1.9881 2.6897,2.1357 4.3828,0.4425 1.3969,-1.3968 1.7103,-3.8816 0.6966,-5.5219 z m 212.8368,101.9289 c 0.1138,-7.5407 1.4626,-13.3546 3.2581,-14.0436 5.0733,-1.9468 5.7287,12.9158 0.8945,20.2851 l -4.3467,6.6262 0.194,-12.8677 z m -13.4329,7.9124 c 0.02,-1.0476 1.1468,-3.6191 2.5008,-5.7143 1.9908,-3.0805 2.4694,-2.716 2.5008,1.9048 0.02,3.1428 -1.1039,5.7143 -2.5008,5.7143 -1.3968,0 -2.5222,-0.8572 -2.5008,-1.9048 z m -812.73733,-3.3245 c 0,-1.4793 1.1429,-1.9832 2.5397,-1.12 1.3968,0.8633 2.5397,2.0736 2.5397,2.6896 0,0.616 -1.1429,1.12 -2.5397,1.12 -1.3968,0 -2.5397,-1.2103 -2.5397,-2.6896 z m 619.88113,-10.6861 c -2.6883,-7.1048 -1.8114,-8.1237 4.0554,-4.7121 3.5924,2.0889 3.778,2.7527 0.8254,2.951 -2.6237,0.176 -2.2862,0.8524 1.0842,2.1728 4.4569,1.7459 4.5049,2.0662 0.5374,3.5887 -3.0707,1.1783 -4.9896,0 -6.5024,-4.0004 z m -725.75703,-3.7672 c -0.1638,-2.4444 -1.1135,-7.0159 -2.1103,-10.1587 -1.1778,-3.7134 -0.767,-5.7143 1.1733,-5.7143 1.6422,0 2.2794,1.1429 1.4162,2.5397 -0.8633,1.3968 -0.2641,2.5397 1.3316,2.5397 3.5012,0 2.0083,-5.6592 -1.8305,-6.9388 -1.4966,-0.4989 -4.4864,0.8583 -6.644,3.0159 -2.1576,2.1576 -5.1474,3.9229 -6.644,3.9229 -1.4966,0 -2.7211,1.7142 -2.7211,3.8095 0,2.0952 1.7143,3.8095 3.8095,3.8095 2.0953,0 3.8096,1.1429 3.8096,2.5397 0,1.4783 -8.36691,2.5397 -20.02128,2.5397 -18.28701,0 -20.14367,-0.4682 -21.43459,-5.4046 -1.10121,-4.2111 -2.8493,-5.1302 -7.91525,-4.1618 -7.34718,1.4045 -8.26139,-1.8621 -2.61163,-9.3317 4.89384,-6.4703 4.84777,-12.5509 -0.0808,-10.6597 -3.10003,1.1896 -3.80952,-1.1247 -3.80952,-12.4267 0,-13.1213 0.35073,-13.8885 6.34921,-13.8885 5.12381,0 6.3492,-1.2585 6.3492,-6.5204 0,-5.3577 -0.90283,-6.2338 -5.06339,-4.9133 -3.77722,1.1989 -4.69968,0.6593 -3.63154,-2.1243 0.78753,-2.0522 -0.2527,-8.6983 -2.31172,-14.7692 -3.55083,-10.4696 -3.485,-11.1353 1.27804,-12.9297 2.76188,-1.0405 18.08148,-1.6119 34.04356,-1.2698 15.96211,0.342 29.30691,-0.109 29.65511,-1.0022 0.3482,-0.8932 6.6331,-0.3818 13.9664,1.1365 10.9264,2.2622 13.3334,3.7141 13.3334,8.0431 0,2.9054 1.5455,7.5369 3.4345,10.2921 1.889,2.7552 4.1882,9.8667 5.1094,15.8032 l 1.6748,10.7936 h -10.3701 c -10.7704,0 -17.5278,-4.1052 -15.7141,-9.5465 0.5779,-1.7335 2.6697,-3.1519 4.6485,-3.1519 1.9789,0 3.5979,-1.2761 3.5979,-2.8359 0,-1.7821 -2.1232,-2.1657 -5.7143,-1.0324 -14.8462,4.6856 -19.1435,4.4881 -20.8725,-0.9596 -2.1361,-6.7303 -5.6066,-6.8436 -7.6989,-0.2514 -1.2866,4.0536 -3.8426,5.0793 -12.65788,5.0793 -6.54799,0 -11.5005,-1.2927 -12.16242,-3.1746 -0.61414,-1.746 -0.56993,2.7635 0.0983,10.021 1.63825,17.7942 -0.60777,25.6254 -7.6371,26.6283 -6.49466,0.9267 -9.21456,9.2782 -4.08117,12.5313 6.01605,3.8126 12.31337,2.5236 12.31337,-2.5204 0,-2.6226 1.71428,-6.1911 3.80952,-7.93 2.15701,-1.7902 3.80953,-2.0523 3.80953,-0.6044 0,1.6157 10.67421,2.2516 28.99075,1.7272 25.3592,-0.7261 29.1996,-0.2917 30.6576,3.468 1.5223,3.9253 1.9791,3.8737 5.2687,-0.5959 5.1597,-7.0106 7.2803,-3.2188 2.888,5.1641 -2.9023,5.5393 -5.5549,7.0987 -12.2622,7.2086 -6.8245,0.112 -8.7194,1.2697 -9.3519,5.7142 -0.4791,3.3668 -2.1092,5.0688 -4.1167,4.2985 -1.828,-0.7015 -4.0066,0.5046 -4.8414,2.6801 -2.0606,5.3697 -8.1366,5.0204 -8.5057,-0.489 z m -7.1399,-20.9524 c 0.8633,-1.3968 0.3593,-2.5397 -1.1199,-2.5397 -1.4793,0 -2.6896,1.1429 -2.6896,2.5397 0,1.3969 0.504,2.5397 1.1199,2.5397 0.616,0 1.8263,-1.1428 2.6896,-2.5397 z m 34.2857,0.1499 c 0,-1.3144 -1.1428,-3.0962 -2.5397,-3.9594 -1.3968,-0.8633 -2.5396,0.212 -2.5396,2.3897 0,2.1777 1.1428,3.9595 2.5396,3.9595 1.3969,0 2.5397,-1.0754 2.5397,-2.3898 z m -83.80949,-23.007 c 0,-1.3968 -1.14286,-2.5397 -2.53968,-2.5397 -1.39683,0 -2.53969,1.1429 -2.53969,2.5397 0,1.3968 1.14286,2.5397 2.53969,2.5397 1.39682,0 2.53968,-1.1429 2.53968,-2.5397 z m 10.15873,-3.8095 c 0,-2.0953 -1.71429,-3.8096 -3.80953,-3.8096 -2.09523,0 -3.80952,1.7143 -3.80952,3.8096 0,2.0952 1.71429,3.8095 3.80952,3.8095 2.09524,0 3.80953,-1.7143 3.80953,-3.8095 z m 78.99376,-12.1809 c -3.2596,-3.2596 -6.5652,-0.7403 -4.152,3.1644 0.9348,1.5126 2.8631,2.031 4.2852,1.1522 1.7346,-1.0721 1.6908,-2.4926 -0.1331,-4.3166 z m 2.2761,-11.9461 c 0,-1.3968 -0.504,-2.5397 -1.12,-2.5397 -0.616,0 -1.8263,1.1429 -2.6896,2.5397 -0.8632,1.3968 -0.3593,2.5397 1.12,2.5397 1.4793,0 2.6896,-1.1429 2.6896,-2.5397 z m -79.73546,-6.9312 c -2.58164,-2.5817 -4.71175,1.3051 -2.59358,4.7323 1.60008,2.589 2.1983,2.5911 3.05854,0.01 0.58819,-1.7645 0.37895,-3.8987 -0.46496,-4.7426 z m 21.32274,4.3915 c 0,-1.3968 -1.14286,-2.5397 -2.53968,-2.5397 -1.39683,0 -2.53968,1.1429 -2.53968,2.5397 0,1.3968 1.14285,2.5397 2.53968,2.5397 1.39682,0 2.53968,-1.1429 2.53968,-2.5397 z m 10.15872,0 c 0,-1.3968 -1.1429,-2.5397 -2.5397,-2.5397 -1.3968,0 -2.53965,1.1429 -2.53965,2.5397 0,1.3968 1.14285,2.5397 2.53965,2.5397 1.3968,0 2.5397,-1.1429 2.5397,-2.5397 z m 25.3968,-2.5397 c 0,-1.3968 -1.7143,-2.5397 -3.8095,-2.5397 -2.0952,0 -3.8095,1.1429 -3.8095,2.5397 0,1.3968 1.7143,2.5397 3.8095,2.5397 2.0952,0 3.8095,-1.1429 3.8095,-2.5397 z m -33.01584,-6.4991 c 0,-2.1777 -1.14285,-3.2531 -2.53968,-2.3898 -1.39683,0.8633 -2.53968,2.6451 -2.53968,3.9594 0,1.3144 1.14285,2.3898 2.53968,2.3898 1.39683,0 2.53968,-1.7817 2.53968,-3.9594 z m 12.69844,-1.1199 c 0,-1.3969 -1.1429,-2.5397 -2.5397,-2.5397 -1.3968,0 -2.5397,1.1428 -2.5397,2.5397 0,1.3968 1.1429,2.5396 2.5397,2.5396 1.3968,0 2.5397,-1.1428 2.5397,-2.5396 z m -48.25399,-6.4991 c 0,-2.1777 -1.14286,-3.2531 -2.53968,-2.3898 -1.39683,0.8633 -2.53969,2.645 -2.53969,3.9594 0,1.3144 1.14286,2.3898 2.53969,2.3898 1.39682,0 2.53968,-1.7818 2.53968,-3.9594 z m 266.47232,92.2134 c -1.6083,-5.2551 -1.4205,-9.5239 0.419,-9.5239 1.2733,0 2.315,2.2858 2.315,5.0794 0,4.0832 -1.8995,7.1711 -2.734,4.4445 z m 216.0673,-4.4445 c -2.289,-1.4793 -2.6022,-2.4774 -0.7848,-2.5008 1.6636,-0.02 3.7311,1.104 4.5944,2.5008 1.9487,3.1531 1.0695,3.1531 -3.8096,0 z m 318.7046,-0.041 c -0.8774,-1.4196 -2.8357,-1.8144 -4.3518,-0.8774 -1.5471,0.9561 -2.0337,0.5339 -1.109,-0.9623 0.9063,-1.4663 -0.06,-3.3213 -2.1472,-4.1222 -2.0872,-0.801 -3.795,-3.6827 -3.795,-6.4038 0,-2.721 -1.4286,-5.4671 -3.1746,-6.1024 -5.0964,-1.8541 1.3899,-10.5719 8.5101,-11.4379 5.373,-0.6536 6.152,0.3467 6.592,8.4647 0.2743,5.0632 1.7584,10.7235 3.2979,12.5785 1.9673,2.3704 1.9954,3.8693 0.095,5.0441 -1.4874,0.9193 -2.0469,2.7353 -1.2433,4.0356 0.8037,1.3003 0.8897,2.3642 0.1913,2.3642 -0.6985,0 -1.9877,-1.1615 -2.8651,-2.5811 z m 1.2954,-6.0116 c 0,-1.9323 -2.3909,-4.1385 -5.3131,-4.9027 -5.0983,-1.3333 -5.1338,-1.1912 -0.8762,3.5133 5.2786,5.8328 6.1893,6.0373 6.1893,1.3894 z m 200.635,0.9736 c 0,-1.3968 1.1428,-2.5396 2.5396,-2.5396 1.3969,0 2.5397,1.1428 2.5397,2.5396 0,1.3969 -1.1428,2.5397 -2.5397,2.5397 -1.3968,0 -2.5396,-1.1428 -2.5396,-2.5397 z m 3.8095,-7.619 c 0.8633,-1.3968 2.645,-2.5397 3.9594,-2.5397 1.3144,0 2.3898,1.1429 2.3898,2.5397 0,1.3968 -1.7818,2.5397 -3.9594,2.5397 -2.1777,0 -3.2531,-1.1429 -2.3898,-2.5397 z m -517.115,-3.1746 c -1.7179,-3.7667 -1.3901,-14.6032 0.4417,-14.6032 1.3132,0 2.3876,3.4286 2.3876,7.6191 0,6.2302 -1.4927,9.9148 -2.8293,6.9841 z m 514.5933,-4.4154 c -0.8898,-1.4396 0.1298,-1.8654 2.3898,-0.9981 4.3998,1.6884 5.2048,3.5087 1.5516,3.5087 -1.3144,0 -3.088,-1.1297 -3.9414,-2.5106 z m -845.30903,-1.7222 c -2.5074,-2.5073 -2.0553,-16.0846 0.5356,-16.0846 4.5806,0 7.3271,6.3965 5.1797,12.0635 -2.3219,6.1273 -3.0775,6.6589 -5.7153,4.0211 z m 860.55523,-8.4234 c -1.1046,-1.7871 -0.4644,-4.0659 1.4797,-5.2674 4.6259,-2.8589 5.826,-1.1589 2.888,4.091 -1.8119,3.2377 -2.9109,3.5336 -4.3677,1.1764 z m -223.0949,-4.275 c -2.3421,-2.3421 -2.1236,-5.9259 0.3612,-5.9259 1.1298,0 4.2727,1.6779 6.9841,3.7287 4.8435,3.6635 4.8372,3.7302 -0.3612,3.8096 -2.91,0.044 -6.0529,-0.6812 -6.9841,-1.6124 z m 3.3862,-8.4656 c -3.283,-2.1216 -3.2159,-2.4673 0.4851,-2.5008 2.362,-0.02 5.0009,1.104 5.8642,2.5008 1.9864,3.2142 -1.3756,3.2142 -6.3493,0 z m -893.96818,-9.887 c 0,-2.8547 6.60602,-5.5176 8.64059,-3.483 3.05719,3.0572 1.3891,5.751 -3.56122,5.751 -2.79365,0 -5.07937,-1.0206 -5.07937,-2.268 z m 398.40618,-4.497 c -3.1606,-3.8314 -2.9528,-3.9415 2.2287,-1.1805 5.9098,3.1489 7.3649,5.4058 3.4856,5.4058 -1.2258,0 -3.7972,-1.9014 -5.7143,-4.2253 z m -45.3903,-36.2598 c 0,-1.3143 1.1428,-3.0961 2.5397,-3.9594 1.3968,-0.8633 2.5396,0.2121 2.5396,2.3898 0,2.1777 -1.1428,3.9594 -2.5396,3.9594 -1.3969,0 -2.5397,-1.0754 -2.5397,-2.3898 z M 655.99052,1335.691 c -5.98395,-0.7314 -8.24825,-3.2331 -13.33333,-14.7314 -3.36889,-7.6177 -6.12528,-16.0082 -6.12528,-18.6456 0,-2.6374 -1.0048,-5.1763 -2.23287,-5.6419 -3.37419,-1.2793 -21.85877,-60.465 -29.21546,-93.545 -13.55167,-60.9363 -15.46123,-80.2032 -15.4801,-156.1905 -0.0152,-61.62622 0.74697,-75.87559 5.71504,-106.83186 12.5182,-78.00112 33.29788,-142.91134 69.05448,-215.70784 94.23164,-191.84523 266.54267,-337.63843 472.5728,-399.84599 76.0232,-22.95403 135.619,-31.51009 219.5861,-31.52558 65.6496,-0.0122 101.0915,3.36538 158.0874,15.06523 244.8183,50.25511 461.6553,221.15152 573.3321,451.8619 44.9923,92.94852 71.3998,188.36308 81.009,292.69844 l 1.4619,15.873 h -7.5802 c -4.3907,0 -7.5801,-1.3423 -7.5801,-3.1902 0,-1.7546 -1.7161,-18.0403 -3.8136,-36.1904 C 2114.5752,710.06545 1890.0185,437.65757 1584.4101,341.27397 1474.8204,306.71128 1346.1117,297.7923 1233.6176,316.9655 912.46717,371.70158 657.45247,628.26469 609.77374,944.59721 c -9.14558,60.67779 -8.63218,151.05629 1.20165,211.54579 7.14877,43.9731 23.85231,106.763 36.98979,139.0476 1.39393,3.4255 0.5412,4.4445 -3.71914,4.4445 -4.22938,0 -5.33712,1.2954 -4.71617,5.5153 1.10929,7.5387 6.71531,8.8297 9.19805,2.1182 1.73148,-4.6806 3.03561,-2.958 8.84378,11.6811 3.74708,9.4443 6.54598,17.2728 6.21986,17.3968 -0.32614,0.124 -3.83659,-0.1709 -7.80104,-0.6555 z m 603.61018,-9.3893 c 0,-2.0952 0.9523,-3.8095 2.1164,-3.8095 1.164,0 2.1164,1.7143 2.1164,3.8095 0,2.0953 -0.9524,3.8095 -2.1164,3.8095 -1.1641,0 -2.1164,-1.7142 -2.1164,-3.8095 z m -221.2804,-151.746 c 0.4795,-3.1429 2.2733,-5.4286 3.9862,-5.0794 1.7128,0.3492 3.11,-0.2222 3.1048,-1.2698 -0.018,-3.7179 -10.1155,-18.4128 -12.6516,-18.4128 -1.4174,0 -2.577,-1.5558 -2.577,-3.4573 0,-2.3311 2.0972,-3.0564 6.4382,-2.2266 4.1044,0.7846 8.3622,-0.4938 11.7459,-3.5268 5.2763,-4.7294 5.2993,-4.7125 3.8839,2.8615 -0.7831,4.1905 -2.1808,13.3334 -3.106,20.3175 -1.5497,11.6976 -4.2771,16.3694 -9.6148,16.4691 -1.1448,0.02 -1.6891,-2.5326 -1.2096,-5.6754 z m 18.529,0.6349 c -0.8632,-1.3968 -0.3593,-2.5397 1.12,-2.5397 1.4793,0 2.6896,1.1429 2.6896,2.5397 0,1.3968 -0.504,2.5397 -1.12,2.5397 -0.616,0 -1.8263,-1.1429 -2.6896,-2.5397 z m 10.0543,-0.1689 c -0.9207,-1.4897 -1.1517,-3.2309 -0.5133,-3.8693 1.7713,-1.7714 9.5067,1.7356 9.5067,4.31 0,3.1792 -6.9672,2.8377 -8.9934,-0.4407 z m -67.19713,-36.1595 c 0,-1.9202 2.85713,-4.793 6.34923,-6.3841 3.4921,-1.5911 6.3872,-4.346 6.4337,-6.122 0.093,-3.5768 10.0742,7.3893 10.0742,11.069 0,1.2687 -2.7507,1.6163 -6.1126,0.7725 -3.362,-0.8438 -8.5048,-0.254 -11.4286,1.3108 -4.1964,2.2459 -5.31593,2.1098 -5.31593,-0.6462 z m 10.20973,-20.7531 c -2.0032,-2.4137 -2.1959,-3.8709 -0.5118,-3.8709 3.0693,0 6.6478,4.8183 4.8866,6.5795 -0.6393,0.6393 -2.6079,-0.5796 -4.3748,-2.7086 z m 5.0284,-11.49 c 0,-1.3968 1.1428,-2.5396 2.5397,-2.5396 1.3968,0 2.5396,1.1428 2.5396,2.5396 0,1.3969 -1.1428,2.5397 -2.5396,2.5397 -1.3969,0 -2.5397,-1.1428 -2.5397,-2.5397 z m 72.3809,-144.76187 c -0.8633,-1.39683 -0.3593,-2.53969 1.12,-2.53969 1.4792,0 2.6896,1.14286 2.6896,2.53969 0,1.39682 -0.504,2.53968 -1.12,2.53968 -0.616,0 -1.8263,-1.14286 -2.6896,-2.53968 z m -85.0793,-40.17447 c 0,-3.06934 4.8183,-6.64785 6.5795,-4.88661 0.6393,0.63924 -0.5796,2.6079 -2.7086,4.37481 -2.4137,2.00317 -3.8709,2.19586 -3.8709,0.5118 z M 941.33117,614.70512 c -0.02,-3.06042 1.1815,-6.31771 2.6712,-7.23845 4.1591,-2.57041 4.3857,-0.5168 0.7123,6.45364 -3.2091,6.08927 -3.3476,6.12142 -3.3835,0.78481 z m 309.32773,-15.21811 c 1.8333,-0.73363 4.0238,-0.64342 4.8677,0.20039 0.8439,0.84391 -0.6561,1.44416 -3.3333,1.33389 -2.9586,-0.12191 -3.5604,-0.72366 -1.5344,-1.53438 z m 127.541,-1.43972 c -0.044,-2.44444 -1.2236,-4.44444 -2.6204,-4.44444 -3.6598,0 -3.1229,-5.85067 1.0622,-11.5741 4.1247,-5.64081 5.505,-4.93394 7.7335,3.96026 0.9851,3.9315 0.1285,8.27558 -2.2525,11.42336 -3.4271,4.5309 -3.8507,4.59944 -3.9228,0.63492 z m -256.1626,-15.1843 c -7.1462,-11.56201 -6.7167,-23.54586 0.8438,-23.54586 3.3326,0 5.3582,1.96343 5.8903,5.70944 0.6705,4.72089 1.6332,5.26936 5.5601,3.16775 7.7586,-4.15223 9.1006,2.39799 1.7513,8.54702 -3.5715,2.98811 -6.8758,7.71865 -7.343,10.5123 -0.7102,4.24694 -1.8087,3.52737 -6.7025,-4.39065 z m 123.012,-0.91789 c -1.862,-4.85224 0.4219,-9.32071 3.7216,-7.2814 3.0216,1.86745 3.1019,11.3201 0.096,11.3201 -1.2474,0 -2.9654,-1.81742 -3.8178,-4.0387 z m 3.5461,-30.93255 c 0,-1.26976 2.9438,-3.64998 6.5418,-5.28935 5.7471,-2.61854 6.4382,-2.43667 5.6884,1.49712 -0.8637,4.53092 -12.2302,8.05534 -12.2302,3.79223 z m 38.0952,-54.78715 c 0,-4.78733 6.7109,-10.15027 10.0889,-8.06253 3.3311,2.05875 1.3456,5.53087 -5.151,9.00775 -3.8076,2.03779 -4.9379,1.82143 -4.9379,-0.94522 z m 25.3968,-8.01938 c 0,-2.61577 1.6645,-3.86141 4.4445,-3.32604 5.3532,1.03093 5.0157,5.53823 -0.5008,6.68685 -2.3009,0.47912 -3.9437,-0.92086 -3.9437,-3.36081 z m 22.8572,-66.18164 c 0,-2.17767 1.1428,-3.25308 2.5397,-2.38979 1.3968,0.86329 2.5396,2.64503 2.5396,3.95942 0,1.31438 -1.1428,2.38979 -2.5396,2.38979 -1.3969,0 -2.5397,-1.78174 -2.5397,-3.95942 z m 27.9365,-10.73519 c 0,-1.53087 1.1615,-3.50125 2.5811,-4.37861 1.4196,-0.87737 1.9976,-2.53935 1.2844,-3.69329 -1.6554,-2.67855 4.7657,-5.15885 13.4851,-5.20889 3.727,-0.0213 8.4904,-1.12239 10.5853,-2.44667 2.752,-1.73966 4.2881,-1.20033 5.5358,1.94365 3.9032,9.83562 2.6123,10.94569 -10.6786,9.18259 -10.3068,-1.36725 -13.7274,-0.8197 -17.7778,2.84582 -2.7584,2.49636 -5.0153,3.2863 -5.0153,1.7554 z m 46.1153,-23.40063 c 0,-3.49206 0.5764,-4.92064 1.281,-3.1746 0.7045,1.74603 0.7045,4.60317 0,6.3492 -0.7046,1.74603 -1.281,0.31746 -1.281,-3.1746 z"
       id="path922" />
  </g>
</svg>
