<?xml version="1.0" encoding="UTF-8" standalone="no"?>
<svg
   xmlns:dc="http://purl.org/dc/elements/1.1/"
   xmlns:cc="http://creativecommons.org/ns#"
   xmlns:rdf="http://www.w3.org/1999/02/22-rdf-syntax-ns#"
   xmlns:svg="http://www.w3.org/2000/svg"
   xmlns="http://www.w3.org/2000/svg"
   xmlns:sodipodi="http://sodipodi.sourceforge.net/DTD/sodipodi-0.dtd"
   xmlns:inkscape="http://www.inkscape.org/namespaces/inkscape"
   width="210mm"
   height="297mm"
   viewBox="0 0 210 297"
   version="1.1"
   id="svg1183"
   inkscape:version="1.0.2-2 (e86c870879, 2021-01-15)"
   sodipodi:docname="Logo 2.svg">
  <defs
     id="defs1177" />
  <sodipodi:namedview
     id="base"
     pagecolor="#ffffff"
     bordercolor="#666666"
     borderopacity="1.0"
     inkscape:pageopacity="0.0"
     inkscape:pageshadow="2"
     inkscape:zoom="0.35"
     inkscape:cx="400"
     inkscape:cy="560"
     inkscape:document-units="mm"
     inkscape:current-layer="layer1"
     inkscape:document-rotation="0"
     showgrid="false"
     inkscape:window-width="1680"
     inkscape:window-height="997"
     inkscape:window-x="-8"
     inkscape:window-y="-8"
     inkscape:window-maximized="1" />
  <metadata
     id="metadata1180">
    <rdf:RDF>
      <cc:Work
         rdf:about="">
        <dc:format>image/svg+xml</dc:format>
        <dc:type
           rdf:resource="http://purl.org/dc/dcmitype/StillImage" />
        <dc:title></dc:title>
      </cc:Work>
    </rdf:RDF>
  </metadata>
  <g
     inkscape:label="Capa 1"
     inkscape:groupmode="layer"
     id="layer1">
    <path
       style="fill:#000000;stroke-width:0.232504"
       d="m 65.712257,166.21927 0.04062,-1.10439 0.089,0.98814 0.089,0.98814 h 36.024693 36.02469 V 121.64467 76.19818 l -12.23343,-13.25163 -12.23342,-13.25163 -0.90303,0.46069 c -0.49667,0.25338 -0.90303,0.40838 -0.90303,0.34444 0,-0.0639 0.41528,-0.32811 0.92285,-0.58705 l 0.92286,-0.47081 12.31962,13.31191 12.31963,13.3119 0.0102,45.62883 0.0102,45.62883 H 101.9422 65.671636 Z m 0.424388,-0.31616 c 0,-0.39767 -0.268396,-6.02135 -0.596434,-12.49706 -0.328041,-6.47572 -0.563448,-12.32349 -0.523135,-12.99503 0.04032,-0.67155 0.0024,-1.247 -0.08427,-1.27877 -0.126124,-0.0462 -0.301405,-4.08558 -0.213419,-4.91826 0.01221,-0.11573 0.21382,-0.037 0.447982,0.17488 0.234162,0.21192 0.48852,0.32253 0.565241,0.24581 0.28106,-0.28106 -0.473313,-1.95406 -0.881106,-1.95406 -0.1808,0 -0.283395,-0.48298 -0.296326,-1.39502 -0.0118,-0.83224 0.07875,-1.39502 0.224457,-1.39502 0.134331,0 0.184014,0.15694 0.110408,0.34876 -0.08152,0.21244 -3.46e-4,0.34875 0.20763,0.34875 0.1878,0 0.341459,0.19246 0.341459,0.42769 0,0.23523 0.251109,0.5421 0.558019,0.68194 0.306911,0.13984 0.542322,0.43309 0.523132,0.65168 -0.0192,0.21858 0.103031,0.44594 0.2716,0.50524 0.191291,0.0673 0.278676,-0.0428 0.232501,-0.29289 -0.04069,-0.22039 0.135273,-0.51921 0.391029,-0.66405 0.255753,-0.14484 0.526553,-0.34676 0.601779,-0.44872 0.07523,-0.10197 0.276853,-0.0166 0.448054,0.18968 0.24821,0.29907 0.255829,0.52841 0.0376,1.1319 -0.356552,0.98603 -0.345203,1.14978 0.06867,0.99096 0.243242,-0.0933 0.420499,0.12948 0.612305,0.76968 0.14848,0.49558 0.386773,0.85711 0.529543,0.80341 0.185981,-0.07 0.276365,1.60012 0.318768,5.88993 0.03256,3.29316 0.115765,6.3276 0.184915,6.7432 l 0.125726,0.75563 h 4.639538 4.639535 v -0.99211 c 0,-1.02366 -0.354341,-7.15785 -0.582213,-10.07901 l -0.129082,-1.65472 0.608381,0.11629 c 0.532917,0.10187 0.598662,0.0476 0.530028,-0.4378 -0.05062,-0.35798 -0.242947,-0.56593 -0.543363,-0.58752 -0.255756,-0.0184 -0.517322,-0.0502 -0.581261,-0.0707 -0.06394,-0.0205 -0.796323,-0.0578 -1.627524,-0.0828 -1.338135,-0.0403 -1.512265,-0.0989 -1.519925,-0.51085 -0.0048,-0.2559 -0.09278,-0.60139 -0.195596,-0.76776 -0.139487,-0.22569 -0.02152,-0.28464 0.464704,-0.23222 0.595541,0.0642 0.665314,-0.01 0.810354,-0.85977 0.08729,-0.5115 0.06516,-0.96489 -0.04917,-1.00751 -0.114332,-0.0426 -0.207879,-0.23692 -0.207879,-0.43176 0,-0.24235 -0.128529,-0.30453 -0.406879,-0.19685 -0.818471,0.31664 -1.632739,0.39857 -1.769063,0.17799 -0.172399,-0.27895 1.980301,-0.55771 2.255607,-0.29209 0.107754,0.10397 0.473946,0.044 0.813762,-0.13333 0.339816,-0.1773 0.795078,-0.32301 1.011693,-0.3238 0.353476,-10e-4 0.379884,-0.24806 0.257604,-2.4073 l -0.136241,-2.40587 0.763584,0.11207 c 0.741065,0.10877 0.758642,0.0923 0.596167,-0.55855 -0.09208,-0.36884 -0.314772,-0.83422 -0.494877,-1.03418 -0.252604,-0.28044 -0.264406,-0.42661 -0.05164,-0.63938 0.198063,-0.19807 0.201585,-0.27583 0.01249,-0.27583 -0.414553,0 -0.626155,0.95764 -0.261427,1.18313 0.259562,0.16048 0.248324,0.26228 -0.06338,0.57407 -0.35021,0.35031 -0.386278,0.31575 -0.476444,-0.4566 -0.05365,-0.45958 -0.001,-0.8356 0.116733,-0.8356 0.117857,0 0.105744,-0.13078 -0.02692,-0.29062 -0.362168,-0.43639 -0.353573,-0.60986 0.06161,-1.24351 0.214965,-0.32807 0.317083,-0.7771 0.235317,-1.03472 -0.08628,-0.27185 0.0031,-0.60282 0.222339,-0.82191 0.20173,-0.20173 0.307336,-0.46297 0.234674,-0.58054 -0.222924,-0.3607 -0.508952,-0.23857 -0.643159,0.27464 -0.145985,0.55825 -0.624024,0.38722 -0.624024,-0.22326 0,-0.50868 0.522751,-1.65593 0.755636,-1.65835 0.09591,-0.001 0.174378,-0.14051 0.174378,-0.31004 0,-0.16952 0.261566,-0.55395 0.581257,-0.85429 0.319696,-0.30034 0.581261,-0.73708 0.581261,-0.97054 0,-0.23346 0.15694,-0.42448 0.348754,-0.42448 0.191817,0 0.348756,-0.10463 0.348756,-0.2325 0,-0.12788 -0.109214,-0.23251 -0.242694,-0.23251 -0.133484,0 -0.225716,-0.13078 -0.204959,-0.29063 0.09785,-0.75353 -0.03853,-1.81626 -0.218785,-1.70485 -0.110785,0.0685 -0.379192,-0.0719 -0.596458,-0.31201 -0.217262,-0.24008 -0.768009,-0.50647 -1.223873,-0.592 -0.564932,-0.10598 -0.753123,-0.23122 -0.591022,-0.39332 0.162099,-0.16209 0.38897,-0.15693 0.71251,0.0162 0.654116,0.35008 0.737757,0.32461 0.737757,-0.22468 0,-0.2633 -0.09619,-0.41928 -0.213761,-0.34662 -0.304623,0.18827 -0.948757,-0.52052 -0.948757,-1.04399 0,-0.29657 -0.114277,-0.39725 -0.348757,-0.30727 -0.288319,0.11064 -0.348753,-0.13237 -0.348753,-1.40232 0,-0.98081 0.09434,-1.53615 0.260971,-1.53615 0.175928,0 0.162949,-0.11811 -0.03983,-0.36244 -0.199042,-0.23983 -0.362642,-1.62604 -0.483607,-4.09769 -0.10054,-2.05439 -0.226834,-3.77928 -0.280645,-3.8331 -0.121172,-0.12117 -2.277008,0.39403 -2.595692,0.62032 -0.127879,0.0908 -1.540337,0.56087 -3.1388,1.0446 -1.598462,0.48372 -3.000824,0.96491 -3.116363,1.0693 -0.115536,0.10439 -0.201004,0.50862 -0.189925,0.89827 0.01401,0.49286 -0.126992,0.78721 -0.463334,0.96721 -0.429079,0.22964 -0.469026,0.20349 -0.355037,-0.23241 0.157919,-0.60388 -0.194381,-0.86284 -0.654428,-0.48103 -0.297354,0.24678 -0.28971,0.32074 0.05953,0.57611 0.337456,0.24676 0.352103,0.35152 0.09282,0.66394 -0.423623,0.51044 -0.13949,1.11717 0.498928,1.06541 0.880037,-0.0714 0.959996,-0.008 0.554172,0.44065 -0.348739,0.38535 -0.352604,0.46325 -0.03604,0.72598 0.525837,0.43641 0.42975,0.77165 -0.177485,0.61924 -0.292662,-0.0735 -0.829682,0.0208 -1.193387,0.20952 -0.584209,0.30309 -0.691548,0.3026 -0.921039,-0.004 -0.161891,-0.21647 -0.454192,-0.2954 -0.775804,-0.20946 -0.482614,0.12895 -0.494683,0.17918 -0.186333,0.77547 0.286042,0.55314 0.284537,0.70207 -0.01135,1.1245 -0.187579,0.26781 -0.32253,0.57113 -0.29989,0.67405 0.02263,0.10292 -0.04088,0.37525 -0.141162,0.60518 -0.12512,0.28689 -0.0527,0.51284 0.230813,0.72015 0.299076,0.21869 0.336411,0.34951 0.135231,0.47385 -0.152853,0.0945 -0.43027,0.0453 -0.616482,-0.10923 -0.415142,-0.34454 -0.452756,-1.61767 -0.04794,-1.62263 0.207173,-0.002 0.197194,-0.0627 -0.03474,-0.20958 -0.237334,-0.15026 -0.287094,-0.48531 -0.183897,-1.23822 0.09151,-0.66762 0.04219,-1.13949 -0.139632,-1.33592 -0.225099,-0.2432 -0.200038,-0.27518 0.125771,-0.16053 0.337276,0.11868 0.40688,0.004 0.40688,-0.67059 0,-0.50886 -0.130671,-0.86391 -0.348754,-0.9476 -0.425913,-0.16343 -0.459704,-1.30369 -0.05813,-1.96142 0.242501,-0.39718 0.227238,-0.52312 -0.09217,-0.7605 -0.330539,-0.24566 -0.449957,-1.63244 -0.874718,-10.15788 -0.270555,-5.43036 -0.557383,-11.09595 -0.637398,-12.5902 l -0.145476,-2.71683 3.926489,-1.90984 c 2.159573,-1.05042 4.083433,-1.99875 4.275247,-2.10742 0.191817,-0.10867 1.275608,-0.66849 2.408429,-1.24405 2.006812,-1.01961 2.819979,-1.25143 2.977905,-0.84895 0.110684,0.28208 2.718335,0.50892 2.878126,0.25037 0.213698,-0.34577 0.803181,-0.24788 0.803181,0.13337 0,0.19182 -0.15694,0.34876 -0.348757,0.34876 -0.536166,0 -0.41592,0.87787 0.21318,1.55633 0.309062,0.33331 0.629726,0.9674 0.712589,1.40909 0.129348,0.6895 0.228217,0.78825 0.699042,0.69825 0.410011,-0.0784 0.581407,0.0182 0.679255,0.38266 0.224124,0.83483 0.156413,2.50307 -0.09528,2.34752 -0.307617,-0.19012 -0.30017,0.42059 0.0089,0.72966 0.13277,0.13277 0.304761,1.46514 0.382201,2.96083 0.127328,2.45929 0.100229,2.74909 -0.283305,3.02954 -0.405097,0.29622 -0.401385,0.32227 0.0828,0.5814 0.446387,0.2389 0.50691,0.46463 0.50691,1.89064 0,1.12555 0.08711,1.61934 0.285693,1.61934 0.272901,0 5.254591,-1.70657 8.636562,-2.95862 l 1.598393,-0.59174 -0.122833,-1.65425 c -0.116709,-1.57171 -0.09206,-1.68111 0.494136,-2.19281 l 0.616976,-0.53858 -0.639384,0.13612 -0.639387,0.13612 v -1.42792 c 0,-1.2429 0.04519,-1.39041 0.348757,-1.13848 0.290841,0.24138 0.348756,0.20978 0.348756,-0.19031 0,-0.26386 -0.08436,-0.53189 -0.187468,-0.59561 -0.215882,-0.13343 -0.07073,-1.77161 0.156978,-1.77161 0.08313,0 0.275942,0.19984 0.42848,0.44409 0.356736,0.57123 1.596889,0.8564 2.058441,0.47335 0.189665,-0.15741 0.368479,-0.24513 0.397357,-0.19494 0.482884,0.83926 0.592406,1.43078 0.664736,3.5903 0.07545,2.25254 0.04158,2.53891 -0.293769,2.48412 -0.502018,-0.082 -0.700389,0.95737 -0.293572,1.53818 0.169099,0.24142 0.241394,0.50501 0.160656,0.58574 -0.08074,0.0807 -0.02993,0.1468 0.112906,0.1468 0.142836,0 0.352317,-0.1655 0.465511,-0.36777 0.169634,-0.30311 0.267558,-0.24027 0.557075,0.35752 0.31419,0.64873 0.384132,0.68567 0.66268,0.35004 0.245791,-0.29616 0.250483,-0.4129 0.02225,-0.55395 -0.18334,-0.11331 -0.23246,-0.40463 -0.134221,-0.79604 0.09789,-0.38999 0.06004,-0.61733 -0.102765,-0.61733 -0.141742,0 -0.257711,0.10463 -0.257711,0.2325 0,0.12788 -0.104626,0.23251 -0.232501,0.23251 -0.127878,0 -0.232504,-0.14038 -0.232504,-0.31195 0,-0.17158 0.429397,-0.44061 0.954214,-0.59785 0.52482,-0.15724 1.100264,-0.34193 1.278771,-0.41043 0.209429,-0.0804 0.324553,0.0365 0.324553,0.3293 0,0.24962 0.207073,0.64125 0.460161,0.87029 0.442899,0.40082 0.465635,0.39999 0.60615,-0.0221 0.578489,-1.73767 0.689109,-1.83486 2.812949,-2.47167 1.45114,-0.43511 2.08695,-0.53578 2.20254,-0.34876 0.12028,0.19462 0.31953,0.19138 0.76689,-0.0125 l 0.60438,-0.27538 -0.14927,-2.24094 c -0.12362,-1.85578 -0.095,-2.20739 0.16662,-2.04571 0.17375,0.10738 0.68267,0.21032 1.13094,0.22875 0.44827,0.0184 0.91966,0.0749 1.04754,0.12552 0.27665,0.10947 0.34875,-0.0623 0.34875,-0.83071 0,-0.34195 -0.11747,-0.54533 -0.29062,-0.50311 -0.15985,0.039 -0.21217,0.027 -0.11626,-0.0267 0.38681,-0.21632 0.14119,-1.01387 -0.38624,-1.25419 -0.37783,-0.17215 -0.61087,-0.52327 -0.71473,-1.0769 -0.13112,-0.69896 -0.0601,-0.91152 0.47628,-1.42523 0.45272,-0.43361 0.59047,-0.48853 0.48875,-0.19486 -0.2044,0.59007 0.23069,1.56739 0.69776,1.56739 0.35315,0 0.34713,0.0392 -0.0524,0.34136 -0.25422,0.19228 -0.3244,0.34459 -0.16069,0.34875 0.15985,0.004 0.29063,0.16434 0.29063,0.35615 0,0.23232 0.23232,0.34876 0.69583,0.34876 0.66289,0 0.69412,-0.044 0.6594,-0.93002 -0.025,-0.63853 -0.1416,-0.93001 -0.37195,-0.93001 -0.20272,0 -0.28255,-0.13804 -0.20169,-0.34876 0.21855,-0.56952 -0.0793,-1.00826 -0.79048,-1.16447 -0.36715,-0.0806 -0.72995,-0.34324 -0.80622,-0.58357 -0.0763,-0.24033 -0.34259,-0.50167 -0.59181,-0.58077 -0.24921,-0.0791 -0.45311,-0.24139 -0.45311,-0.36065 0,-0.11926 -0.13999,-0.21683 -0.31108,-0.21683 -0.19536,0 -0.32259,-0.30617 -0.34202,-0.82304 -0.0307,-0.81701 -0.0251,-0.82193 0.77433,-0.67196 0.44291,0.0831 0.95489,0.0937 1.13774,0.0235 0.46714,-0.17925 0.19886,-1.01537 -0.37385,-1.16514 -0.25679,-0.0671 -0.41334,-0.20876 -0.34787,-0.31469 0.0655,-0.10592 -0.0351,-0.40069 -0.22348,-0.65503 -0.33154,-0.44762 -0.35273,-0.44868 -0.66093,-0.033 -0.17513,0.23621 -0.26209,0.57625 -0.19325,0.75563 0.074,0.19284 -0.0212,0.32616 -0.23281,0.32616 -0.41618,0 -0.69555,-0.69979 -0.49158,-1.23134 0.0774,-0.20175 0.27482,-0.31538 0.43867,-0.25251 0.26989,0.10357 0.57189,-0.64621 0.71341,-1.7712 0.0241,-0.19182 0.0594,-0.44004 0.0783,-0.5516 0.0189,-0.11157 0.19137,-0.0726 0.38318,0.0866 0.29137,0.24182 0.34876,0.20825 0.34876,-0.20403 0,-0.28365 -0.1483,-0.49348 -0.34876,-0.49348 -0.20046,0 -0.34875,-0.20983 -0.34875,-0.49348 0,-0.38646 -0.0677,-0.43732 -0.31203,-0.23452 -0.31223,0.25913 -0.61799,0.13414 -0.61799,-0.25263 0,-0.11309 0.37055,-0.36044 0.82344,-0.54967 0.45289,-0.18923 1.10739,-0.66185 1.45443,-1.05026 0.5424,-0.60704 0.71364,-0.67478 1.21959,-0.48242 0.40509,0.15402 0.85328,0.13278 1.43764,-0.0681 0.59865,-0.20581 0.92182,-0.21913 1.09578,-0.0452 0.17396,0.17395 0.24672,0.16443 0.24672,-0.0323 0,-0.15345 -0.10463,-0.279 -0.2325,-0.279 -0.33036,0 -0.28564,-0.47389 0.11768,-1.24723 0.42869,-0.82198 0.42865,-0.84531 -0.001,-0.84531 -0.19182,0 -0.34957,0.13079 -0.35057,0.29063 -0.001,0.15985 -0.24947,0.40539 -0.55216,0.54566 -0.4876,0.22594 -0.59635,0.17715 -0.95373,-0.42786 -0.29554,-0.50029 -0.3344,-0.75186 -0.14535,-0.9409 0.38826,-0.38827 0.31163,-0.63004 -0.19968,-0.63004 -0.31133,0 -0.41491,-0.11154 -0.32388,-0.34876 0.17116,-0.44603 0.65111,-0.44603 1.09713,0 0.43755,0.43754 0.84698,0.44957 0.84698,0.0249 0,-0.17813 0.17722,-0.39188 0.39383,-0.475 0.32591,-0.12507 0.26832,-0.22745 -0.33392,-0.59369 -0.84062,-0.51121 -1.2803,-1.20862 -1.08419,-1.71969 0.15659,-0.40806 2.00005,-1.54673 2.4607,-1.51992 0.16905,0.01 5.72091,5.89508 12.33747,13.07832 l 12.03011,13.06045 0.002,45.04757 0.002,45.04757 H 101.9422 66.136645 Z m 53.708805,-18.98164 c 2.3e-4,-1.11892 0.069,-4.76518 0.1527,-8.10278 l 0.15222,-6.06837 -2.46298,-0.38361 c -1.35463,-0.21097 -2.73117,-0.3836 -3.05899,-0.3836 h -0.59602 v 8.24945 8.24945 l 0.52314,0.12025 c 0.28772,0.0661 1.36014,0.1517 2.38316,0.19014 1.02302,0.0384 2.09544,0.091 2.38316,0.11669 0.50619,0.0453 0.52315,-0.0191 0.52361,-1.98762 z m 8.83466,-5.1732 c 0,-3.96419 -0.0346,-7.20762 -0.0769,-7.20762 -0.0423,0 -1.21932,-0.20766 -2.61566,-0.46147 -1.39635,-0.25381 -2.61728,-0.46307 -2.71318,-0.46501 -0.0959,-0.002 -0.17438,3.39137 -0.17438,7.54069 v 7.54421 l 1.22064,0.0854 c 0.67136,0.047 1.92688,0.10475 2.79004,0.12841 l 1.56941,0.043 z m 6.2776,0.6352 v -6.5724 l -1.97628,-0.35855 -1.97628,-0.35855 v 6.93095 6.93096 h 1.97628 1.97628 z m -41.385639,-1.33271 c 0,-6.55099 -0.04288,-7.44012 -0.358798,-7.44012 -0.412547,0 -6.476484,0.63058 -7.953206,0.82704 l -0.988141,0.13147 6.92e-4,2.83392 c 3.46e-4,1.55865 0.06905,4.63536 0.152566,6.83711 l 0.151853,4.00319 2.463102,0.0744 c 1.354706,0.0409 3.378583,0.0966 4.497508,0.12375 l 2.034421,0.0494 z m 12.322689,-1.04627 c 0,-7.48625 -0.0272,-8.02105 -0.40688,-8.01651 -0.68154,0.008 -7.759075,0.87582 -7.842141,0.96141 -0.0427,0.044 -0.154307,3.4542 -0.248023,7.57823 l -0.170389,7.49824 h 4.333713 4.33372 z m -36.503064,-2.88142 c 0,-0.24208 -0.162375,-0.50244 -0.360832,-0.5786 -0.198457,-0.0761 -0.319218,-0.0612 -0.268354,0.0333 0.05086,0.0944 0.157641,0.35482 0.237282,0.5786 0.190631,0.53564 0.391904,0.51856 0.391904,-0.0333 z m 8.370128,-2.81492 c 0,-0.12788 -0.04614,-0.2325 -0.10253,-0.2325 -0.05639,0 -0.167191,0.10462 -0.246223,0.2325 -0.07903,0.12788 -0.03291,0.2325 0.102529,0.2325 0.135425,0 0.246224,-0.10462 0.246224,-0.2325 z m 1.395023,-1.29249 c 0,-0.19937 -0.104627,-0.29782 -0.232505,-0.21878 -0.127878,0.079 -0.232504,0.24214 -0.232504,0.36247 0,0.12033 0.104626,0.21878 0.232504,0.21878 0.127878,0 0.232505,-0.16311 0.232505,-0.36247 z m 0.930014,-1.1023 c 0,-0.33502 -0.454262,-0.86026 -0.74401,-0.86026 -0.224664,0 -0.248957,0.78956 -0.031,1.00751 0.266181,0.26619 0.775012,0.16951 0.775012,-0.14725 z m 54.730299,-2.0809 c 0.0724,-0.92711 0.19576,-3.62125 0.27414,-5.98697 l 0.14251,-4.30132 -2.09309,-0.73902 -2.09309,-0.73903 -0.13218,2.36655 c -0.0727,1.3016 -0.17233,4.12071 -0.2214,6.26468 l -0.0892,3.89812 0.60705,0.13778 c 0.33387,0.0758 1.13017,0.27386 1.76955,0.44019 0.63939,0.16633 1.28438,0.31192 1.43332,0.32354 0.17214,0.0134 0.31874,-0.59295 0.40242,-1.66452 z m -53.800285,0.76935 c 0,-0.12032 -0.104626,-0.28344 -0.232504,-0.36247 -0.127875,-0.079 -0.232501,0.0194 -0.232501,0.21878 0,0.19936 0.104626,0.36248 0.232501,0.36248 0.127878,0 0.232504,-0.0985 0.232504,-0.21879 z m -0.465005,-1.15136 c 0,-0.24207 -0.171918,-0.5061 -0.382036,-0.58673 -0.496247,-0.19043 -0.5341,-0.12598 -0.295869,0.50373 0.240764,0.6364 0.677905,0.68993 0.677905,0.083 z m 8.832444,-0.17158 c 2.49508,-0.20856 4.54933,-0.39166 4.565001,-0.40688 0.109847,-0.10671 -0.782452,-13.18183 -0.908161,-13.30754 -0.124964,-0.12496 -5.031733,0.83225 -8.728063,1.70268 -0.378486,0.0891 -0.522979,0.0314 -0.482904,-0.19291 0.08384,-0.46932 -0.516284,-1.59886 -0.849477,-1.59886 -0.337809,0 -0.575376,0.53306 -0.55247,1.23966 0.01574,0.48551 0.02308,0.48695 0.199052,0.0391 0.166936,-0.42486 0.225678,-0.39474 0.6803,0.34875 0.441528,0.72209 0.497685,1.15673 0.498457,3.85794 3.46e-4,1.67429 0.06926,4.31611 0.152853,5.87071 0.126934,2.36074 0.212702,2.82655 0.520443,2.82655 0.202651,0 2.409889,-0.17065 4.904969,-0.37921 z m 38.469646,-6.13751 c 0.23398,-3.45631 0.3848,-6.3248 0.33515,-6.37441 -0.0496,-0.0496 -1.18448,-0.51451 -2.52186,-1.03312 -1.8103,-0.70199 -2.47773,-0.87033 -2.61211,-0.65882 -0.0993,0.15625 -0.1821,1.96785 -0.18406,4.02578 -0.002,2.05792 -0.0709,4.99418 -0.15321,6.52501 l -0.14967,2.78333 2.06782,0.48163 c 1.13729,0.2649 2.23087,0.4936 2.43016,0.50822 0.31023,0.0228 0.42357,-0.87754 0.78778,-6.25762 z m -46.488328,5.5867 c -0.07903,-0.12787 -0.242148,-0.2325 -0.36248,-0.2325 -0.120328,0 -0.218781,0.10463 -0.218781,0.2325 0,0.12788 0.163115,0.23251 0.362479,0.23251 0.19936,0 0.297814,-0.10463 0.218782,-0.23251 z m 22.066338,-1.19853 3.00104,-0.28021 -0.15161,-7.08699 c -0.0834,-3.89784 -0.18821,-7.12357 -0.23291,-7.16829 -0.0447,-0.0447 -1.92856,0.40661 -4.18633,1.00293 l -4.105027,1.08423 v 6.50471 6.5047 l 1.336897,-0.14043 c 0.735294,-0.0772 2.68736,-0.26654 4.33794,-0.42065 z m 16.02652,-3.39341 c 0.0811,-1.88619 0.21317,-5.10345 0.29347,-7.14949 l 0.14598,-3.72005 -2.52589,-0.97965 c -1.38925,-0.5388 -2.709,-1.04698 -2.93278,-1.12927 -0.38224,-0.14056 -0.40689,0.30897 -0.40689,7.42266 v 7.57228 l 0.87189,0.22514 c 0.47954,0.12383 1.60428,0.4296 2.49942,0.67949 0.89513,0.24989 1.69048,0.46649 1.76742,0.48133 0.0769,0.0148 0.20626,-1.51626 0.28738,-3.40244 z m -36.420031,-2.32504 c -0.01346,-0.47954 0.06049,-1.05498 0.164357,-1.27877 0.146913,-0.31653 0.08311,-0.40688 -0.287315,-0.40688 -0.53574,0 -0.609527,0.088 -0.823091,0.98195 -0.120698,0.50521 -0.0802,0.60592 0.200361,0.49826 0.239383,-0.0919 0.351628,0.009 0.351628,0.31619 0,0.38624 0.179427,0.76114 0.364279,0.76114 0.02986,0 0.04325,-0.39235 0.02979,-0.87189 z m -3.184102,0.30436 c 0,-0.0564 -0.104627,-0.1672 -0.232505,-0.24623 -0.127875,-0.079 -0.232501,-0.0329 -0.232501,0.10253 0,0.13542 0.104626,0.24622 0.232501,0.24622 0.127878,0 0.232505,-0.0461 0.232505,-0.10252 z m 0.794361,-4.46458 c 0.213602,-0.55663 0.04711,-0.59937 -0.281998,-0.0724 -0.156092,0.24994 -0.189481,0.45444 -0.0742,0.45444 0.11528,0 0.275569,-0.17192 0.3562,-0.38204 z m 55.208992,-12.12613 c 0.0351,-3.61048 0.21264,-3.30285 -3.25876,-5.64511 -1.91434,-1.29165 -2.01656,-1.3318 -2.14749,-0.84348 -0.0756,0.28199 -0.1389,3.3918 -0.14065,6.91068 l -0.003,6.39796 2.61567,1.56208 2.61566,1.56209 0.14436,-3.42622 c 0.0794,-1.88442 0.15787,-4.81752 0.17438,-6.518 z m -11.59517,8.30938 c 0,-0.12033 -0.10462,-0.21878 -0.2325,-0.21878 -0.12788,0 -0.2325,0.16311 -0.2325,0.36248 0,0.19936 0.10462,0.29781 0.2325,0.21878 0.12788,-0.079 0.2325,-0.24215 0.2325,-0.36248 z m -42.373777,0.086 c -0.223785,-0.0585 -0.406879,-0.20329 -0.406879,-0.32179 0,-0.1185 -0.10463,-0.21545 -0.232505,-0.21545 -0.127878,0 -0.232504,0.15694 -0.232504,0.34875 0,0.232 0.214059,0.33973 0.639384,0.32179 0.393374,-0.0166 0.482831,-0.0679 0.232504,-0.1333 z m 41.366267,-1.4899 c 0,-0.52882 -0.14414,-0.78582 -0.54251,-0.96733 -0.3906,-0.17797 -0.54251,-0.44002 -0.54251,-0.93584 0,-0.58828 -0.0513,-0.64612 -0.35162,-0.39685 -0.26745,0.22197 -0.28846,0.36793 -0.0878,0.60973 0.20401,0.24582 0.18142,0.31791 -0.0997,0.31791 -0.6413,0 -0.68232,0.47338 -0.0887,1.02353 0.3993,0.37005 0.68708,0.47304 0.93468,0.33447 0.25924,-0.14508 0.39861,-0.0715 0.5061,0.26716 0.20558,0.64774 0.272,0.58601 0.272,-0.25278 z m -1.55003,0.12517 c 0,-0.19936 -0.10462,-0.29781 -0.2325,-0.21878 -0.12788,0.079 -0.2325,0.24215 -0.2325,0.36248 0,0.12033 0.10462,0.21878 0.2325,0.21878 0.12788,0 0.2325,-0.16312 0.2325,-0.36248 z m -1.06287,-0.23539 c 0.31665,-0.31664 0.32108,-0.40964 0.0332,-0.69751 -0.18268,-0.18268 -0.37974,-0.33214 -0.4379,-0.33214 -0.16109,0 -0.34301,1.13447 -0.20418,1.2733 0.17378,0.17378 0.20322,0.162 0.60887,-0.24365 z m 3.57585,-0.34958 c -0.0458,-0.13747 -0.18271,-0.24994 -0.30419,-0.24994 -0.12149,0 -0.25837,0.11247 -0.30419,0.24994 -0.0458,0.13747 0.0911,0.24994 0.30419,0.24994 0.21313,0 0.35001,-0.11247 0.30419,-0.24994 z m 4.22963,-7.487 v -7.27194 l -2.80458,-2.05242 c -1.54252,-1.12884 -2.82419,-2.01538 -2.84817,-1.97009 -0.024,0.0453 -0.01,3.59988 0.031,7.89908 l 0.0746,7.81673 1.55291,0.61656 c 0.8541,0.33911 2.02374,0.97787 2.59918,1.41947 0.57545,0.44159 1.12474,0.80552 1.22064,0.80872 0.0959,0.003 0.17438,-3.26655 0.17438,-7.26611 z m -8.94524,6.61932 c -0.0716,-0.0716 -0.25919,-1.5e-4 -0.41691,0.15875 -0.22791,0.22963 -0.2012,0.25633 0.13016,0.13016 0.2293,-0.0873 0.35834,-0.21732 0.28675,-0.28891 z m -31.578347,-1.33763 4.465855,-1.07221 -0.138441,-7.47829 c -0.07615,-4.11306 -0.150189,-7.49375 -0.164545,-7.51264 -0.01436,-0.0189 -1.333928,0.37611 -2.932391,0.87779 -1.598462,0.50168 -3.769463,1.17739 -4.824449,1.50157 l -1.918154,0.58943 v 7.22066 7.22065 l 0.523132,-0.13737 c 0.287724,-0.0756 2.53277,-0.61987 4.988993,-1.20959 z m 30.537477,0.473 c 0.61488,-0.31797 0.68596,-0.31797 0.68596,0 0,0.21505 0.20599,0.35181 0.52314,0.34733 0.4821,-0.007 0.4915,-0.0314 0.11986,-0.31362 -0.2218,-0.16842 -0.33605,-0.37344 -0.25389,-0.4556 0.0822,-0.0822 0.28978,-0.0328 0.46139,0.10959 0.17161,0.14242 0.31202,0.18102 0.31202,0.0858 0,-0.0952 0.16492,-0.0363 0.36648,0.13096 0.30372,0.25207 0.40264,0.24699 0.5777,-0.0297 0.28092,-0.44395 0.27583,-1.32166 -0.008,-1.41882 -0.30937,-0.10583 -0.0155,-1.13909 0.31279,-1.09996 0.67009,0.0799 1.07629,-0.0514 1.07629,-0.34769 0,-0.40887 -0.52781,-0.6222 -0.92779,-0.375 -0.1927,0.1191 -0.52038,-0.0122 -0.89314,-0.35783 -0.32382,-0.30026 -0.67508,-0.49259 -0.78058,-0.42739 -0.43467,0.26864 -0.43005,-0.8688 0.0291,-7.15289 0.26489,-3.6256 0.48123,-6.81798 0.48076,-7.09419 -6.9e-4,-0.37665 -0.80011,-1.0859 -3.19778,-2.8369 l -3.19692,-2.3347 -0.14193,4.69693 c -0.0781,2.58331 -0.22249,6.58625 -0.32094,8.89543 l -0.17902,4.1985 1.71597,0.77438 c 0.94378,0.4259 1.58081,0.82237 1.41563,0.88105 -0.37562,0.13343 0.0757,0.75898 0.54758,0.75898 0.55876,0 0.62471,0.49672 0.11348,0.85479 -0.30943,0.21674 -0.47594,0.54557 -0.43209,0.85331 0.0406,0.2851 -0.12886,0.66877 -0.39365,0.89106 -0.34787,0.29205 -0.39858,0.45804 -0.20128,0.65898 0.19867,0.20235 0.35091,0.14412 0.6172,-0.23606 0.2955,-0.42189 0.43337,-0.46189 0.84067,-0.24391 0.52515,0.28105 0.65018,0.5131 0.22562,0.41875 -0.14386,-0.032 -0.30952,0.0727 -0.36813,0.23251 -0.13925,0.3798 0.0409,0.36658 0.87375,-0.0641 z m 3.40233,-2.01391 c -0.0742,-0.18547 -0.12931,-0.13038 -0.14047,0.14047 -0.0101,0.2451 0.0449,0.38242 0.12212,0.30517 0.0773,-0.0773 0.0855,-0.2778 0.0183,-0.44564 z m -5.62266,-0.18891 c -0.079,-0.12787 -0.24832,-0.2325 -0.3762,-0.2325 -0.12788,0 -0.16784,0.10463 -0.0888,0.2325 0.079,0.12788 0.24832,0.23251 0.3762,0.23251 0.12788,0 0.16784,-0.10463 0.0888,-0.23251 z m 0.26852,-1.08774 c -0.0667,-0.0667 -0.238,-0.0492 -0.38059,0.0389 -0.1861,0.11502 -0.17406,0.26304 0.0427,0.5245 0.27201,0.32818 0.30971,0.32433 0.3806,-0.0389 0.0433,-0.22174 0.0241,-0.45777 -0.0427,-0.5245 z m -14.67943,-0.45244 4.297,-1.07518 v -8.12809 c 0,-6.40433 -0.0616,-8.10548 -0.29063,-8.02147 -0.15984,0.0587 -2.19895,0.66897 -4.53135,1.35627 l -4.240726,1.24965 -0.0024,7.847 c -0.0017,5.17317 0.07823,7.847 0.234348,7.847 0.130249,0 2.170468,-0.48383 4.533818,-1.07518 z m -35.461111,-0.6686 c -0.159195,-0.19181 -0.221906,-0.34875 -0.139362,-0.34875 0.08254,0 -0.02131,-0.26157 -0.230775,-0.58126 -0.457206,-0.69779 -1.024886,-0.76218 -1.024886,-0.11626 0,0.25576 0.133843,0.46501 0.29743,0.46501 0.163582,0 0.448248,0.20925 0.632584,0.46501 0.184337,0.25575 0.429498,0.46501 0.544806,0.46501 0.115304,0 0.07939,-0.15694 -0.0798,-0.34876 z m 12.438578,-1.27992 c -0.09833,-0.30981 -0.0256,-0.51309 0.216837,-0.60613 0.948045,-0.3638 0.06504,-0.6085 -1.221219,-0.33843 -0.04111,0.009 0.08968,0.18011 0.290627,0.38106 0.200952,0.20095 0.365365,0.51483 0.365365,0.69751 0,0.18268 0.111675,0.33215 0.248172,0.33215 0.142566,0 0.185212,-0.19836 0.100218,-0.46616 z M 65.203973,103.9148 c 0.530868,-0.45454 0.544923,-0.51306 0.238913,-0.9946 -0.184731,-0.29069 -0.334754,-0.22518 -0.901106,0.39348 -0.37371,0.40823 -0.621131,0.80058 -0.549822,0.87189 0.242525,0.24253 0.743148,0.13069 1.212015,-0.27077 z m -0.01208,-2.55427 c -0.01218,-0.34402 -0.04984,-0.3296 -0.216211,0.0827 -0.110809,0.27464 -0.313432,0.56854 -0.450268,0.65311 -0.13684,0.0846 -0.248798,0.27195 -0.248798,0.41639 0,0.14444 0.209252,0.038 0.465005,-0.2365 0.255756,-0.27452 0.458376,-0.6866 0.450272,-0.91573 z m 1.119237,0.68779 c 0.05676,-0.17047 -0.103502,-0.29063 -0.387614,-0.29063 -0.285592,0 -0.484382,0.15012 -0.484382,0.3658 0,0.42731 0.725513,0.36477 0.871996,-0.0752 z m 11.539407,-0.18646 c 0.0794,-0.20691 0.04042,-0.30023 -0.09137,-0.21878 -0.126415,0.0781 -0.229841,0.2405 -0.229841,0.36083 0,0.33444 0.166649,0.26075 0.321215,-0.14205 z M 64.27662,101.06014 c 0,-0.12788 -0.104627,-0.23251 -0.232505,-0.23251 -0.127878,0 -0.232504,0.10463 -0.232504,0.23251 0,0.12787 0.104626,0.2325 0.232504,0.2325 0.127878,0 0.232505,-0.10463 0.232505,-0.2325 z m 5.11508,-2.19507 c 0,-0.0564 -0.104627,-0.16719 -0.232505,-0.24622 -0.127878,-0.079 -0.232504,-0.0329 -0.232504,0.10253 0,0.13542 0.104626,0.24622 0.232504,0.24622 0.127878,0 0.232505,-0.0461 0.232505,-0.10253 z m -0.568739,-0.84774 c 0.270922,-0.43836 -0.293409,-0.79052 -0.711184,-0.44379 -0.29416,0.24413 -0.308038,0.34581 -0.06798,0.49809 0.407644,0.25859 0.593807,0.24561 0.779164,-0.0543 z m 66.710049,-15.24759 -0.1508,-2.1314 -2.06101,-2.16992 -2.06102,-2.16992 -0.0113,5.98697 c -0.008,4.26502 -0.0863,5.98697 -0.27223,5.98697 -0.17006,0 -0.14981,0.13704 0.0581,0.39338 0.21682,0.2673 0.22595,0.33743 0.0285,0.21879 -0.1885,-0.11325 -0.29581,-0.0268 -0.30537,0.24599 -0.0123,0.35202 -0.0476,0.33918 -0.21621,-0.0787 -0.279,-0.69151 -0.6213,-0.85243 -0.80346,-0.37773 -0.12879,0.33563 -0.18595,0.3459 -0.35977,0.0647 -0.16248,-0.26291 -0.25796,-0.19941 -0.44674,0.29714 -0.13206,0.34733 -0.40581,0.63151 -0.60833,0.63151 -0.20253,0 -0.30074,0.10921 -0.21825,0.24269 0.0825,0.13348 0.0277,0.39002 -0.12174,0.5701 -0.35903,0.43261 -0.0831,1.29671 0.35986,1.12675 0.18527,-0.0711 0.33685,-0.0124 0.33685,0.13033 0,0.16009 0.30692,0.22152 0.80077,0.16027 0.48182,-0.0598 0.84067,0.009 0.90095,0.17217 0.0754,0.20435 0.17431,0.20166 0.39995,-0.0108 0.23791,-0.22407 0.40581,-0.15893 0.81363,0.31568 0.55556,0.64654 0.86431,0.47711 0.64673,-0.3549 -0.0755,-0.28886 -0.26487,-0.4689 -0.42747,-0.4065 -0.19085,0.0732 -0.25242,-0.0389 -0.17789,-0.32392 0.0988,-0.37782 0.36642,-0.25061 2.00809,0.95461 l 1.8941,1.39052 0.0724,-4.36663 c 0.0398,-2.40165 0.005,-5.32577 -0.0784,-6.49804 z m -64.1403,9.08351 c 1.904549,-0.71598 4.006715,-1.50618 4.671478,-1.756 0.687351,-0.25832 1.171217,-0.57431 1.121856,-0.73264 -0.04774,-0.15313 -0.155013,-2.80133 -0.23838,-5.88489 -0.137912,-5.10088 -0.116678,-5.61988 0.235459,-5.755 0.247871,-0.0951 0.540968,0.0398 0.815122,0.37515 0.322491,0.3945 0.494883,0.45807 0.698894,0.25774 0.431736,-0.42396 0.166475,-1.13157 -0.41646,-1.11095 -0.303502,0.0107 -0.567971,-0.15538 -0.647796,-0.40688 -0.0742,-0.23377 -0.337099,-0.42503 -0.584236,-0.42503 -0.377548,0 -0.449342,-0.16716 -0.449342,-1.04626 0,-0.57545 -0.04412,-1.04627 -0.09805,-1.04627 -0.05393,0 -2.267056,1.05255 -4.918055,2.33899 l -4.820006,2.339 0.155119,3.88048 c 0.363085,9.0831 0.447954,10.27432 0.732021,10.27432 0.153756,0 1.837825,-0.58579 3.742378,-1.30176 z m 56.47168,-2.2272 c 0.35882,-0.16349 0.55177,-0.4027 0.47861,-0.59334 -0.0674,-0.17568 -0.031,-0.26282 0.0809,-0.19365 0.54786,0.33859 0.68044,-0.86866 0.82828,-7.54173 l 0.1571,-7.09136 -2.61208,-2.61572 c -1.43664,-1.43864 -2.63345,-2.58953 -2.65956,-2.55754 -0.0261,0.032 -0.12116,3.4692 -0.2112,7.63821 l -0.1637,7.58004 2.10992,1.68257 c 1.60974,1.28371 2.10992,1.81549 2.10992,2.24325 0,0.33804 -0.13558,0.56066 -0.34146,0.56066 -0.208,0 -0.28915,0.13632 -0.20763,0.34876 0.0736,0.19182 0.018,0.34876 -0.12355,0.34876 -0.14156,0 -0.25738,0.10462 -0.25738,0.2325 0,0.29614 0.0799,0.29207 0.81181,-0.0414 z M 95.897105,87.11361 c 0,-0.27706 -1.082016,-0.32204 -1.248962,-0.0519 -0.06264,0.10135 0.192754,0.20764 0.567538,0.2362 0.374783,0.0285 0.681424,-0.0544 0.681424,-0.18428 z m -3.138799,-0.4687 c -0.07903,-0.12787 -0.248321,-0.2325 -0.376196,-0.2325 -0.127878,0 -0.167842,0.10463 -0.08881,0.2325 0.07903,0.12788 0.248321,0.23251 0.376199,0.23251 0.127874,0 0.167842,-0.10463 0.08881,-0.23251 z m 7.464344,-1.99699 c -0.19822,-0.51654 -0.605485,-0.16943 -0.605485,0.51605 0,0.53503 0.03121,0.55292 0.371337,0.2128 0.204238,-0.20423 0.309598,-0.53221 0.234148,-0.72885 z m 8.03696,0.44968 c 0.72281,-0.65412 0.47061,-0.81035 -0.50482,-0.31272 -0.51151,0.26096 -0.93002,0.52465 -0.93002,0.58599 0,0.27423 1.05105,0.0741 1.43484,-0.27327 z m -9.213073,-0.87139 c 0.279624,-0.27963 0.279679,-0.34402 3.46e-4,-0.45119 -0.35857,-0.1376 -0.91214,0.38 -0.667767,0.62437 0.216532,0.21654 0.299076,0.19511 0.667376,-0.17318 z m 12.079553,-0.60384 c 0,-0.84496 -0.14548,-0.88157 -0.49633,-0.12488 -0.19677,0.42437 -0.19677,0.59654 0,0.67734 0.46556,0.19117 0.49633,0.15693 0.49633,-0.55246 z m -32.318,0.2325 c 0.07903,-0.12788 0.03291,-0.2325 -0.102529,-0.2325 -0.135425,0 -0.246224,0.10462 -0.246224,0.2325 0,0.12788 0.04614,0.2325 0.102529,0.2325 0.05639,0 0.167192,-0.10462 0.246224,-0.2325 z m 24.48871,-1.1161 c -0.39115,-0.16628 -0.7618,-0.25171 -0.82367,-0.18984 -0.22019,0.22018 0.2016,0.60843 0.66098,0.60843 0.3712,0 0.43791,0.10726 0.32533,0.52313 -0.13035,0.48152 -0.11417,0.4769 0.20346,-0.0581 0.33099,-0.55753 0.31605,-0.59361 -0.3661,-0.8836 z m 4.22549,1.1161 c 0,-0.12788 -0.0461,-0.2325 -0.10253,-0.2325 -0.0564,0 -0.1672,0.10462 -0.24623,0.2325 -0.079,0.12788 -0.0329,0.2325 0.10253,0.2325 0.13542,0 0.24623,-0.10462 0.24623,-0.2325 z m 4.48746,-2.10219 c 0.0803,-0.30712 0.0272,-0.4494 -0.14632,-0.39229 -0.14978,0.0493 -0.30729,0.32844 -0.35001,0.62034 -0.0941,0.64323 0.318,0.45386 0.49633,-0.22805 z m 9.32233,-7.99374 0.33121,-7.65463 -3.40143,-3.56366 c -1.87079,-1.96002 -3.48311,-3.56367 -3.58295,-3.56367 -0.0998,0 -0.18152,1.10978 -0.18152,2.46617 0,2.09662 -0.0523,2.44611 -0.34875,2.33233 -0.25196,-0.0967 -0.34876,0.0255 -0.34876,0.44013 0,0.35519 0.13294,0.57396 0.34876,0.57396 0.29073,0 0.34875,0.46671 0.34875,2.80533 0,2.58828 -0.20053,3.70477 -0.66542,3.70477 -0.10123,0 -0.13799,-0.31387 -0.0817,-0.69751 0.11174,-0.76137 -0.0427,-0.87094 -0.53446,-0.37917 -0.17581,0.17581 -0.26033,0.54015 -0.18878,0.81376 0.10372,0.39663 0.0257,0.49543 -0.39103,0.49543 -0.43639,0 -0.47378,0.0564 -0.23116,0.34875 0.1592,0.19182 0.5382,0.34876 0.84223,0.34876 0.33637,0 0.55279,-0.13654 0.55279,-0.34876 0,-0.19181 0.14752,-0.34875 0.32781,-0.34875 0.26095,0 0.33281,0.52725 0.35234,2.58502 0.0239,2.52038 0.0403,2.59741 0.6542,3.08067 4.27107,3.36205 5.76587,4.48384 5.81182,4.36156 0.0301,-0.0802 0.20386,-3.59044 0.38603,-7.80049 z m -11.84391,7.33864 c 0.24363,-0.76761 -0.30975,-1.57337 -0.67484,-0.98263 -0.0723,0.11696 1e-5,0.26023 0.16065,0.31838 0.23435,0.0848 0.23425,0.20365 -3.4e-4,0.60112 -0.24317,0.4117 -0.236,0.49538 0.0425,0.49538 0.18428,0 0.39679,-0.19451 0.47225,-0.43225 z m 2.76878,-0.38017 c -0.0733,-0.19109 -0.23815,-0.28263 -0.36628,-0.20345 -0.14325,0.0885 -0.11148,0.22096 0.0825,0.34387 0.42334,0.26824 0.43785,0.26106 0.28379,-0.14042 z m -1.01817,-0.53819 c -0.003,-0.33883 -0.0347,-0.34496 -0.22894,-0.0444 -0.29426,0.45533 -0.29426,0.76312 0,0.58126 0.12788,-0.079 0.2309,-0.32062 0.22894,-0.53685 z M 95.432099,79.99144 c 0,-0.20237 -0.258642,-0.32164 -0.697513,-0.32164 -0.72918,0 -0.870912,0.19861 -0.4454,0.62412 0.328068,0.32807 1.142913,0.11241 1.142913,-0.30248 z m 16.604991,-0.23026 c 0.46654,-0.17903 0.47944,-0.55638 0.019,-0.55638 -0.19182,0 -0.34876,-0.19644 -0.34876,-0.43654 0,-0.2401 -0.16571,-0.57407 -0.36824,-0.74216 -0.50308,-0.41752 -1.07412,-0.0279 -1.16159,0.79247 -0.056,0.52484 0.007,0.61678 0.34918,0.50824 0.23338,-0.0741 0.54705,0.0236 0.71129,0.22149 0.33684,0.40587 0.31284,0.39948 0.7991,0.21288 z m -3.04843,-0.72635 c -0.13997,-0.0467 -0.19961,-0.29471 -0.13253,-0.55122 0.0759,-0.29003 -0.0563,-0.63246 -0.34944,-0.90557 -0.45941,-0.428 -0.48136,-0.42818 -0.86269,-0.007 -0.3108,0.34344 -0.33797,0.53199 -0.13207,0.91671 0.14257,0.2664 0.46479,0.48435 0.71605,0.48435 0.25125,0 0.45682,0.1108 0.45682,0.24623 0,0.13542 0.12563,0.16858 0.27918,0.0737 0.19167,-0.11845 0.19941,-0.19913 0.0247,-0.25737 z M 92.874558,78.73979 c 0,-0.12788 -0.110803,-0.2325 -0.246224,-0.2325 -0.135424,0 -0.181565,0.10462 -0.102529,0.2325 0.07903,0.12788 0.189834,0.2325 0.246223,0.2325 0.05639,0 0.10253,-0.10462 0.10253,-0.2325 z M 66.543635,77.6354 c 0.05676,-0.17047 -0.103502,-0.29063 -0.387614,-0.29063 -0.285596,0 -0.484385,0.15012 -0.484385,0.3658 0,0.42731 0.725516,0.36477 0.871999,-0.0752 z m 26.563427,-0.39316 c 0,-0.0564 -0.104626,-0.16719 -0.232504,-0.24623 -0.127875,-0.079 -0.232505,-0.0329 -0.232505,0.10253 0,0.13543 0.10463,0.24623 0.232505,0.24623 0.127878,0 0.232504,-0.0461 0.232504,-0.10253 z m 19.925298,-0.37258 c -0.0683,-0.2613 -0.0368,-0.77996 0.0701,-1.15257 0.17514,-0.61067 0.15373,-0.65213 -0.2172,-0.42048 -0.22633,0.14134 -0.53876,0.46077 -0.69431,0.70984 -0.23221,0.37182 -0.21112,0.53207 0.11786,0.89558 0.52511,0.58025 0.87965,0.56439 0.7236,-0.0324 z m -32.48049,-0.2224 c 0,-0.12788 -0.10463,-0.23251 -0.232505,-0.23251 -0.127878,0 -0.232504,0.10463 -0.232504,0.23251 0,0.12787 0.104626,0.2325 0.232504,0.2325 0.127875,0 0.232505,-0.10463 0.232505,-0.2325 z m 29.99296,0 c 0,-0.12788 -0.0984,-0.23251 -0.21878,-0.23251 -0.12033,0 -0.28345,0.10463 -0.36248,0.23251 -0.079,0.12787 0.0194,0.2325 0.21878,0.2325 0.19937,0 0.36248,-0.10463 0.36248,-0.2325 z M 79.505603,75.92311 c 0,-0.17716 -0.235411,-0.35555 -0.523135,-0.39641 -0.287724,-0.0409 -0.523131,-0.22396 -0.523131,-0.40689 0,-0.42728 -0.377112,-0.43199 -0.540297,-0.007 -0.07351,0.19156 0.05377,0.37261 0.308834,0.43931 0.310457,0.0812 0.397163,0.25384 0.304817,0.60698 -0.114121,0.43639 -0.06528,0.46992 0.421927,0.28969 0.303042,-0.1121 0.550985,-0.34877 0.550985,-0.52594 z M 67.764169,75.45986 c 0,-0.11419 -0.15694,-0.20762 -0.348753,-0.20762 -0.191817,0 -0.348757,0.15365 -0.348757,0.34146 0,0.20799 0.136314,0.28914 0.348757,0.20762 0.191813,-0.0736 0.348753,-0.22726 0.348753,-0.34146 z m 42.315651,-0.0914 c 0,-0.19182 -0.10462,-0.34876 -0.2325,-0.34876 -0.12788,0 -0.2325,0.15694 -0.2325,0.34876 0,0.19181 0.10462,0.34875 0.2325,0.34875 0.12788,0 0.2325,-0.15694 0.2325,-0.34875 z M 73.111753,74.19222 c 0,-0.19937 -0.104626,-0.29782 -0.232504,-0.21878 -0.127879,0.079 -0.232505,0.24214 -0.232505,0.36247 0,0.12033 0.104626,0.21879 0.232505,0.21879 0.127878,0 0.232504,-0.16312 0.232504,-0.36248 z m 0.581258,-1.26505 c 0.07903,-0.12788 0.03291,-0.2325 -0.10253,-0.2325 -0.135425,0 -0.246224,0.10462 -0.246224,0.2325 0,0.12788 0.04614,0.2325 0.10253,0.2325 0.05639,0 0.167192,-0.10462 0.246224,-0.2325 z m 1.60851,-1.07114 c 0.612596,-0.23508 0.413066,-0.74199 -0.358784,-0.91152 -0.485077,-0.10654 -0.787026,-0.0617 -0.908502,0.13482 -0.427786,0.69217 0.309699,1.14416 1.267286,0.7767 z m 36.405829,-4.17391 c 0,-0.19936 -0.10463,-0.29782 -0.2325,-0.21878 -0.12788,0.079 -0.23251,0.24214 -0.23251,0.36247 0,0.12033 0.10463,0.21878 0.23251,0.21878 0.12787,0 0.2325,-0.16311 0.2325,-0.36247 z m -0.46857,-0.74192 c -0.002,-0.0959 -0.10498,-0.33132 -0.22894,-0.52313 -0.18226,-0.28202 -0.22606,-0.24865 -0.22895,0.17438 -0.002,0.28772 0.10107,0.52313 0.22895,0.52313 0.12788,0 0.2309,-0.0785 0.22894,-0.17438 z m -2.78648,-2.38316 c 0,-0.12788 -0.10463,-0.2325 -0.2325,-0.2325 -0.12788,0 -0.23251,0.10462 -0.23251,0.2325 0,0.12788 0.10463,0.2325 0.23251,0.2325 0.12787,0 0.2325,-0.10462 0.2325,-0.2325 z m 1.68565,-0.6297 c -0.15985,-0.0586 -0.29063,-0.3071 -0.29063,-0.55219 0,-0.42523 -0.0197,-0.42701 -0.43076,-0.0387 -0.41876,0.39554 -0.41714,0.41786 0.0581,0.80121 0.34411,0.27755 0.55774,0.32058 0.72139,0.14531 0.15653,-0.16765 0.13754,-0.28383 -0.0581,-0.35558 z m 2.99504,-2.29577 c 0.0808,-0.37309 0.15925,-0.49524 0.17438,-0.27145 0.0552,0.81699 0.38683,0.38026 0.38683,-0.50948 0,-0.504 -0.0631,-0.81434 -0.14012,-0.68964 -0.0771,0.1247 -0.31605,0.15922 -0.53106,0.0767 -0.29234,-0.11218 -0.35467,-0.0555 -0.24716,0.22463 0.10442,0.27212 0.009,0.37464 -0.35055,0.37464 -0.4213,0 -0.47174,0.0944 -0.34149,0.63939 0.0841,0.35166 0.20026,0.72338 0.25824,0.82603 0.20762,0.36763 0.64672,-0.005 0.79093,-0.67083 z m -4.27897,-1.16788 c -0.0403,-0.0403 -0.3083,-0.0118 -0.59555,0.0633 -0.50044,0.13087 -0.50529,0.15534 -0.11615,0.58534 0.39993,0.44191 0.40901,0.44095 0.59555,-0.0633 0.10419,-0.28163 0.15645,-0.54504 0.11615,-0.58534 z m 7.02111,-3.56367 c 0.42898,-0.27149 0.57474,-1.87563 0.17043,-1.87563 -0.16073,0 -0.44351,0.39235 -0.62841,0.87189 -0.1849,0.47954 -0.37158,0.95036 -0.41484,1.04627 -0.10864,0.24084 0.46959,0.21267 0.87282,-0.0425 z M 65.522949,162.67356 c 0,-1.21483 0.03919,-1.71181 0.08708,-1.10439 0.0479,0.60741 0.0479,1.60137 0,2.20878 -0.04789,0.60742 -0.08708,0.11044 -0.08708,-1.10439 z m -0.233792,-4.53382 c -6.92e-4,-1.1509 0.03861,-1.65103 0.08737,-1.11141 0.04876,0.53962 0.04934,1.48126 0.0014,2.09253 -0.04804,0.61128 -0.08794,0.16977 -0.08865,-0.98112 z m -0.231214,-4.53382 c 0,-1.21483 0.03919,-1.71181 0.08708,-1.10439 0.04789,0.60741 0.04789,1.60137 0,2.20878 -0.0479,0.60742 -0.08708,0.11044 -0.08708,-1.10439 z m -0.232504,-4.65007 c 0,-1.21483 0.03919,-1.71181 0.08708,-1.10439 0.0479,0.60741 0.0479,1.60136 0,2.20878 -0.04789,0.60741 -0.08708,0.11044 -0.08708,-1.10439 z m -0.232505,-4.41757 c 0,-1.21483 0.03919,-1.71181 0.08708,-1.10439 0.0479,0.60741 0.0479,1.60136 0,2.20878 -0.0479,0.60742 -0.08708,0.11044 -0.08708,-1.10439 z m -0.233791,-4.53382 c -6.92e-4,-1.15089 0.03861,-1.65103 0.08737,-1.11141 0.04876,0.53962 0.04934,1.48126 0.0014,2.09253 -0.04805,0.61128 -0.08795,0.16977 -0.08866,-0.98112 z m -0.242985,-4.65007 c 0.0014,-0.76727 0.04471,-1.05312 0.09646,-0.63523 0.05175,0.4179 0.05068,1.04565 -0.0024,1.39503 -0.05305,0.34937 -0.09539,0.007 -0.09408,-0.7598 z m 7.044251,-0.0759 c -0.06532,-0.10568 -0.06247,-0.4074 0.0063,-0.6705 0.08768,-0.33529 0.259106,-0.4433 0.573234,-0.36115 0.427802,0.11188 0.424989,0.0738 -0.06192,-0.83839 -0.280537,-0.52558 -0.700479,-1.01602 -0.933208,-1.08989 -0.234926,-0.0746 -0.423142,-0.35485 -0.423142,-0.63014 0,-0.38565 0.062,-0.43384 0.279005,-0.21683 0.391759,0.39175 1.336741,0.34772 1.496943,-0.0698 0.07361,-0.19181 0.337823,-0.34875 0.587147,-0.34875 0.419602,0 0.426865,0.0378 0.09767,0.50775 -0.201471,0.28764 -0.298395,0.73584 -0.223581,1.03392 0.07263,0.28939 0.0071,0.90492 -0.145725,1.36785 -0.294353,0.89191 -0.134805,1.37785 0.263915,0.8038 0.207575,-0.29884 0.225463,-0.298 0.141719,0.007 -0.05271,0.19182 -0.262549,0.35009 -0.466296,0.35172 -0.203751,0.002 -0.447594,0.0801 -0.541868,0.17438 -0.226238,0.22624 -0.503049,0.21741 -0.650235,-0.0207 z m 2.106346,-0.19535 c -0.222204,-0.2222 -0.191132,-0.54251 0.05262,-0.54251 0.114197,0 0.267852,0.15694 0.341459,0.34876 0.135995,0.3544 -0.111671,0.47616 -0.394084,0.19375 z m 0.920855,-0.20047 c -0.209221,-0.54523 -0.203959,-0.54987 0.430993,-0.38006 0.73247,0.1959 0.853847,0.59761 0.208394,0.6897 -0.291101,0.0415 -0.553362,-0.0855 -0.639387,-0.30964 z m -6.888446,-3.80285 c 0,-0.31434 0.147586,-0.49175 0.409079,-0.49175 0.224993,0 0.550999,-0.22725 0.724461,-0.50501 l 0.315384,-0.50501 0.432885,0.56314 c 0.702835,0.91431 0.462839,1.39053 -0.422097,0.83756 -0.156372,-0.0977 -0.548293,-0.004 -0.871888,0.20766 -0.564884,0.37012 -0.587824,0.36597 -0.587824,-0.10659 z M 64.92029,129.1539 c 0.135107,-0.1351 0.382891,-0.1999 0.550629,-0.14399 0.174133,0.0581 0.06874,0.16344 -0.245653,0.24566 -0.386734,0.10113 -0.47751,0.0709 -0.304976,-0.10167 z m 3.430676,-0.10476 c -0.438667,-0.43866 -0.351345,-0.62707 0.193689,-0.41792 0.210118,0.0806 0.382032,0.29234 0.382032,0.47047 0,0.41879 -0.114868,0.4083 -0.575721,-0.0525 z m 0.387783,-1.26853 c 0.04582,-0.13747 0.182707,-0.24994 0.304191,-0.24994 0.121484,0 0.258368,0.11247 0.30419,0.24994 0.04582,0.13747 -0.09106,0.24994 -0.30419,0.24994 -0.213128,0 -0.350016,-0.11247 -0.304191,-0.24994 z m -3.655589,-0.45924 c -0.220927,-0.35747 0.08169,-0.58812 0.380105,-0.2897 0.166981,0.16698 0.170995,0.29703 0.01218,0.39517 -0.130186,0.0805 -0.306716,0.033 -0.392298,-0.10547 z m 11.007546,-8.74979 c 0.167839,-0.0672 0.368372,-0.0589 0.445632,0.0183 0.07726,0.0773 -0.06006,0.13221 -0.305162,0.12212 -0.270853,-0.0112 -0.325948,-0.0662 -0.14047,-0.14047 z m -2.978953,-3.44498 c 0,-0.19181 0.04112,-0.34875 0.09138,-0.34875 0.05025,0 0.151597,0.15694 0.225204,0.34875 0.07361,0.19182 0.03249,0.34876 -0.09137,0.34876 -0.123865,0 -0.225208,-0.15694 -0.225208,-0.34876 z m 0.69751,-1.99 c 0,-0.13542 0.104626,-0.18156 0.232504,-0.10253 0.127878,0.079 0.232505,0.18984 0.232505,0.24623 0,0.0564 -0.104627,0.10253 -0.232505,0.10253 -0.127878,0 -0.232504,-0.1108 -0.232504,-0.24623 z m -9.997656,-0.45128 c 0,-0.12788 0.110803,-0.23251 0.246228,-0.23251 0.135421,0 0.181561,0.10463 0.102529,0.23251 -0.07903,0.12787 -0.189835,0.2325 -0.246227,0.2325 -0.05639,0 -0.10253,-0.10463 -0.10253,-0.2325 z m 12.438945,0 c -0.07903,-0.12788 0.01941,-0.23251 0.218782,-0.23251 0.199363,0 0.362476,0.10463 0.362476,0.23251 0,0.12787 -0.09845,0.2325 -0.218782,0.2325 -0.120328,0 -0.283444,-0.10463 -0.362476,-0.2325 z m -8.370131,-3.02255 c -0.07903,-0.12788 -0.03291,-0.2325 0.10253,-0.2325 0.135424,0 0.246227,0.10462 0.246227,0.2325 0,0.12788 -0.04614,0.2325 -0.10253,0.2325 -0.05639,0 -0.167195,-0.10462 -0.246227,-0.2325 z m -0.581257,-0.89201 c 0,-0.10914 0.209252,-0.38781 0.465005,-0.61926 0.357493,-0.32353 0.465009,-0.34479 0.465009,-0.092 0,0.18088 -0.209253,0.45955 -0.465009,0.61927 -0.255753,0.15972 -0.465005,0.2011 -0.465005,0.092 z m -4.86422,-5.28871 c 0.01114,-0.27086 0.06625,-0.32595 0.140469,-0.14047 0.06716,0.16784 0.0589,0.36837 -0.01837,0.44563 -0.07726,0.0773 -0.13221,-0.0601 -0.122114,-0.30516 z M 62.24741,97.80508 c 0,-0.57544 0.04534,-0.81085 0.100758,-0.52313 0.05542,0.28772 0.05542,0.75854 0,1.04627 -0.05542,0.28772 -0.100758,0.0523 -0.100758,-0.52314 z m -0.212014,-3.48755 c 0,-1.21483 0.03919,-1.71181 0.08708,-1.10439 0.04789,0.60741 0.04789,1.60137 0,2.20878 -0.0479,0.60742 -0.08708,0.11044 -0.08708,-1.10439 z m -0.233791,-4.53382 c -6.92e-4,-1.15089 0.03861,-1.65103 0.08737,-1.11141 0.04876,0.53962 0.04934,1.48126 0.0014,2.09254 -0.04805,0.61127 -0.08795,0.16976 -0.08866,-0.98113 z m -0.231217,-4.53382 c 0,-1.21483 0.03919,-1.71181 0.08708,-1.10439 0.0479,0.60741 0.0479,1.60137 0,2.20878 -0.04789,0.60742 -0.08708,0.11044 -0.08708,-1.10439 z m -0.232501,-4.65007 c 0,-1.21483 0.03918,-1.71181 0.08708,-1.10439 0.0479,0.60741 0.0479,1.60137 0,2.20878 -0.0479,0.60742 -0.08708,0.11044 -0.08708,-1.10439 z m -0.279794,-3.37953 -0.03653,-1.17074 1.515676,-0.74741 c 0.83362,-0.41108 1.592166,-0.74234 1.68565,-0.73613 0.09349,0.006 -0.510097,0.36022 -1.341298,0.78671 -1.49539,0.76729 -1.512721,0.78733 -1.649121,1.90688 l -0.137854,1.13143 z m 32.048969,-2.20056 c 0,-0.12787 0.209253,-0.2325 0.465009,-0.2325 0.255753,0 0.465005,0.10463 0.465005,0.2325 0,0.12788 -0.209252,0.23251 -0.465005,0.23251 -0.255756,0 -0.465009,-0.10463 -0.465009,-0.23251 z m 13.603308,-0.23834 c 0.10021,-0.3157 0.0525,-0.44977 -0.1449,-0.40688 -0.46806,0.10172 -0.51851,-0.7407 -0.0738,-1.2321 0.48279,-0.53347 0.83714,-0.58744 0.64969,-0.099 -0.0736,0.19182 -0.018,0.34876 0.12355,0.34876 0.3329,0 0.32778,0.5211 -0.0125,1.26783 -0.31983,0.70194 -0.75745,0.7999 -0.54209,0.12135 z M 79.980162,73.30411 c -0.776493,-1.08148 -0.945636,-2.39914 -0.332937,-2.59369 0.479251,-0.15218 1.173764,0.10941 1.006977,0.37927 -0.07013,0.11347 -0.03169,0.37751 0.08541,0.58676 0.145431,0.25987 0.264303,0.2973 0.37506,0.11809 0.23692,-0.38335 1.064719,-0.32082 1.064719,0.0804 0,0.18853 -0.307194,0.50164 -0.682652,0.6958 -0.473822,0.24502 -0.70498,0.55774 -0.755636,1.02227 l -0.07299,0.66925 z M 65.90414,73.74214 c 0,-0.15581 2.818399,-1.5616 2.922354,-1.45764 0.04689,0.0469 -0.591455,0.41896 -1.418549,0.82681 -0.827093,0.40786 -1.503805,0.69173 -1.503805,0.63083 z M 92.754939,73.1491 c -0.204,-0.64275 0.27023,-1.18959 0.594018,-0.68496 0.122391,0.19074 0.196506,0.49508 0.164697,0.6763 -0.09504,0.54145 -0.587825,0.54707 -0.758715,0.009 z m 2.463012,-1.28754 c 0.01118,-0.27085 0.06625,-0.32595 0.140469,-0.14047 0.06716,0.16784 0.0589,0.36837 -0.01834,0.44563 -0.07726,0.0773 -0.132211,-0.0601 -0.122114,-0.30516 z M 70.089206,71.65512 c 0,-0.0639 0.627761,-0.43314 1.395023,-0.82045 0.767262,-0.38731 1.39502,-0.65189 1.39502,-0.58795 0,0.0639 -0.627758,0.43314 -1.39502,0.82045 -0.767262,0.38731 -1.395023,0.65189 -1.395023,0.58795 z M 108.6848,70.83467 c 0,-0.12788 0.10463,-0.23251 0.23251,-0.23251 0.12787,0 0.2325,0.10463 0.2325,0.23251 0,0.12787 -0.10463,0.2325 -0.2325,0.2325 -0.12788,0 -0.23251,-0.10463 -0.23251,-0.2325 z M 84.039422,70.58844 c 0,-0.13542 0.104626,-0.18156 0.232504,-0.10253 0.127875,0.079 0.232505,0.18984 0.232505,0.24623 0,0.0564 -0.10463,0.10253 -0.232505,0.10253 -0.127878,0 -0.232504,-0.1108 -0.232504,-0.24623 z M 73.111753,70.04578 c 0,-0.0503 0.162375,-0.15368 0.360832,-0.22984 0.20691,-0.0794 0.300236,-0.0404 0.218782,0.0914 -0.136542,0.22092 -0.579614,0.32677 -0.579614,0.13846 z m 19.995309,-0.17355 c 0,-0.12942 1.296352,-0.89759 1.514753,-0.89759 0.02657,0 -0.0017,0.26229 -0.06313,0.58286 -0.09132,0.47773 -0.232297,0.57366 -0.781521,0.53181 -0.368552,-0.0281 -0.670099,-0.12577 -0.670099,-0.21708 z M 77.296818,69.67215 c 0,-0.12788 0.09845,-0.2325 0.218782,-0.2325 0.120328,0 0.283444,0.10462 0.362476,0.2325 0.07903,0.12788 -0.01941,0.2325 -0.218782,0.2325 -0.199363,0 -0.362476,-0.10462 -0.362476,-0.2325 z M 93.68832,66.1846 c 0.07904,-0.12788 0.189834,-0.23251 0.246227,-0.23251 0.05639,0 0.102529,0.10463 0.102529,0.23251 0,0.12787 -0.110802,0.2325 -0.246227,0.2325 -0.135421,0 -0.181561,-0.10463 -0.102529,-0.2325 z m 3.138799,-1.05999 c 0,-0.19936 0.104626,-0.29782 0.232504,-0.21878 0.127878,0.079 0.232505,0.24214 0.232505,0.36247 0,0.12033 -0.104627,0.21878 -0.232505,0.21878 -0.127878,0 -0.232504,-0.16311 -0.232504,-0.36247 z m 0.232504,-0.86025 c 0,-0.11836 0.197322,-0.46606 0.438494,-0.77266 0.383327,-0.48732 0.475113,-0.51332 0.729599,-0.20668 0.236407,0.28485 0.219363,0.43003 -0.0907,0.77265 -0.40154,0.4437 -1.07739,0.57336 -1.07739,0.20669 z m 2.818381,-0.61487 c -0.415609,-0.26324 -0.129902,-0.71994 0.450396,-0.71994 0.29628,0 0.45128,0.15971 0.45128,0.465 0,0.49037 -0.36641,0.59397 -0.901676,0.25494 z m 9.622206,-6.29737 c -0.0814,-0.13179 0.0119,-0.17077 0.21878,-0.0914 0.4028,0.15456 0.47649,0.32121 0.14205,0.32121 -0.12033,0 -0.2827,-0.10343 -0.36083,-0.22984 z m -7.46664,-0.83544 c 0.0776,-0.20227 0.14113,-0.41565 0.14113,-0.47417 0,-0.0585 0.14596,0.0285 0.32435,0.19339 0.37897,0.35028 0.26551,0.64855 -0.24669,0.64855 -0.23267,0 -0.31002,-0.13002 -0.21879,-0.36777 z m 2.93117,-1.23488 c 0,-0.11419 0.18017,-0.27676 0.40037,-0.36126 0.30701,-0.11781 0.33045,-0.19684 0.10056,-0.33892 -0.41902,-0.25897 0.84182,-0.75467 1.5586,-0.61277 0.30606,0.0606 0.6995,-0.0427 0.89063,-0.23385 0.47799,-0.47799 0.7699,-0.21459 0.7699,0.69469 v 0.77285 l -0.9687,-0.33375 c -0.76807,-0.26462 -1.10515,-0.27722 -1.62752,-0.0608 -0.36236,0.1501 -0.65883,0.36483 -0.65883,0.47719 0,0.11237 -0.10462,0.2043 -0.2325,0.2043 -0.12788,0 -0.23251,-0.0934 -0.23251,-0.20763 z m -0.69751,-1.04626 c 0,-0.0503 0.16238,-0.15369 0.36084,-0.22984 0.20691,-0.0794 0.30023,-0.0404 0.21878,0.0914 -0.13654,0.22093 -0.57962,0.32677 -0.57962,0.13847 z m 5.67356,-0.69819 c -0.14041,-0.15271 -0.23845,-0.50622 -0.21786,-0.78558 0.0634,-0.86102 0.28657,-0.80831 0.43439,0.10262 0.16087,0.99131 0.13679,1.06725 -0.21653,0.68296 z"
       id="path1199" />
    <text
       xml:space="preserve"
       style="font-style:normal;font-weight:normal;font-size:10.5833px;line-height:1.25;font-family:sans-serif;fill:#000000;fill-opacity:1;stroke:none;stroke-width:0.264583"
       x="71.815475"
       y="238.125"
       id="text1203"><tspan
         sodipodi:role="line"
         id="tspan1201"
         x="71.815475"
         y="238.125"
         style="stroke-width:0.264583">juegos rotos</tspan></text>
  </g>
</svg>
